<?xml version="1.0" standalone="no"?>
<!DOCTYPE svg PUBLIC "-//W3C//DTD SVG 1.1//EN" "http://www.w3.org/Graphics/SVG/1.1/DTD/svg11.dtd" >
<svg xmlns="http://www.w3.org/2000/svg" xmlns:xlink="http://www.w3.org/1999/xlink" version="1.1">
<metadata>
Created by FontForge 20190801 at Thu Apr  4 16:54:46 2013
 By www-data
DiamonD (c) 2015
</metadata>
<defs>
<font id="CCWallScrawler_Bold_Cyrillic" horiz-adv-x="801" >
  <font-face 
    font-family="CCWallScrawler_Bold_Cyrillic"
    font-weight="700"
    font-stretch="normal"
    units-per-em="1000"
    panose-1="0 0 0 0 0 0 0 0 0 0"
    ascent="876"
    descent="-124"
    x-height="761.5"
    cap-height="813"
    bbox="-123 -173 1526 1048"
    underline-thickness="50"
    underline-position="-100"
    unicode-range="U+000D-FB02"
  />
<missing-glyph horiz-adv-x="500" 
d="M63 0v800h375v-800h-375v0zM125 63h250v675h-250v-675v0z" />
    <glyph glyph-name=".notdef" horiz-adv-x="500" 
d="M63 0v800h375v-800h-375v0zM125 63h250v675h-250v-675v0z" />
    <glyph glyph-name=".null" horiz-adv-x="0" 
 />
    <glyph glyph-name="nonmarkingreturn" unicode="&#xd;" horiz-adv-x="0" 
 />
    <glyph glyph-name="NULL" horiz-adv-x="0" 
 />
    <glyph glyph-name="NULL" horiz-adv-x="0" 
 />
    <glyph glyph-name="space" unicode=" " horiz-adv-x="506" 
 />
    <glyph glyph-name="exclam" unicode="!" horiz-adv-x="430" 
d="M410 803l-194 -562l-108 12l111 571zM244 47q-2 -9 -8.5 -21.5t-17.5 -26t-27 -25.5t-38 -20q-31 -11 -56 -8.5t-42 16.5t-24.5 38t-2.5 54q4 21 16.5 38.5t30.5 30t38.5 18.5t40.5 4q19 -3 38 -9.5t32.5 -18.5t19.5 -29t0 -41z" />
    <glyph glyph-name="quotedbl" unicode="&#x22;" horiz-adv-x="502" 
d="M454 813l-66 -306l-32 -36l-94 23l46 312l49 22zM234 813l-46 -306l-32 -36l-94 23l26 312l49 22z" />
    <glyph glyph-name="numbersign" unicode="#" horiz-adv-x="639" 
d="M608 407l-104 -14q-1 -17 -1 -34v-34l98 12l4 -155l-100 -13q1 -40 2.5 -79.5t1.5 -79.5l-134 -4q0 36 -2 72.5t-3 73.5l-78 -8q1 -39 2.5 -78t1.5 -78l-134 -4q0 35 -2 71t-3 71l-109 -14l-6 160l115 14q0 17 0.5 32.5t1.5 32.5l-108 -14l-7 160l122 15q3 50 6.5 99
t6.5 100l138 -9q-9 -43 -12.5 -86.5t-6.5 -87.5l82 7q2 50 6 99t6 99l138 -9q-9 -43 -12.5 -86t-6.5 -87l93 11zM372 376l-82 -8q0 -17 -0.5 -33t-0.5 -33l81 7q0 17 0.5 33.5t1.5 33.5z" />
    <glyph glyph-name="dollar" unicode="$" horiz-adv-x="625" 
d="M615 621l-104 -115q-50 22 -101.5 25t-96 -4.5t-78 -22t-48.5 -27.5q-2 -2 -7 -7.5t-10 -11.5q19 -5 41.5 -6.5t49.5 1.5q39 5 90.5 9.5t103.5 4.5q47 0 76 -11t44 -29.5t18 -41.5t-1 -47t-14 -47t-20 -41q-13 -22 -34 -44.5t-47 -41.5t-55.5 -33t-59.5 -20l-12 -132
l-140 26l11 110q-38 9 -72.5 22t-66.5 42l75 97q31 -19 75.5 -26.5t87 -2.5t76 23.5t44.5 51.5q-50 0 -95 -5.5t-80 -8.5q-22 -2 -47.5 -3.5t-52 0t-52.5 7t-48 18.5q-47 27 -56 65t5.5 76t43.5 71.5t58 50.5q26 16 64 34.5t85 31.5l22 149l147 -16l-30 -119q22 -2 44 -3
t47 -6t54 -15t66 -28z" />
    <glyph glyph-name="percent" unicode="%" horiz-adv-x="916" 
d="M876 199q-8 -47 -23 -83t-51 -70q-44 -43 -93 -63t-118 -8q-30 5 -51.5 19.5t-36 35t-22 45t-9.5 49.5q-1 15 2 34t8.5 39.5t12.5 39.5t14 34q16 33 41 58t52 42t52 26.5t39 11.5q34 4 76.5 -5t73.5 -44q25 -29 33 -74t0 -87zM782 756q-21 -24 -42.5 -53.5t-37.5 -52.5
q-98 -143 -187.5 -293t-174.5 -303q-6 -12 -13.5 -26.5t-16 -29.5t-16.5 -29t-14 -24l-126 69q16 25 30.5 54.5t26.5 51.5q84 154 176.5 300t189.5 296q18 29 41.5 63t40.5 59zM432 600q-8 -48 -23.5 -83t-51.5 -70q-44 -44 -93 -63.5t-118 -7.5q-30 5 -51.5 19.5t-36 35
t-22 45t-9.5 49.5q-1 15 2 34t8.5 39.5t12.5 39.5t14 34q16 33 41.5 58t52.5 42t51.5 26.5t38.5 11.5q17 2 37 1t40.5 -6t39.5 -16t34 -29q24 -28 32 -73t1 -87zM752 206q1 6 0.5 14.5t-2 17t-4 16t-5.5 11.5q-6 9 -23.5 10t-34.5 -5q-26 -10 -39.5 -23.5t-27.5 -39.5
q-6 -12 -12 -30t-5 -29q5 -41 37 -45q25 -2 46 7t40 32q14 17 19.5 29t10.5 35zM308 607q1 6 0.5 14.5t-2 17t-4 16t-5.5 11.5q-7 9 -24 10t-34 -5q-27 -10 -40.5 -23.5t-27.5 -40.5q-6 -11 -11.5 -29t-4.5 -29q3 -41 36 -45q25 -2 46 6.5t40 31.5q15 18 20.5 30t10.5 35z
" />
    <glyph glyph-name="ampersand" unicode="&#x26;" horiz-adv-x="625" 
d="M606 203q-57 -17 -102 -29.5t-89 -23.5q-17 -50 -30 -104t-32 -119l-129 40q13 45 22.5 82t18.5 71q-25 -2 -55.5 -2t-60 4.5t-53 13t-34.5 22.5q-11 15 -11.5 33.5t7.5 37.5t22.5 36.5t32.5 30.5q-4 1 -7.5 1t-8.5 2q-42 8 -61 28.5t-21.5 47.5t7.5 57.5t26 58.5
q15 27 39 55t52 53.5t59 46.5t60 33q5 38 15 76.5t15 93.5l139 -12q-9 -37 -15.5 -65t-12.5 -53q13 2 31.5 4t38.5 3.5t39 2.5t31 0l-29 -139q-14 0 -34 -3t-40 -7.5t-38.5 -9t-29.5 -8.5q-49 -16 -99 -45t-85 -71q12 -3 29 -1.5t33.5 5.5t31 7.5t22.5 5.5q26 5 58 10.5
t60 10.5q33 6 64 13l23 -115q-8 -2 -26.5 -6t-41 -10.5t-44.5 -14t-37 -16.5q-12 -6 -29 -14t-35 -17t-34 -18.5t-25 -18.5q34 2 74.5 7.5t84 14.5t88 20t85.5 24z" />
    <glyph glyph-name="quotesingle" unicode="'" horiz-adv-x="250" 
d="M219 812l-79 -345l-113 27l50 343z" />
    <glyph glyph-name="parenleft" unicode="(" horiz-adv-x="417" 
d="M496 744q-51 -24 -96.5 -65.5t-83.5 -94t-66.5 -112.5t-46.5 -121.5t-23 -121t4 -110.5q3 -16 10.5 -27.5t23 -18.5t40 -9t60.5 2l14 -139q-44 -5 -90 -1.5t-86.5 21.5t-70 53.5t-39.5 94.5q-12 66 -6 140.5t27.5 150t57 149.5t82.5 138t105 115t124 82z" />
    <glyph glyph-name="parenright" unicode=")" horiz-adv-x="417" 
d="M361 671q12 -66 6 -140.5t-27.5 -150t-57 -149t-82.5 -137.5t-105 -115.5t-124 -82.5l-60 127q51 24 96.5 65.5t83 93.5t66.5 112t46.5 121.5t23 121t-3.5 110.5q-5 31 -33.5 45.5t-100.5 7.5l-14 139q43 5 89.5 1.5t87 -21.5t70 -53.5t39.5 -94.5z" />
    <glyph glyph-name="asterisk" unicode="*" horiz-adv-x="526" 
d="M547 638q-42 -17 -72 -30.5t-58 -26.5q19 -12 37.5 -22.5t46.5 -23.5l-59 -127q-26 12 -48.5 25.5t-45.5 27.5q-2 -25 -2 -51t2 -62l-140 -11q-4 69 0 126q-22 -16 -43 -31.5t-41 -30.5l-101 98q41 31 73.5 54t64.5 43q-23 17 -42.5 34.5t-42.5 39.5l94 121
q19 -26 36.5 -46t37.5 -37q9 40 20 75t28 69l132 -43q-3 -7 -7.5 -18t-9 -22.5t-8.5 -22.5t-6 -18q21 8 44.5 17t57.5 23z" />
    <glyph glyph-name="plus" unicode="+" horiz-adv-x="465" 
d="M425 282l-124 -10l-10 -181l-115 27v143l-122 -10l-7 161l128 8l-1 181l143 -25l-8 -147l112 8z" />
    <glyph glyph-name="comma" unicode="," horiz-adv-x="305" 
d="M275 148q-54 -72 -103.5 -152.5t-100.5 -158.5l-94 62q26 65 50 124q10 25 20.5 51t21 50.5t19.5 45t16 35.5z" />
    <glyph glyph-name="hyphen" unicode="-" horiz-adv-x="425" 
d="M384 283l-330 -32l-7 160l332 27z" />
    <glyph glyph-name="period" unicode="." horiz-adv-x="291" 
d="M237 84q-5 -17 -11 -30.5t-20 -23.5q-12 -8 -26 -15t-29 -11t-29.5 -5t-25.5 2q-31 7 -45 25t-16 39.5t4.5 44.5t17.5 40q17 26 46 41q20 9 48 10t51 -10t35 -37t0 -70z" />
    <glyph glyph-name="slash" unicode="/" horiz-adv-x="614" 
d="M614 756q-21 -24 -42.5 -53.5t-37.5 -52.5q-98 -143 -187.5 -293t-174.5 -303q-6 -12 -14 -26.5t-16 -29.5t-16 -29t-14 -24l-126 69q16 25 30.5 54.5t26.5 51.5q84 154 176.5 300t188.5 296q18 29 42 63t41 59z" />
    <glyph glyph-name="zero" unicode="0" horiz-adv-x="799" 
d="M790 439q-17 -89 -55 -171.5t-92 -137.5q-55 -56 -121.5 -90t-154.5 -58q-69 -19 -130 -12t-109.5 34.5t-82 74t-47.5 106t-5.5 130t43.5 147.5q13 28 26 55.5t29.5 54.5t38.5 54t52 54q33 30 80 52t99.5 35.5t107 17t102.5 -3.5q54 -8 99.5 -38.5t76 -76.5t43 -104.5
t0.5 -122.5zM651 447q6 27 3 58t-13.5 59t-30 48.5t-46.5 25.5q-38 7 -71.5 9.5t-66 -1.5t-64 -16t-65.5 -36q-26 -18 -45 -38t-34 -42t-27.5 -46t-24.5 -51q-34 -76 -32.5 -139.5t28.5 -105.5t74 -59t104 0q68 20 120 48.5t89.5 68.5t62.5 93.5t39 123.5z" />
    <glyph glyph-name="one" unicode="1" horiz-adv-x="502" 
d="M425 788q-1 -97 -7.5 -181t-17 -164t-24 -159.5t-29.5 -167.5q-5 -24 -12.5 -55t-15.5 -59q-9 -33 -19 -66l-135 24q23 106 41 187.5t32 155.5q11 64 19 127t13 132q-30 -24 -61 -45t-60 -47l-91 90q66 59 130.5 118t128.5 121z" />
    <glyph glyph-name="two" unicode="2" horiz-adv-x="705" 
d="M709 128q-54 -10 -99.5 -18.5t-85.5 -16t-76 -15t-70 -16.5q-33 -9 -66 -19.5t-67.5 -24.5t-72.5 -32t-81 -41l-86 101l46 40q40 35 82 75t83.5 82.5t81.5 85.5t75 83q29 32 52 72t43 104q12 39 -2 50t-68 -3q-31 -8 -65.5 -22.5t-67 -31t-60.5 -33.5t-45 -29l-118 93
l91 57q22 13 63 32t91.5 35.5t104.5 27.5t102 9q37 -2 68.5 -13t50 -34.5t22.5 -60.5t-14 -89q-14 -43 -40.5 -91t-60 -97t-73 -97t-79.5 -90q28 6 63.5 14.5t75.5 17t83.5 17t86.5 16.5z" />
    <glyph glyph-name="three" unicode="3" horiz-adv-x="723" 
d="M713 688q-38 -32 -73 -62q-31 -26 -64 -54.5t-58 -48.5q17 -1 35 -2.5t38 -4.5q60 -9 88 -41.5t33 -74t-7.5 -85.5t-34.5 -75q-53 -77 -127.5 -138.5t-164.5 -105.5q-75 -36 -140.5 -36.5t-113 24t-72.5 68.5t-18 97l146 59q0 -21 6.5 -44t22 -39t41.5 -19t65 16
q35 17 69.5 40t63.5 46t51 43t32 31q9 11 20.5 26t17.5 29t3 25t-23 14q-34 5 -60.5 7t-47.5 1.5t-37.5 -3.5t-31.5 -8q-38 -11 -74 -31t-71 -35l-72 88q36 27 75 54.5t77.5 56t75 59t68.5 62.5q-24 -5 -50.5 -9.5t-55.5 -9.5q-45 -9 -95.5 -22t-117.5 -38l-42 138
q85 27 154 42.5t132.5 27.5t129 23.5t143.5 31.5z" />
    <glyph glyph-name="four" unicode="4" horiz-adv-x="736" 
d="M732 359q-57 -11 -97 -24t-72 -29q-4 -39 -8 -75t-6 -74q-2 -40 -2 -86t6 -114l-153 -9q1 51 3 91.5t5 76t6 67t6 64.5q-76 -26 -158.5 -62.5t-176.5 -78.5l-95 135q44 47 73 80t50 58t36 45t30.5 40t34 42.5t46.5 54.5q32 37 61 82t51.5 86t37.5 71t18 38l120 -69
q-9 -26 -16 -41l69 -4q-8 -86 -15 -148t-11 -115q5 2 10.5 3t10.5 2q11 3 27 7t49 18zM435 552q-41 -51 -87 -102q-25 -28 -51.5 -56.5t-52.5 -58.5q18 7 36.5 12.5t35.5 11.5q32 10 59.5 19t50.5 20q1 73 9 154z" />
    <glyph glyph-name="five" unicode="5" horiz-adv-x="735" 
d="M716 356q6 -44 -5 -89t-34.5 -87t-56 -78t-68.5 -62q-51 -36 -125.5 -58.5t-154 -21t-152.5 33t-121 103.5l101 84q25 -38 70 -56t96 -22.5t99.5 3t81.5 21.5q59 25 91.5 75t35.5 108q2 45 -33 62.5t-104 3.5q-66 -12 -127.5 -40.5t-113.5 -86.5l-109 62q12 29 19.5 56
t14 53t12.5 53.5t14 57.5q6 25 14.5 58t16.5 62q9 34 19 70q67 -5 114.5 -0.5t92.5 15.5q23 6 47 13t51 16.5t59 21t70 25.5l44 -135q-66 -25 -118.5 -42t-97 -27.5t-83 -16.5t-75.5 -9q-8 -19 -12.5 -38t-9.5 -39q-2 -12 -5 -24.5t-5 -25.5q42 18 89.5 31.5t95 19t91.5 1
t80 -21.5t60 -48.5t31 -80.5z" />
    <glyph glyph-name="six" unicode="6" horiz-adv-x="700" 
d="M562 123q-39 -45 -92 -79.5t-110 -54t-113.5 -21t-103.5 19.5q-55 24 -81 64.5t-33 88.5t0 100t19 100q10 40 23 78t35.5 77t56.5 82.5t87 95.5q17 17 42.5 37.5t56 39.5t63 33t63.5 19l75 -122q-33 -6 -57 -12.5t-43.5 -15t-36.5 -18.5t-36 -23q-48 -33 -81.5 -79
t-59.5 -97q13 10 30 21.5t35 22t36.5 20t34.5 15.5q27 11 58.5 17.5t72.5 5.5q74 -1 116 -22t58.5 -55.5t12.5 -78t-22.5 -89.5t-46.5 -90t-59 -80zM541 325q6 16 7 30t-6 24t-24 16t-47 6q-34 0 -65 -10.5t-59 -27t-54 -38t-51 -43.5q-22 -20 -38.5 -46.5t-22.5 -68.5
q-2 -14 7 -29.5t29 -24.5q27 -12 56.5 -10.5t59.5 12.5t59 31t56 45q10 10 23.5 25t27 33t25 37.5t17.5 38.5z" />
    <glyph glyph-name="seven" unicode="7" horiz-adv-x="623" 
d="M697 684q-6 -4 -21 -14.5t-32.5 -23t-35 -26t-27.5 -23.5q-40 -37 -73 -71.5t-60 -68.5t-50 -68.5t-44 -70.5q-21 -37 -40.5 -76.5t-39.5 -84.5t-43 -97t-50 -113l-129 64q48 108 86 189.5t76 148.5t81 126t101 122q-26 -5 -53.5 -10t-45.5 -9q-22 -5 -47 -9t-47 -7
q-26 -4 -51 -6l6 -94l-131 -27l-22 253q5 0 24 0.5t46.5 1.5t60 3t65 4.5t62.5 6.5t52 9q60 13 96.5 21t67 16t63 19t83.5 32z" />
    <glyph glyph-name="eight" unicode="8" horiz-adv-x="782" 
d="M755 339q0 -71 -31.5 -124t-86.5 -105q-30 -28 -59.5 -48.5t-61 -36t-68 -26t-80.5 -19.5q-39 -8 -83.5 -9t-87 6.5t-80.5 24.5t-63.5 45.5t-35.5 69.5t3 96q2 10 9.5 25.5t20 34.5t29.5 39t38 39q-36 28 -51.5 60.5t-15.5 66.5t13.5 68t34.5 65t47.5 56.5t52.5 43.5
q35 23 73.5 36.5t78.5 20t79 6t75 -4.5q42 -5 72.5 -24.5t44.5 -50.5t9.5 -71.5t-33.5 -87.5q0 -2 -1 -4q0 -4 -2 -14v-4q25 -3 53 -15.5t52 -34t39.5 -52.5t15.5 -72zM456 648q-19 8 -45 7.5t-54 -8t-56 -21t-52 -30.5q-23 -17 -38 -35.5t-20.5 -37t-1 -36t21.5 -30.5
q24 -2 61.5 3t74.5 19q11 4 19.5 6.5t16.5 4.5t13.5 4t10.5 4q8 5 19 15.5t28 37.5q15 24 21.5 40t6.5 27t-7 18t-19 12zM607 320q1 27 -4.5 43t-19.5 23.5t-37 8.5t-55 -2q-5 -3 -15.5 -8t-23.5 -11.5t-27 -13t-26 -11.5q-41 -15 -75 -23t-74 -13q-29 -32 -49.5 -63.5
t-25.5 -46.5q-8 -38 8.5 -60.5t45 -32.5t63.5 -9t65 10q19 6 42.5 11.5t49.5 13.5q24 8 46.5 19t40.5 28q36 33 52.5 64t18.5 73z" />
    <glyph glyph-name="nine" unicode="9" horiz-adv-x="689" 
d="M643 610l-8 -18q-13 -30 -28.5 -67t-31.5 -76.5t-31 -79t-28 -75.5q-13 -35 -24.5 -72.5t-21 -81t-17.5 -95.5t-15 -116l-144 20q1 10 5 33.5t10 53.5t13 64t14.5 65t14.5 55.5t13 35.5q-35 -28 -74 -47t-78 -26.5t-74 -2t-60.5 27.5t-38.5 61t-8 99q4 42 11.5 75
t20.5 62.5t30.5 58t40.5 61.5q14 20 36.5 43.5t51 45t63 38t72.5 24.5q36 7 75.5 10t76 0t68 -14t51.5 -31.5t25 -52.5t-10 -78zM510 629q-20 23 -54 33.5t-73 -6.5q-51 -23 -89 -52.5t-61 -66.5q-29 -46 -44.5 -87.5t-13.5 -84.5q1 -22 10 -30t35 -4t56 19.5t50 35.5
q21 22 39.5 41t35 38.5t32.5 40.5t32 48q12 20 23 38.5t22 36.5z" />
    <glyph glyph-name="colon" unicode=":" horiz-adv-x="450" 
d="M251 482q16 -32 15 -66.5t-33 -74.5q-6 -8 -16.5 -13t-22 -7.5t-21 -3.5t-14.5 -2q-19 -4 -35.5 4t-29 23t-20.5 34.5t-9 38.5q-1 14 3 28.5t10 27.5t12.5 22t9.5 12t21 12t41.5 12.5t48 -5.5t40.5 -42zM280 89q-2 -10 -7.5 -20t-11.5 -19t-12 -15.5t-8 -9.5
q-14 -18 -35.5 -24t-43.5 -4q-33 4 -55 19.5t-31.5 37t-6 45t21.5 43.5q3 4 14 17t22 21q10 7 22 13.5t25.5 10t28 3t30.5 -7.5q34 -17 43 -48t4 -62z" />
    <glyph glyph-name="semicolon" unicode=";" horiz-adv-x="470" 
d="M255 414q-2 -10 -7.5 -20t-11.5 -19t-12 -15.5t-8 -9.5q-14 -18 -35.5 -22t-43.5 -6q-28 -2 -49.5 13.5t-32 38t-9 48t19.5 45.5q3 4 14 17t22 21q10 7 22 13.5t25.5 10t28 3t30.5 -7.5q34 -17 43 -48t4 -62zM237 -42q-26 -48 -69 -77t-88 -54l-51 110q6 4 20 14.5t29 24
t28 29t17 30.5q3 11 7 24t4 25q0 9 -6 21t-28 38l100 101q40 -40 57.5 -78t18.5 -73.5t-10.5 -69t-28.5 -65.5z" />
    <glyph glyph-name="less" unicode="&#x3c;" horiz-adv-x="428" 
d="M479 730q-46 -63 -89 -118t-84 -110.5t-80.5 -116t-77.5 -133.5q20 -24 45 -51.5t53 -54.5t57 -51.5t57 -40.5l-71 -121q-12 7 -38.5 28.5t-58.5 51t-67 63.5t-63 66t-46.5 59t-18.5 43q0 14 13.5 44.5t31.5 64.5q17 31 33 57.5t22 35.5q26 42 51.5 84t54.5 84t60 81
t67 75q7 7 14 15t22 28z" />
    <glyph glyph-name="equal" unicode="=" horiz-adv-x="425" 
d="M389 404l-329 -32l-7 161l332 26zM378 179l-329 -32l-7 161l332 26z" />
    <glyph glyph-name="greater" unicode="&#x3e;" horiz-adv-x="428" 
d="M451 492q0 -14 -13.5 -45t-32.5 -64q-17 -31 -33 -57.5t-21 -35.5l-52 -84t-54 -84q-29 -42 -60.5 -81.5t-66.5 -74.5q-8 -7 -15 -15t-21 -28l-113 82q17 23 27 34.5t18 20.5q8 8 16 16.5t16 17.5q74 89 137 188t117 202q-20 24 -45.5 51.5t-53 54.5t-57 51t-57.5 41
l72 121q12 -7 38 -28.5t58.5 -51t67 -63.5t63 -66t47 -59.5t18.5 -42.5z" />
    <glyph glyph-name="question" unicode="?" horiz-adv-x="686" 
d="M626 754q49 -30 54 -68.5t-20.5 -80.5t-75 -85.5t-108.5 -83.5q-20 -14 -36.5 -25t-30.5 -22q19 4 39.5 6t53.5 5l57 -117q-50 -8 -100.5 -18t-100 -24.5t-96.5 -33.5t-89 -45q-20 16 -34 36t-24.5 41.5t-17 42t-11.5 38.5q27 16 55.5 35.5t57 40t56.5 41t53 38.5
q147 104 213 176q-23 7 -57.5 6.5t-73.5 -7t-79.5 -18.5t-73.5 -29q-2 -1 -18.5 -9.5t-36.5 -22t-38.5 -31t-24.5 -35.5l-123 96q12 23 39 46t55.5 42t52 32t28.5 16q45 22 106 37.5t124.5 19t123 -5.5t101.5 -34zM387 129q15 -23 18 -49.5t-8 -49t-37 -39t-69 -20.5
q-56 -5 -78.5 15t-22 48.5t17 58.5t38.5 45q15 10 34 17.5t38.5 8t37.5 -7t31 -27.5z" />
    <glyph glyph-name="at" unicode="@" horiz-adv-x="809" 
d="M792 525q0 -24 -7 -57t-20.5 -69.5t-33 -72.5t-45.5 -64.5t-57.5 -46t-68.5 -17.5q-26 0 -47.5 13.5t-35.5 26.5q-30 -29 -68 -46.5t-85 -17.5q-27 0 -47 11t-33.5 28t-20 39t-6.5 43q0 44 17.5 98.5t50 102.5t79.5 80.5t106 32.5q36 0 66.5 -12.5t45.5 -44.5l29 -5
q-8 -48 -19 -96.5t-13 -100.5q10 11 23 31t24 44t18.5 50t7.5 50q0 43 -18 74t-48.5 47.5t-72 16.5t-88.5 -19q-46 -19 -93 -52.5t-84.5 -84t-61.5 -119t-24 -158.5q0 -16 4 -35t13.5 -35.5t25.5 -29t39 -14.5q20 -2 47.5 0t56.5 8.5t57 17.5t50 27l56 -123
q-28 -24 -65 -41.5t-77.5 -27.5t-81.5 -12t-77 5q-45 9 -80 34t-58.5 59t-35.5 72t-12 74q0 114 30 206t78.5 162.5t110.5 119t127 75.5q75 30 150.5 29.5t135.5 -32t98 -93t38 -151.5zM461 477q-18 -5 -37 -23.5t-35.5 -43.5t-28 -52t-13.5 -48q21 8 41 27t35.5 42.5
t25.5 49.5t12 48z" />
    <glyph glyph-name="A" unicode="A" horiz-adv-x="665" 
d="M656 -29q-20 -17 -29.5 -22.5t-21.5 -8.5q-8 -2 -25 -6t-59 -17q-20 83 -39.5 149.5t-34.5 117.5q-39 3 -70.5 4t-60.5 -0.5t-59.5 -7.5t-67.5 -16q-4 -11 -10 -27t-12.5 -39t-14.5 -55t-15 -75l-140 37q6 25 20 71t34 104t44.5 125.5t52.5 136t57.5 135.5t58.5 124.5
t56.5 102t51.5 68.5q17 -36 37 -86.5t40 -109t40 -121.5t38 -122.5t33.5 -113.5t26.5 -94q6 -25 14 -56.5t17 -65.5t18.5 -68t19.5 -64zM410 336q-17 58 -35 116t-37 114q-15 -32 -26.5 -60t-22.5 -56.5t-22.5 -59t-24.5 -67.5q49 5 89.5 8t78.5 5z" />
    <glyph glyph-name="B" unicode="B" horiz-adv-x="647" 
d="M644 296q1 -29 -6 -57.5t-21.5 -55t-35.5 -48t-47 -35.5q-43 -23 -88 -42t-100.5 -35t-125 -29t-160.5 -23q7 190 5.5 362.5t3.5 324.5q-7 1 -17 1.5t-36 0.5l21 136q65 -1 119.5 -1.5t106.5 -5.5t102 -15.5t95 -31.5q35 -17 58.5 -46t33.5 -64t4 -71t-30 -66
q-13 -16 -22 -26t-19 -18q33 -11 62 -28t50 -37t33.5 -43t13.5 -47zM399 610q-22 17 -76.5 28.5t-129.5 14.5q-5 -47 -4 -102t0 -99q75 17 126 34.5t80 46.5q12 12 20 20.5t9.5 17t-4 17.5t-21.5 22zM499 269q-8 19 -36 34.5t-70 23.5t-94 6t-109 -17q0 -45 -2 -83.5
t-2 -89.5q62 9 121.5 20.5t116.5 39.5q7 4 21.5 10.5t28 15t22 18.5t3.5 22z" />
    <glyph glyph-name="C" unicode="C" horiz-adv-x="659" 
d="M625 485q-11 -8 -29.5 -15t-38.5 -12t-39.5 -7.5t-31.5 -2.5q-3 26 -6 54.5t-5.5 55t-5.5 50.5t-6 41q-22 0 -47.5 -6.5t-50.5 -18t-49 -27.5t-43 -35q-25 -25 -45 -58t-34 -71t-21.5 -80t-7.5 -85q0 -39 19.5 -69.5t52.5 -49t76 -24t89 6.5q30 8 76.5 26t96.5 50
l38 -141q-58 -33 -114 -52t-98 -29q-78 -20 -149.5 -5t-124 59.5t-79.5 116.5t-16 167q12 107 52.5 197t107.5 154q46 44 97.5 72t104 40t105 8t101.5 -25q6 -42 12 -116.5t13 -168.5z" />
    <glyph glyph-name="D" unicode="D" horiz-adv-x="627" 
d="M610 441q-1 -21 -11 -55t-26 -71t-36.5 -72t-41.5 -58q-28 -30 -68.5 -64t-94.5 -65t-120 -54t-145 -30q-2 74 -4 161.5t-2.5 177t1 174.5t6.5 154q-20 4 -32 4.5t-28 2.5l16 134q16 3 35 4.5t37.5 2t34.5 0t25 -1.5q93 -8 177 -29.5t147 -62t98.5 -102.5t31.5 -150z
M467 424q5 52 -10 89.5t-49.5 62t-88.5 39t-126 22.5q-11 -125 -7.5 -245t8.5 -247q62 21 108 51t82 66q15 15 29.5 38t26 46.5t19 44.5t8.5 33z" />
    <glyph glyph-name="E" unicode="E" horiz-adv-x="642" 
d="M614 72q-75 -15 -142.5 -30.5t-132 -29.5t-129 -27t-134.5 -25q0 110 2.5 197.5t4.5 164.5t2.5 150.5t-3.5 156.5q-6 -1 -14 -1h-16h-19q-2 26 -5 52q-2 22 -4 45t-4 40q67 7 121 12t100 8t86.5 5.5t81.5 4.5t84 3.5t95 2.5l17 -131q-71 -2 -121 -6t-92.5 -8t-82.5 -8
t-91 -7q0 -48 -1.5 -86.5t0.5 -82.5q56 10 95.5 16t73.5 9.5t68 6t78 7.5l20 -134q-46 -5 -81 -8.5t-71.5 -8.5t-80 -12t-106.5 -19v-4q0 -48 1.5 -94.5t0.5 -94.5q33 7 73.5 14.5t86.5 15t94.5 17t97.5 21.5z" />
    <glyph glyph-name="F" unicode="F" horiz-adv-x="581" 
d="M554 681q-66 -6 -110 -9.5t-80 -6.5t-71 -5t-82 -5q-3 -18 -4 -42t-1 -51q0 -28 0.5 -57t1.5 -57q36 3 63.5 7t58.5 9.5t71 10.5t100 10l5 -132q-59 -5 -98.5 -8t-71.5 -7.5t-61.5 -10.5t-66.5 -15q1 -40 1 -95.5v-106.5q0 -60 -1 -122l-135 -15q-2 150 -2 281v113.5
t0.5 109t1 94.5t2.5 69q-5 -1 -14 -2t-37 -6l-10 144q56 4 127 8.5t143.5 9t141.5 8.5t122 9q3 -35 7 -65.5t-1 -64.5z" />
    <glyph glyph-name="G" unicode="G" horiz-adv-x="781" 
d="M763 234q-26 -34 -59.5 -72.5t-78.5 -74t-105.5 -63t-140.5 -39.5q-78 -11 -149.5 4.5t-123.5 58t-78.5 111.5t-15.5 165q12 108 59 191.5t112 145.5q46 43 103 74.5t117 48t119 15.5t108 -22q3 -21 7.5 -42t9.5 -48t10 -61.5t8 -80.5q-11 -9 -29.5 -16t-38.5 -12
t-39.5 -7.5t-31.5 -2.5q-3 27 -5 47t-4 35.5t-4 28.5t-5 26q-22 8 -55 2t-68 -20.5t-67.5 -35.5t-53.5 -42q-51 -51 -85 -123t-34 -157q0 -39 19.5 -68.5t52.5 -47.5t76 -23.5t90 4.5q59 11 98 31t65 42q20 17 36 31.5t32 34.5q-2 9 -3 22.5t-1 23.5l-294 -56l-49 138
l460 71q9 -61 17.5 -122t18.5 -115z" />
    <glyph glyph-name="H" unicode="H" horiz-adv-x="630" 
d="M586 -15l-145 2q6 76 9 163.5t2 167.5q-27 -4 -64.5 -9.5t-75.5 -12t-72 -12t-55 -9.5q-4 -54 -2 -121t6 -155q-26 -9 -60 -19t-76 -15q-1 100 -1.5 184.5t0 164.5t2.5 163t6 181q36 7 68 14.5t70 11.5q0 -39 -1.5 -71t-3 -61t-3 -56.5t-1.5 -57.5q23 4 55.5 9t68.5 11
t72 11.5t65 9.5q-1 51 -1 92t-1 78.5t-3 73t-7 75.5q38 11 70 16.5t73 10.5q6 -94 8 -203t2 -220.5t-1.5 -219t-3.5 -197.5z" />
    <glyph glyph-name="I" unicode="I" horiz-adv-x="490" 
d="M465 687l-175 -26q-2 -31 -3.5 -72.5t-3 -88.5t-2.5 -97t-1.5 -97t-1 -88.5t-0.5 -72.5l129 14l21 -139l-371 -41l-14 141l100 11q-1 49 0.5 115.5t3.5 137t5 138.5t6 121l-110 -14l-20 142l425 48z" />
    <glyph glyph-name="J" unicode="J" horiz-adv-x="602" 
d="M582 686q-39 -9 -65.5 -10.5t-47.5 -3.5h-2q9 -46 18.5 -91.5t17.5 -91.5t13 -92t5 -93q0 -46 -9 -105.5t-32.5 -112.5t-64 -89.5t-103.5 -36.5q-47 0 -92 11.5t-88.5 32t-86 49t-85.5 62.5l70 123q33 -29 70 -54t74.5 -43.5t73 -29t64.5 -10.5q25 0 39 25.5t20.5 59.5
t8 67.5t1.5 50.5q0 47 -5.5 92.5t-14 90.5t-18 90t-17.5 91q-57 -2 -114.5 -5.5t-116.5 -7.5l-8 140q51 3 116 3.5t132.5 2.5t131 6.5t110.5 16.5z" />
    <glyph glyph-name="K" unicode="K" horiz-adv-x="630" 
d="M650 165l-68 -135q-72 25 -161.5 66t-206.5 82q-1 -25 -2 -61.5t-2 -70.5q-2 -40 -3 -83l-141 -13l-3 815l143 17v-137v-59.5v-61t0.5 -58.5t0.5 -51q48 60 97.5 125.5t91.5 121.5q48 65 94 128l109 -105q-50 -64 -102 -130q-45 -57 -97.5 -123t-100.5 -126
q60 -23 108.5 -41.5t90 -35.5t78.5 -32.5t74 -31.5z" />
    <glyph glyph-name="L" unicode="L" horiz-adv-x="532" 
d="M519 37l-463 -65q-1 45 -1 85q0 34 -0.5 68t0.5 52q0 40 1 88t1.5 99.5t1.5 104t1 101.5q1 114 2 235l150 34q-4 -122 -8 -238q-2 -50 -3.5 -103t-3 -105t-3 -100.5t-2.5 -87.5q-1 -18 -0.5 -34.5t2.5 -34.5q13 2 33.5 5.5t44 7.5t49.5 8.5t51 9.5q59 11 125 22z" />
    <glyph glyph-name="M" unicode="M" horiz-adv-x="841" 
d="M834 33q-11 -5 -29 -11.5t-38 -13.5t-39.5 -12.5t-31.5 -7.5q-20 142 -38 254t-37 210q-16 -30 -32.5 -60.5t-38.5 -68t-51 -85.5t-70 -113q-54 106 -96 185t-80 145q-11 -43 -19.5 -80t-16.5 -73t-16.5 -73.5t-18 -81.5t-21 -97.5t-26.5 -120.5q-41 20 -70 30.5
t-64 19.5q28 125 50.5 229t45 203.5t48.5 202.5t62 227q39 -80 72.5 -142t61.5 -113.5t51.5 -95.5t44.5 -88q49 74 84 133.5t65 112.5t59 102.5t67 103.5q19 -114 34 -219t29 -205t28 -198t31 -199z" />
    <glyph glyph-name="N" unicode="N" horiz-adv-x="727" 
d="M659 846q0 -125 2 -239t3.5 -227t1 -232t-6.5 -254q-32 35 -58 63.5t-48 52t-40.5 44t-36.5 40.5q-36 41 -70.5 82.5t-67.5 86.5q-32 44 -71 88t-70 80q-1 -47 -0.5 -91.5t3 -91t5.5 -96.5t7 -107q-24 -10 -42 -16.5t-34 -12t-32.5 -11t-37.5 -11.5q-3 108 -5 213.5
t-1 212.5t6 216t16 224q35 -50 72 -100t71.5 -97t64.5 -89t51 -74q26 -40 49.5 -72.5t46 -61t44.5 -54t46 -51.5q3 76 1.5 142.5t-4.5 133.5t-5.5 137.5t-2.5 153.5q22 7 38.5 9.5t32 4t32.5 2t40 2.5z" />
    <glyph glyph-name="O" unicode="O" 
d="M786 390q-8 -46 -18.5 -85.5t-27 -75t-40 -68.5t-57.5 -66q-42 -42 -86 -72.5t-93 -48.5t-105 -22.5t-122 6.5q-56 9 -95.5 36t-66 65.5t-40.5 85t-18 94.5q-3 28 2.5 63t16 72t24.5 73t28 65q31 63 80 113t100.5 85t98.5 54.5t74 22.5q33 4 71 2.5t75.5 -11.5t73 -30
t63.5 -53q22 -26 37.5 -62t23 -76.5t8 -83.5t-6.5 -83zM651 409q4 21 3 48t-6.5 54t-14 51t-17.5 38q-15 21 -40 31t-53.5 12t-57.5 -3t-52 -13q-41 -15 -70.5 -32t-53 -39.5t-42.5 -52t-40 -68.5q-9 -17 -18.5 -40t-17 -48t-12 -49.5t-2.5 -43.5q5 -66 36.5 -108.5
t96.5 -49.5q80 -8 146.5 21t123.5 98q22 26 36.5 47t24 42.5t16.5 46t14 58.5z" />
    <glyph glyph-name="P" unicode="P" horiz-adv-x="636" 
d="M625 574q8 -32 7.5 -60.5t-7.5 -53.5t-19 -47t-25 -41q-26 -38 -69.5 -75t-89.5 -61q-28 -15 -52 -27.5t-48 -23.5t-48.5 -21t-54.5 -20q1 -27 1.5 -58.5t1.5 -58.5q1 -32 1 -64l-133 -15q0 137 -2 266q-1 55 -2 114t-2 115.5t-2 108.5t-2 93q-17 -2 -33 -3.5t-27 -3.5
l17 157q81 -3 160 -5t159 -20q43 -10 86 -24.5t80 -37.5t64.5 -56t38.5 -78zM493 529q-11 44 -52.5 67.5t-95.5 34.5q-32 7 -70.5 6.5t-70.5 1.5q1 -26 1.5 -56.5l1 -61t1 -58t1.5 -47.5q2 -23 2.5 -56.5t2.5 -61.5q37 14 61 23t43 17t37.5 17.5t45.5 24.5q18 9 36 26
t32.5 37t21.5 42.5t2 43.5z" />
    <glyph glyph-name="Q" unicode="Q" 
d="M786 390q-7 -40 -16 -74.5t-21.5 -66t-30 -61t-42.5 -58.5l109 -141l-111 -85l-101 130q-70 -52 -150.5 -72.5t-185.5 -3.5q-56 9 -95.5 36t-66 65.5t-40.5 85t-18 94.5q-3 28 2.5 64.5t16 75.5t24.5 76.5t28 66.5q31 63 80 111.5t100.5 81.5t98.5 51t74 21q33 4 71 2.5
t75.5 -11.5t73 -30t63.5 -53q22 -26 37.5 -62t23 -76.5t8 -83.5t-6.5 -83zM651 409q4 21 3 48t-6.5 54t-14 51t-17.5 38q-15 21 -40 31t-53.5 12t-57.5 -3t-52 -13q-41 -15 -70.5 -32t-53 -39.5t-42.5 -52t-40 -68.5q-9 -17 -18.5 -40t-17 -48t-12 -49.5t-2.5 -43.5
q5 -66 36.5 -108.5t96.5 -49.5q110 -12 197 50l-142 183l111 86l129 -168q14 19 24 36t17.5 36t13 40.5t11.5 49.5z" />
    <glyph glyph-name="R" unicode="R" horiz-adv-x="683" 
d="M661 166q-6 -35 -10 -57t-9.5 -37.5t-12 -27.5t-16.5 -26q-48 16 -90 31t-87.5 29.5t-99 28t-124.5 28.5q0 -35 -1.5 -82t1.5 -89q-23 -6 -55 -9.5t-73 -1.5q-3 34 -4.5 80t-2.5 91t-1.5 84t-0.5 60q-1 44 -0.5 93t1 99.5t0 102t-1.5 100.5q-11 1 -26 0.5t-41 -3.5
l16 143q166 2 282 -10.5t193 -42.5q66 -26 100 -69t43 -90.5t-4.5 -93.5t-42.5 -78q-46 -51 -109 -93t-135 -81q55 -14 95 -24l74 -18.5t67.5 -17t74.5 -19.5zM498 564q-10 32 -40.5 51t-77.5 29q-43 8 -86 9.5t-87 3.5q3 -84 2 -168t2 -156q42 17 77 36.5t76 40.5
q19 10 44.5 26.5t48 37t35.5 43.5t6 47z" />
    <glyph glyph-name="S" unicode="S" horiz-adv-x="771" 
d="M676 377q51 -36 71 -79.5t13 -87t-39 -83.5t-86 -69q-82 -44 -165.5 -55t-167.5 4q-38 7 -72.5 18t-70 27t-73 38t-79.5 51q26 38 45.5 64t46.5 48q53 -36 113.5 -62.5t126.5 -39.5q66 -14 130 -8.5t117 37.5q13 8 21.5 18.5t8.5 23t-9 26t-31 27.5q-25 15 -46 24.5
t-41 15t-42.5 9.5t-50.5 9q-42 7 -88 9t-97 3t-106.5 3.5t-115.5 10.5q36 75 79.5 138.5t91.5 115t98.5 90t100.5 61.5q29 13 59 21.5t58.5 12.5t53.5 4.5t43 -0.5q26 -44 47.5 -94.5t42.5 -97.5l-135 -60q-11 28 -22 54t-28 50q-23 -2 -45.5 -12t-62.5 -30q-6 -3 -22.5 -16
t-37 -31.5t-42.5 -41.5t-41 -46q62 2 124 0.5t117 -12.5q33 -7 60.5 -15t52.5 -18.5t48 -24t47 -30.5z" />
    <glyph glyph-name="T" unicode="T" horiz-adv-x="563" 
d="M573 687q-35 -3 -70 -6.5t-66.5 -7.5t-57 -7t-40.5 -5l6 -651q-14 -4 -23 -6.5t-15 -4l-10 -2.5l-8 -2t-10 -1.5t-16.5 -2t-26.5 -4t-40 -5.5l3 667q-22 -2 -66 -8t-117 -21q-6 24 -7.5 41.5t-2.5 31.5t-1.5 29.5t-3.5 38.5q75 13 147 21t141 14.5t135.5 13t129.5 17.5
q3 -22 5 -39.5t4 -33.5l4 -32t6 -35z" />
    <glyph glyph-name="U" unicode="U" horiz-adv-x="716" 
d="M673 48q-11 -6 -28 -13.5t-36.5 -15t-41 -15.5t-41.5 -15q-2 20 -2.5 32t-0.5 18.5v10v6.5q1 5 1 12.5t-1 23.5q-28 -11 -48 -21.5t-39.5 -21t-41.5 -22t-53 -24.5q-24 -10 -50.5 -21t-54 -19t-54.5 -13t-52 -3q-20 2 -36 13t-28 27.5t-19 36.5t-8 40q-2 44 3 117.5
t16 168t26.5 206t34.5 231.5q40 -4 72.5 -8.5t71.5 -19.5q-6 -52 -17 -108.5t-23.5 -124.5t-24 -151.5t-16.5 -189.5q-2 -32 -1 -48t12 -19q6 -1 18.5 2t26 7.5t26.5 9t19 6.5q35 12 70 26.5t66.5 29.5t58.5 29.5t46 25.5q-1 54 -3 115t-5 124t-6.5 126t-7.5 120
q21 5 38.5 10.5t34.5 10t35 7.5t41 4q2 -83 3 -176.5t3 -188.5t5.5 -187t10.5 -171z" />
    <glyph glyph-name="V" unicode="V" horiz-adv-x="590" 
d="M595 804q-11 -50 -22.5 -95.5t-23.5 -90.5t-26.5 -91.5t-31.5 -97.5q-19 -58 -44.5 -120t-52.5 -127.5t-54 -134.5t-49 -141q-38 67 -64.5 123t-48.5 110t-41.5 112t-42.5 130q-33 104 -54 187.5t-30 139.5q13 15 30 24.5t36 17l38 15t36 17.5q4 -41 10.5 -80.5t15 -81.5
t19.5 -87.5t25 -99.5q15 -60 29.5 -108.5t31.5 -88.5q11 29 18.5 48t14.5 38q5 12 10 26t11.5 31t14 39.5t18.5 52.5q12 35 26 79t28 92t26 98.5t21 97.5z" />
    <glyph glyph-name="W" unicode="W" horiz-adv-x="796" 
d="M805 771q-26 -114 -51.5 -218.5t-56 -209.5t-69.5 -215t-91 -236q-23 55 -45.5 119t-43.5 129t-39.5 127t-32.5 112q-23 -62 -44.5 -121t-43 -119t-45 -122.5t-51.5 -131.5q-28 62 -51.5 131t-41 132t-29 113.5t-15.5 74.5q-15 88 -25.5 177.5t-12.5 184.5q31 7 60 16
t73 26q0 -60 2 -107t5.5 -86.5t8.5 -76t11 -75.5q1 -8 3.5 -27t6.5 -42q2 -8 3.5 -16t3.5 -16q45 112 93 224.5t109 223.5q52 -127 87 -237.5t64 -208.5q23 65 38 123t27 115q7 34 13.5 69t14 72t16 77.5t19.5 87.5z" />
    <glyph glyph-name="X" unicode="X" horiz-adv-x="655" 
d="M699 748q-76 -110 -149.5 -203t-138.5 -178q20 -28 44.5 -56.5t51.5 -58.5q31 -35 62.5 -73t66.5 -86q-13 -17 -23 -30.5t-20.5 -26t-22.5 -26l-28 -31.5q-69 85 -126.5 150t-102.5 120q-35 -40 -61 -76t-50 -72q-27 -41 -56 -86.5t-76 -111.5l-94 113q60 85 120.5 176
t126.5 174q-23 34 -42.5 61t-42.5 56q-13 16 -27 33t-31.5 38t-38.5 47t-48 59l102 105q45 -56 78 -95.5t58.5 -71t46.5 -58.5t44 -58q70 84 139 179t135 190z" />
    <glyph glyph-name="Y" unicode="Y" horiz-adv-x="606" 
d="M603 750q-17 -65 -33 -114.5t-33 -94.5t-36.5 -90t-42.5 -100q-25 -60 -47.5 -108t-44.5 -96t-45.5 -101t-49.5 -122l-119 77q20 45 37 80t32.5 67.5t29 65.5t26.5 73q-34 40 -67.5 79.5t-65.5 82.5q-35 46 -70 98t-73 122l116 87q61 -104 115 -181.5t108 -145.5
q20 48 38.5 89.5t35.5 87t34.5 99.5t35.5 126z" />
    <glyph glyph-name="Z" unicode="Z" horiz-adv-x="613" 
d="M642 827q-63 -99 -120.5 -186.5t-109.5 -171t-100 -166.5t-93 -172q52 7 85.5 11.5t62.5 9.5q17 3 34.5 5.5t41 5.5t54.5 6.5t74 7.5q0 -26 1.5 -40.5t3.5 -27.5q2 -14 4.5 -30.5t5.5 -42.5q-89 -8 -162 -18t-142.5 -20.5t-142 -21.5t-159.5 -21q94 194 190 369.5
t196 334.5q-48 -7 -86.5 -11t-71.5 -9q-20 -2 -38.5 -5t-37.5 -7t-39 -9.5t-44 -14.5l-47 161q60 9 142.5 17.5t170.5 16.5t174 15.5t153 13.5z" />
    <glyph glyph-name="bracketleft" unicode="[" horiz-adv-x="388" 
d="M381 676l-175 -27q-2 -32 -3 -77.5t-2 -98t-1.5 -109t-1 -109.5t-0.5 -99v-78l129 14l21 -139l-291 -33l-14 140l20 3q-1 51 0 125t2.5 154t4 156.5t4.5 131.5l-30 -6l-20 143l346 41z" />
    <glyph glyph-name="backslash" unicode="\" horiz-adv-x="614" 
d="M612 14l-126 -69q-6 10 -14 24t-16.5 29t-16 29.5t-13.5 26.5q-85 153 -174.5 303t-187.5 293q-16 23 -37.5 52.5t-42.5 53.5l123 82q17 -25 40.5 -59t41.5 -63q97 -150 189 -296t177 -300q12 -22 26.5 -51.5t30.5 -54.5z" />
    <glyph glyph-name="bracketright" unicode="]" horiz-adv-x="388" 
d="M352 -40l-345 -40l-12 132l175 27q2 31 3 77t2 98.5t1.5 109t1 109.5t0.5 99v78l-129 -14l-21 138l292 34l14 -141l-21 -2v-79t-0.5 -95.5t-2 -104.5t-2.5 -106t-3 -99t-3 -83l30 6z" />
    <glyph glyph-name="asciicircum" unicode="^" horiz-adv-x="561" 
d="M554 672l-68 -123q-21 12 -43.5 26t-44 29.5t-40 31.5t-31.5 32q-66 -29 -122 -72.5t-95 -80.5l-96 102q43 41 81 72t76.5 56t81 46t94.5 43q15 -13 41 -35.5t56 -46.5t59.5 -46t50.5 -34z" />
    <glyph glyph-name="underscore" unicode="_" horiz-adv-x="537" 
d="M500 -10l-471 -18l-6 160l473 13z" />
    <glyph glyph-name="grave" unicode="`" horiz-adv-x="420" 
d="M417 680l-54 -110l-306 113l57 136z" />
    <glyph glyph-name="a" unicode="a" horiz-adv-x="858" 
d="M880 9q-19 -21 -32 -32.5t-26 -20t-29.5 -16t-41.5 -19.5q-19 34 -38 73.5t-37 79t-34 76t-28 63.5q-59 -8 -106 -13t-92 -8t-92 -4t-106 -1q-10 -17 -28.5 -50.5t-38.5 -69.5t-38 -68t-26 -47l-122 64q59 110 115.5 215t115.5 208q60 103 124 205.5t142 211.5
q36 -67 71.5 -137t69 -139t64 -136t57.5 -127q11 -24 31 -64.5t42.5 -84.5t44.5 -87t38 -72zM550 364q-29 59 -55.5 106.5t-55.5 101.5q-33 -46 -50 -73t-29 -49q-11 -22 -22.5 -44.5t-31.5 -57.5q74 -2 136.5 3t107.5 13z" />
    <glyph glyph-name="b" unicode="b" horiz-adv-x="788" 
d="M776 308q1 -29 -6.5 -57.5t-22 -54t-35 -47t-44.5 -36.5q-62 -39 -130 -65t-143 -43t-157 -28t-172 -21q6 187 5.5 349t3.5 311q-3 0 -11 -2.5t-16 -4.5q-10 -4 -21 -7l-8 150q56 14 121.5 26t134 18t137 4.5t131.5 -13.5q57 -11 82 -42t28.5 -69t-10.5 -76.5t-35 -64.5
q-28 -34 -67 -67q49 -7 91.5 -23.5t74 -38.5t50 -47.5t19.5 -50.5zM503 655q-51 12 -94.5 14t-81.5 -1q-36 -3 -68 -9t-62 -13q-5 -46 -4.5 -96t0.5 -93q39 9 78 19.5t76.5 25.5t73 34.5t67.5 45.5q8 7 18.5 17.5t16.5 21t2.5 20t-22.5 14.5zM639 281q-6 12 -29.5 23t-59 19
t-80 12.5t-91.5 4.5t-94 -4.5t-87 -14.5v-98.5t1 -105.5l104.5 16.5t90.5 16.5q10 2 34 8t53.5 15t60.5 21t55 26t36.5 29.5t5.5 31.5z" />
    <glyph glyph-name="c" unicode="c" horiz-adv-x="792" 
d="M799 175q-50 -36 -97 -64.5t-95 -51.5t-98.5 -41t-107.5 -32q-78 -19 -149.5 -6.5t-124.5 54.5t-80.5 112t-16.5 166q6 54 20.5 99t35.5 83.5t48.5 72t60.5 64.5q31 29 74.5 53.5t92 43t98.5 31.5t95 19t81 5.5t56 -8.5q6 -44 9 -107.5t8 -157.5q-11 -8 -29 -15
t-38.5 -12t-40.5 -7.5t-33 -2.5q2 55 0 93t-7 67q-33 -3 -74.5 -14.5t-82 -27.5t-75 -35t-53.5 -38q-50 -51 -81.5 -114.5t-31.5 -147.5q0 -38 20 -67t53 -45.5t76 -20t90 8.5q46 12 89 30.5t82 39.5t73.5 43t63.5 42q26 -28 46.5 -56.5t42.5 -55.5z" />
    <glyph glyph-name="d" unicode="d" horiz-adv-x="767" 
d="M765 500q3 -22 -5.5 -54.5t-23.5 -67t-36 -67t-43 -53.5q-26 -24 -64.5 -52.5t-85.5 -58.5t-101 -58.5t-110.5 -52t-113 -39.5t-108.5 -21q-2 74 -6 157t-7.5 166t-5 162.5t3.5 147.5l-15 -2.5t-17 -3.5l-20 -6l3 139q16 3 35.5 6.5t38.5 6t35 4.5t25 3q59 5 126 6
t133.5 -6t128.5 -23t111.5 -46t82 -76t39.5 -111zM627 474q-12 60 -53.5 92t-101.5 45t-133 12.5t-148 -4.5q-6 -62 -7 -119t1 -112.5t5.5 -112.5t5.5 -120q236 71 368 202q33 32 50 65.5t13 51.5z" />
    <glyph glyph-name="e" unicode="e" horiz-adv-x="737" 
d="M717 97q-77 -19 -162.5 -41.5t-171 -44t-167.5 -40.5t-152 -31q0 110 2 192.5t3.5 154t1.5 139.5t-4 150q-6 -1 -14.5 -1h-16.5h-18q-2 26 -5 52q-2 22 -4 44.5t-4 39.5q95 14 174.5 24.5t156.5 20t157.5 18.5t177.5 21l26 -136q-142 -16 -265 -30.5t-229 -38.5
q0 -23 -0.5 -42t-1 -37t-0.5 -36t1 -39q57 11 104 17.5t95 12.5t102.5 13.5t127.5 19.5l20 -133q-73 -12 -128.5 -20.5t-106 -16t-102 -16t-116.5 -20.5v-1q0 -8 0.5 -20.5t0.5 -27.5q1 -26 1.5 -58.5t0.5 -67.5q49 9 106 21.5t117.5 27t123.5 30.5t123 31z" />
    <glyph glyph-name="f" unicode="f" horiz-adv-x="657" 
d="M641 653q-66 -6 -120 -9t-101 -6t-91.5 -8t-90.5 -15q-7 -35 -9.5 -82t-3.5 -99q36 8 71 13.5t72 10.5q42 5 92 8.5t122 9.5l5 -142q-59 -5 -108 -9.5t-92.5 -10t-83 -12.5t-78.5 -17q1 -40 1.5 -97t1.5 -110q1 -62 1 -127l-135 -15q-1 61 -2 120q-1 51 -1 105.5v94.5
q-2 0 -5 -0.5t-19 -2.5l-23 128q8 3 16 7q7 3 15.5 5.5t16.5 4.5q0 49 2 100.5t7 96.5q-10 -2 -25 -6t-49 -14l-26 160q33 7 83 14t108.5 13.5t122 12.5t123 11t111 9.5t86.5 7.5q4 -38 8 -75.5t-2 -74.5z" />
    <glyph glyph-name="g" unicode="g" horiz-adv-x="879" 
d="M854 488q-2 -53 -4.5 -102t-12 -93.5t-28 -84t-52.5 -71.5q-49 -47 -111 -83t-130 -58.5t-138 -28.5t-132.5 7t-114.5 47.5t-84 93.5q-32 58 -35.5 130t16.5 145.5t61.5 142.5t100.5 121q39 35 102.5 62t138 40t153.5 9t151 -31l-24 -140q-55 18 -119.5 20.5t-125 -7
t-111 -28t-77.5 -41.5q-45 -39 -74.5 -82.5t-43 -87.5t-10.5 -86t24 -79t54.5 -58t74.5 -28t86.5 -1.5t90.5 21.5t86.5 41.5t74.5 57.5q17 17 29.5 42.5t20.5 48.5q-72 -15 -170.5 -40t-210.5 -48l-31 142q61 15 133.5 30t148.5 28.5t151.5 26t141.5 22.5z" />
    <glyph glyph-name="h" unicode="h" horiz-adv-x="816" 
d="M777 348l-37 -6q0 -26 1.5 -69t2 -92t0.5 -97t-2 -84l-139 5q6 75 5.5 155t-1.5 158q-59 -9 -111.5 -17t-102 -15.5t-98.5 -16t-101 -18.5q-4 -54 -1 -121.5t5 -155.5q-18 -6 -31 -11.5t-25 -10.5q-13 -5 -30 -10.5t-47 -11.5q-4 100 -5 193t0.5 184t5 183t8.5 191
q42 10 75.5 18.5t59.5 14.5q-2 -34 -4 -74.5t-3.5 -82.5t-2.5 -81.5t-1 -71.5q91 17 194 31t213 34q-2 50 -2 91.5t-2 77.5q-1 38 -4 72.5t-11 76.5q13 4 21 6t13 3.5t9 2.5t9 2q8 2 27 4t66 7q3 -38 5 -72.5t2.5 -71.5t1 -80.5t2.5 -98.5q4 -1 10 -1.5t25 -1.5v-138z" />
    <glyph glyph-name="i" unicode="i" horiz-adv-x="320" 
d="M256 763q-6 -32 -9.5 -64.5t-5.5 -57.5q-6 -78 -9.5 -143t-5 -127t-1.5 -127.5t2 -144.5q1 -23 2 -56.5t1 -56.5l-134 -5q0 28 -1.5 58.5t-2.5 53.5q-2 79 -1 143.5t4 126.5t6.5 127t7.5 146q2 30 4.5 68t4.5 67z" />
    <glyph glyph-name="j" unicode="j" horiz-adv-x="785" 
d="M797 701q-24 -2 -44 -4.5t-38 -5.5t-36 -5.5t-39 -4.5q11 -47 20.5 -105.5t22.5 -127.5q10 -54 18.5 -107t6.5 -107q-2 -56 -21.5 -108t-70.5 -89q-67 -48 -131 -65.5t-123 -11.5t-112 33t-97.5 69t-80 95.5t-58.5 111.5q19 16 29 25.5t18 17.5l20 20t34 33
q29 -47 49.5 -79.5t39.5 -59.5q29 -41 59 -71t65 -45t77.5 -13.5t96.5 23.5q8 3 21 13t18 18q16 26 22.5 57t5.5 65.5t-6.5 70.5t-11.5 72q-11 64 -24.5 128.5t-43.5 124.5q-53 -7 -98.5 -13.5t-86 -13t-77 -14t-71.5 -16.5l-19 139q49 12 92.5 19.5t85 13t84 10t90.5 9.5
q43 4 80.5 9.5t73 10t71.5 8t76 4.5z" />
    <glyph glyph-name="k" unicode="k" horiz-adv-x="767" 
d="M802 241l-33 -152q-61 7 -132.5 16t-146 18.5t-147 19.5t-134.5 18q-1 -21 -0.5 -50.5t0.5 -56.5v-65l-138 -15l-13 771l149 7q-2 -72 -3 -141q-1 -59 -2 -121.5t0 -106.5q29 26 61 55t64 58.5t63.5 58.5t59.5 56q66 62 131 124l123 -102q-68 -58 -138 -117
q-30 -25 -62.5 -53t-66.5 -56.5t-67 -56.5t-63 -53q124 -17 250 -29.5t245 -26.5z" />
    <glyph glyph-name="l" unicode="l" horiz-adv-x="675" 
d="M645 54q-154 -30 -299.5 -61.5t-294.5 -59.5q-4 30 -3.5 61.5t2.5 64.5q2 31 3.5 60.5t1.5 46.5q0 40 1 85.5t1.5 93.5t1.5 96.5t1 92.5q1 104 2 210l140 35q-3 -108 -6 -214q-1 -45 -2.5 -94t-2.5 -97.5t-2 -95t-2 -85.5q-1 -17 -0.5 -34t2.5 -35q16 3 43.5 8t61.5 11
t71.5 13.5t73.5 14.5q85 17 184 35z" />
    <glyph glyph-name="m" unicode="m" horiz-adv-x="972" 
d="M955 47q-20 -14 -33 -19t-25 -8t-26.5 -5.5l-43.5 -7.5q-29 117 -53 219t-46 209q-25 -53 -45.5 -94t-38 -77t-34 -70t-35 -73.5t-39.5 -88t-48 -112.5q-51 123 -110.5 252.5t-109.5 263.5q-16 -41 -28.5 -74t-23.5 -64t-22 -63t-22.5 -70.5t-25.5 -86.5t-32 -111
q-20 10 -35.5 17.5t-29.5 13t-28 10t-31 8.5q25 83 47.5 155.5t44 138t42.5 128.5t44 127.5t49.5 134t57.5 149.5q31 -83 58.5 -157.5t53 -144.5t51 -136t53.5 -132q36 79 71 149.5t71 139.5t73 142t75 159q28 -114 50.5 -220t43 -206.5t40 -198.5t40.5 -197z" />
    <glyph glyph-name="n" unicode="n" horiz-adv-x="917" 
d="M838 802v-204.5t-0.5 -184l-1 -179t-1.5 -188.5l-1 -132q-20 18 -56.5 51t-83.5 74.5t-102 89.5l-110 96q-41 36 -80 70.5t-73.5 65.5t-63.5 57.5t-48 44.5q-9 -99 -7.5 -212t9.5 -231q-35 -15 -71.5 -16.5t-68.5 3.5q-3 42 -4 99.5t-1 122t1.5 133t3.5 133.5
q4 152 12 319q131 -120 248 -228q50 -46 101.5 -94.5t99.5 -93t88.5 -83t67.5 -65.5q0 71 0.5 131l1 120t1 125.5t0.5 148.5q20 6 36 10.5t32 7.5t32.5 5t38.5 4z" />
    <glyph glyph-name="o" unicode="o" horiz-adv-x="1007" 
d="M993 470q-2 -39 -14 -79t-33 -79.5t-49 -76.5t-62 -69q-39 -38 -78 -66t-80 -48t-85.5 -32.5t-93.5 -19.5q-61 -9 -118.5 -11t-111.5 10.5t-103 43.5t-92 89q-36 48 -47.5 97.5t-4.5 99.5t28.5 99.5t52.5 96.5q35 54 85.5 93t114.5 74q68 37 141 53t141.5 16.5t129.5 -12
t105 -30.5q33 -14 65 -38t57 -56t39.5 -71.5t12.5 -83.5zM850 469q-1 24 -11.5 45t-28 38t-39.5 29.5t-45 21.5q-85 32 -177 24t-180 -52q-38 -19 -76 -45t-64 -66q-23 -34 -39 -65.5t-22 -61.5t-0.5 -58t26.5 -55q31 -41 65 -61t72.5 -26t81 -2t91.5 11q41 6 82.5 20.5
t81.5 37.5t76 55.5t66 74.5q18 26 30 58.5t10 76.5z" />
    <glyph glyph-name="p" unicode="p" horiz-adv-x="762" 
d="M728 629q25 -61 17.5 -117.5t-57.5 -123.5q-21 -28 -59 -56t-80.5 -51.5t-83.5 -40.5t-68 -23q-48 -12 -94 -25.5t-94 -25.5q1 -27 1.5 -58.5t1.5 -59.5q1 -33 1 -65l-133 -15q-2 122 -4 239q-1 50 -2 103.5t-2.5 106.5t-3 102t-2.5 90q-8 -2 -18.5 -4t-19.5 -5
q-11 -4 -22 -7l7 154q42 5 81 10t78 9t80 5.5t86 -0.5q64 -3 126 -8.5t114.5 -20.5t92 -41.5t57.5 -71.5zM603 571q-27 37 -96 49q-31 6 -70.5 9.5t-81 5t-81.5 0.5t-71 -5q2 -47 -1 -96t-1 -90q1 -12 1.5 -28.5t1 -34l1 -35t0.5 -32.5q42 7 76 13.5t63 14t55.5 17
t54.5 21.5q49 22 82.5 49.5t51.5 54t21.5 50t-6.5 37.5z" />
    <glyph glyph-name="q" unicode="q" horiz-adv-x="1000" 
d="M1003 70q-12 -17 -22 -31t-20 -26.5t-21.5 -24.5t-26.5 -25l-170 128q-57 -38 -116.5 -59t-128.5 -32q-61 -9 -118.5 -11t-111.5 10.5t-103 43.5t-92 89q-36 48 -47.5 97.5t-4.5 99.5t28.5 99.5t52.5 96.5q35 54 85.5 93t114.5 74q68 37 141 53t141.5 16.5t129.5 -12
t105 -30.5q33 -14 65 -38t57 -56t39.5 -71.5t12.5 -83.5q-3 -78 -42 -151.5t-107 -138.5q25 -15 52.5 -34t51.5 -36q27 -20 55 -40zM850 469q-1 24 -11.5 45t-28 38t-39.5 29.5t-45 21.5q-85 32 -177 24t-180 -52q-38 -19 -76 -45t-64 -66q-23 -34 -39 -65.5t-22 -61.5
t-0.5 -58t26.5 -55q31 -41 68.5 -64.5t79.5 -32.5t87.5 -5t93.5 16q15 4 27 9t23.5 10.5t23.5 11.5t26 12l-114 86q11 19 18 32.5t14.5 24t17.5 21t27 24.5q27 -17 67.5 -45.5t87.5 -62.5q25 22 45.5 44t35 46.5t22 53.5t6.5 64z" />
    <glyph glyph-name="r" unicode="r" horiz-adv-x="816" 
d="M822 182q-5 -30 -9.5 -51t-9 -36.5t-8.5 -28.5t-7 -28q-74 11 -144.5 19t-141 14t-143 12.5t-149.5 14.5q0 -23 -1.5 -47.5t1.5 -65.5q-20 -8 -57 -11.5t-71 0.5q-3 34 -4 76.5t-1 84t-0.5 77t-1.5 56.5q-5 86 -7.5 170.5t-6.5 181.5q-4 -1 -10.5 -1.5t-27.5 -2.5l-6 144
q173 21 324 18t289 -30q49 -10 78 -32.5t41.5 -51.5t12 -62.5t-9.5 -66t-24 -61.5t-31 -48t-43 -39.5t-56 -38.5t-54 -31.5t-36 -19.5q-35 -18 -70 -36.5t-71 -35.5q125 -11 242 -20t213 -23zM595 531q21 27 19.5 45t-36.5 30q-42 15 -84.5 21.5t-90.5 8.5q-45 2 -95 0
t-108 -4q4 -84 5.5 -170.5t5.5 -158.5q45 17 77.5 32.5t62 32t61.5 34.5t76 41q10 5 23.5 14t28.5 21t29.5 25.5t25.5 27.5z" />
    <glyph glyph-name="s" unicode="s" horiz-adv-x="792" 
d="M807 174q-8 -20 -36 -51t-78.5 -60.5t-123.5 -51.5t-171 -23q-38 -1 -71.5 4.5t-68.5 15.5t-74.5 25t-99.5 38l66 143q34 -16 61.5 -28.5t56.5 -23.5t59 -17.5t60 -6.5q77 -1 125.5 8.5t76.5 22t38.5 24t12.5 16.5q3 8 -4.5 15.5t-27.5 18t-53 25.5t-82 37
q-57 25 -112.5 38t-114.5 21q-60 8 -122.5 15.5t-141.5 21.5q18 78 67.5 145.5t119 118t152.5 81.5t168 37q35 2 70.5 0.5t61.5 -5.5l23 -225l-144 -28l-13 118q-41 0 -82.5 -12t-79 -30.5t-69.5 -41.5t-53 -46q29 -5 69 -11t87 -14q61 -12 128 -31.5t129 -51.5
q46 -24 86 -52.5t67 -59t38 -61t0 -58.5z" />
    <glyph glyph-name="t" unicode="t" horiz-adv-x="760" 
d="M781 650q-53 0 -107 -3.5t-102.5 -9t-86.5 -10.5t-57 -8l11 -664l-149 2l1 648q-19 -3 -49.5 -8t-68 -10.5t-79 -11.5t-81.5 -11q-8 35 -6.5 71.5t-2.5 72.5q120 15 222.5 28t194 23t177 16.5t171.5 8.5q3 -34 4 -67t8 -67z" />
    <glyph glyph-name="u" unicode="u" horiz-adv-x="745" 
d="M690 290q0 -27 -1.5 -60t-9 -64.5t-22 -56.5t-38.5 -35t-47 -21t-53 -23t-70.5 -24.5t-99.5 -25.5q-20 -4 -47.5 -7.5t-57.5 -6t-59.5 -3t-51.5 1.5q-18 1 -34.5 10t-29 23t-20.5 32.5t-9 39.5q-4 102 0 197t12 178.5t17.5 154t15.5 123.5q42 -8 76.5 -17.5t72.5 -17.5
q-7 -29 -14.5 -69.5t-14.5 -87t-13 -95.5t-10.5 -94.5t-6 -84t-0.5 -64.5q1 -14 1 -31t5 -30q3 -8 10.5 -14.5t28.5 -5.5q55 2 107 17t103 32q43 14 67 25.5t35.5 25t14 30t3.5 40.5q2 56 1.5 122t-2.5 134t-5 133.5t-7 120.5q33 8 64 12t82 4q3 -59 4 -129t1.5 -140.5
t0.5 -135t1 -113.5z" />
    <glyph glyph-name="v" unicode="v" horiz-adv-x="691" 
d="M710 778q-26 -47 -45 -84.5t-36.5 -74t-35.5 -75.5t-41 -87q-24 -50 -55 -117.5t-63.5 -142.5t-63 -152.5t-52.5 -148.5q-26 40 -45 74.5t-34 65.5t-27 59t-23 56q-33 90 -65 179t-63 180q-5 13 -10 28t-12.5 35t-18 46t-25.5 62q13 14 28 23.5t31 17.5t33 15.5t33 16.5
q16 -41 28 -70t20 -51t13.5 -38t10.5 -30q28 -81 53 -162.5t57 -159.5q15 38 28 69t27 62.5t32 68t43 85.5q17 33 36 73.5t39 83.5t41.5 85t43.5 80z" />
    <glyph glyph-name="w" unicode="w" horiz-adv-x="925" 
d="M952 775q-21 -115 -52.5 -229t-70.5 -223.5t-82.5 -211t-88.5 -191.5q-26 58 -56 130.5t-59.5 147.5t-55 145.5t-43.5 126.5q-66 -131 -129 -278t-120 -302q-28 67 -51 124.5t-41 112.5t-32.5 110.5t-24.5 118.5q-16 92 -23 186.5t-12 172.5q17 10 32 16.5t31 11.5t34 8
t42 6q1 -119 13.5 -239t34.5 -237q24 50 58.5 117t73.5 138t79.5 140.5t77.5 124.5q22 -70 44.5 -141.5t45 -139.5t43.5 -130t41 -113q29 76 49.5 138t38.5 125.5t36 135.5t42 167z" />
    <glyph glyph-name="x" unicode="x" horiz-adv-x="724" 
d="M752 747q-84 -109 -166 -202t-154 -178q23 -28 50.5 -57t58.5 -61q34 -35 69 -72.5t73 -83.5q-26 -32 -36 -43.5t-15 -17.5l-13.5 -13.5t-31.5 -30.5q-74 84 -139 149t-115 122q-42 -42 -73 -80t-58 -76q-31 -41 -62 -85.5t-79 -104.5l-94 103q66 84 133 175.5t141 174.5
q-26 35 -48 62.5t-48 56.5q-14 16 -30 33t-35 37.5t-42 46t-52 57.5l103 97q49 -55 85 -94t64.5 -70.5t53 -59.5t50.5 -60q80 85 158 181.5t148 187.5z" />
    <glyph glyph-name="y" unicode="y" horiz-adv-x="722" 
d="M765 754q-61 -121 -128.5 -225t-139.5 -205t-144 -199.5t-140 -199.5l-32 -48l-117 88q38 51 69.5 90t60.5 77q53 69 92 131q-36 39 -72.5 78.5t-74.5 82.5t-78 91.5t-83 106.5l114 94q39 -50 74.5 -92t69 -82l67 -80t69.5 -84q70 99 146.5 215.5t143.5 250.5z" />
    <glyph glyph-name="z" unicode="z" horiz-adv-x="745" 
d="M745 796q-69 -96 -129 -179t-117.5 -161t-115.5 -154.5t-123 -160.5q56 12 105 21t99.5 17t106 14.5t124.5 13.5q5 -29 13.5 -66t15.5 -82q-26 -2 -75 -8t-111 -14t-132 -18.5t-139 -21.5q-104 -17 -175 -26.5t-118 -17.5q63 105 126 197t124.5 176.5t120.5 163
t115 155.5q-42 -3 -88.5 -8t-94 -10.5t-94.5 -11.5t-92 -11l-38 156q77 3 165 9.5t179 13t180 10.5t168 3z" />
    <glyph glyph-name="braceleft" unicode="{" horiz-adv-x="388" 
d="M406 721q-48 0 -78 -19.5t-44.5 -49t-16.5 -64t5 -64.5q11 -46 4.5 -80.5t-21.5 -60.5q-16 -28 -40 -49q35 -31 47 -72t15 -79q2 -21 1.5 -41t0.5 -37q1 -14 1.5 -24.5t5.5 -16.5q14 -18 40 -25t52 -12l-95 -112q-45 0 -71.5 16t-41.5 41t-21 55t-8 59t-3 57.5t-6 52.5
q-7 38 -24 49l-3 -1q-5 -2 -11.5 -4.5t-13.5 -4.5q-23 -8 -41.5 -3.5t-20.5 14.5l-25 105q17 5 36.5 15t37.5 21t32.5 23t22.5 22q8 9 11 25.5t1 39.5q-2 24 -4.5 47t-1.5 42q1 37 6.5 77t23.5 75t52.5 60.5t93.5 33.5z" />
    <glyph glyph-name="bar" unicode="|" horiz-adv-x="320" 
d="M256 763q-6 -32 -9.5 -64.5t-5.5 -57.5q-6 -78 -9.5 -143t-5 -127t-1.5 -127.5t2 -144.5q1 -23 2 -56.5t1 -56.5l-134 -5q0 28 -1.5 58.5t-2.5 53.5q-2 79 -1 143.5t4 126.5t6.5 127t7.5 146q2 30 4.5 68t4.5 67z" />
    <glyph glyph-name="braceright" unicode="}" horiz-adv-x="388" 
d="M374 375q-17 -5 -36.5 -15t-37.5 -21t-32.5 -23t-22.5 -21q-15 -18 -12 -66q2 -23 4.5 -46.5t1.5 -42.5q-2 -37 -7 -77t-23 -75t-52.5 -60.5t-93.5 -33.5l-102 111q48 0 78 19.5t44.5 49t16.5 64t-5 64.5q-11 46 -4.5 81t21.5 61q16 27 40 49q-17 15 -28.5 33t-18.5 37.5
t-10.5 40t-4.5 39.5q-2 21 -1.5 41.5t-0.5 37.5q-1 13 -1.5 23.5t-5.5 16.5q-14 18 -40 25t-52 12l95 112q45 0 71.5 -16t41.5 -41t21 -55.5t8 -58.5q2 -29 3 -57.5t6 -52.5q7 -38 24 -49l3 1q5 2 11.5 5t13.5 5q23 8 41.5 3t20.5 -15z" />
    <glyph glyph-name="asciitilde" unicode="~" horiz-adv-x="668" 
d="M654 707q-22 -28 -34 -43.5t-23 -28.5q-11 -14 -23 -27t-26 -25q-28 -24 -62 -40.5t-76 -16.5q-38 0 -61 12.5t-39 32.5q-8 9 -14 18.5t-12 19.5q-5 7 -10 13.5t-10 12.5q-14 -3 -34.5 -14.5t-40.5 -28.5t-35.5 -37t-20.5 -39l-104 109q12 25 42 51.5t66 48.5t72.5 36.5
t62.5 14.5q42 0 68 -20.5t42 -42.5q8 -11 13.5 -20.5t10.5 -17.5q2 -3 2 -6t2 -3q21 0 51 28t62 65z" />
    <glyph glyph-name="uni00A0" unicode="&#xa0;" horiz-adv-x="506" 
 />
    <glyph glyph-name="exclamdown" unicode="&#xa1;" horiz-adv-x="430" 
d="M381 713q-3 -21 -16 -38.5t-30.5 -30t-38.5 -18.5t-40 -3q-20 2 -39 9t-32.5 19t-19.5 29t0 41q2 9 8.5 21.5t17.5 25.5t27 25t38 20q31 11 56.5 8.5t42.5 -16.5t24 -38t2 -54zM301 514l-111 -571l-191 21l194 562z" />
    <glyph glyph-name="cent" unicode="&#xa2;" horiz-adv-x="639" 
d="M629 585l-119 -98q-46 29 -88.5 34.5t-78.5 -2t-63 -23t-42 -29.5q-21 -18 -34.5 -42.5t-18.5 -49.5t-1.5 -46.5t16.5 -33.5q24 -23 55.5 -36t66 -13.5t69.5 13.5t66 44q51 -46 97 -97q-42 -42 -82.5 -63t-81.5 -29l-16 -109l-147 -27l21 133q-54 9 -102 34t-84 81
q-24 37 -30 79.5t2.5 86t30.5 85.5t54.5 77.5t73.5 63t88 40.5l21 150l147 -16l-29 -119q43 -3 92.5 -22t116.5 -66z" />
    <glyph glyph-name="sterling" unicode="&#xa3;" horiz-adv-x="680" 
d="M633 30q-89 -8 -168.5 -18t-156.5 -20.5t-156.5 -22t-168.5 -21.5q30 48 56 89.5t49.5 79t46 71.5t44.5 66l-117 -8l-7 160l109 7q-26 19 -51.5 34.5t-53.5 25.5q17 71 53.5 127.5t89.5 95.5t122.5 60t152.5 21q35 0 70 -5.5t61 -10.5l24 -214l-144 -28l-13 128
q-84 2 -140 -29t-90 -74q15 -14 30 -27.5t29 -27.5q16 -15 31 -31t32 -33l183 12l4 -155l-190 -14q-23 -32 -47.5 -66.5t-50.5 -72.5q36 4 63.5 8t50.5 7t45 6t49 6t61.5 6.5t82.5 8.5q0 -26 1.5 -40.5t3.5 -27.5q2 -14 4.5 -30.5t5.5 -42.5z" />
    <glyph glyph-name="currency" unicode="&#xa4;" horiz-adv-x="1040" 
 />
    <glyph glyph-name="yen" unicode="&#xa5;" horiz-adv-x="606" 
d="M623 750q-14 -53 -27.5 -96t-27 -81.5t-28.5 -75t-32 -76.5l47 3l5 -152l-120 -8q-8 -18 -15.5 -34.5t-15.5 -33.5l131 7l6 -151l-209 -15q-22 -49 -46 -113l-119 77q2 7 5 13l6 12l-80 -5l-9 157l165 9q8 16 14 32t13 34l-168 -12l-9 157l91 5q-9 11 -18 22.5t-18 23.5
q-35 46 -70 98t-73 122l116 87q61 -104 115 -181.5t108 -145.5q20 48 38.5 89.5t35.5 87t34.5 99.5t35.5 126z" />
    <glyph glyph-name="section" unicode="&#xa7;" horiz-adv-x="771" 
d="M715 156q0 -32 -17.5 -57t-46 -44t-64.5 -32t-72.5 -21.5t-70 -12.5t-57.5 -4q-51 0 -97.5 7.5t-90.5 21.5t-87 33t-87 43q26 19 47.5 39.5t43.5 45.5q67 -35 145 -56.5t154 -21.5q7 0 22 1t33 3.5t37.5 6.5t35.5 10t26 13t10 17q0 11 -12.5 19t-20.5 12q-42 20 -79.5 27
t-82.5 14q-45 6 -83.5 12.5t-74.5 16.5t-72 24.5t-77 36.5q28 46 61 87.5t78 72.5q-52 0 -104 2.5t-104 7.5q41 67 94.5 126t118 102.5t138.5 68.5t155 25h25q26 -33 46 -71t41 -74l-127 -44q-10 20 -20 38t-24 35q-30 -2 -59 -12.5t-56 -26t-52 -34.5t-46 -38h51
q38 1 76 -1t76 -8q31 -5 76.5 -17t88 -32t72.5 -49.5t30 -68.5q0 -22 -9.5 -40.5t-24.5 -34.5t-33 -28t-36 -20q18 -9 36.5 -20t34 -26t25.5 -33.5t10 -40.5zM576 390q0 9 -12 18t-28.5 16.5t-33 13t-24.5 7.5q-60 -5 -107 -26.5t-94 -57.5q38 -8 77 -13t78 -5q9 0 33 2.5
t48.5 8t43.5 14.5t19 22z" />
    <glyph glyph-name="dieresis" unicode="&#xa8;" horiz-adv-x="616" 
d="M562 689q-2 -9 -7 -19t-11.5 -19t-12.5 -16t-8 -10q-14 -17 -35.5 -22.5t-43.5 -4.5q-26 1 -45 12.5t-29 31t-10 45.5t13 56q2 5 13.5 17.5t22.5 19.5q10 7 22.5 14t26 10.5t28 3t29.5 -7.5q34 -17 43 -48t4 -63zM257 755q12 -32 7 -65.5t-42 -75.5q-8 -9 -19 -14
t-22 -7.5t-21 -4t-15 -2.5q-20 -5 -35 3t-25.5 22.5t-16 33.5t-5.5 38q1 14 7 29t13.5 27.5t15 22t10.5 12.5t22.5 12.5t43.5 13.5t47 -4t35 -41z" />
    <glyph glyph-name="copyright" unicode="&#xa9;" horiz-adv-x="932" 
d="M904 481q-2 -42 -11.5 -87t-27 -89t-42 -86t-54.5 -78q-35 -42 -71.5 -71.5t-75 -49.5t-79.5 -33t-86 -21q-55 -9 -107.5 -11.5t-101 11.5t-93 48t-83.5 98q-32 52 -42 105.5t-4 107.5t25 108t47 106q32 60 77 102.5t103 81.5q62 41 128 58.5t128.5 17.5t117.5 -13
t96 -33q30 -15 59 -42t51 -62t34.5 -78t11.5 -90zM772 480q-1 28 -11 51.5t-25.5 42.5t-35.5 33t-40 23q-75 34 -157 25.5t-160 -56.5q-34 -20 -70.5 -55.5t-59.5 -79.5q-20 -38 -30 -75t-12 -71t2.5 -62.5t12.5 -48.5q15 -38 47.5 -60t74 -31.5t88 -6.5t88.5 17
q48 15 83.5 32t64 40.5t53 55t50.5 75.5q17 29 27.5 65.5t9.5 85.5zM610 418q-26 -21 -59.5 -28.5t-67.5 -7.5q-4 31 -4.5 54t-1.5 43q-11 -3 -25 -10.5t-27 -20.5q-20 -20 -33 -54t-13 -72q0 -9 5.5 -18t15.5 -15t25 -8t35 3q14 3 39 13.5t73 42.5l37 -132
q-47 -27 -79.5 -39t-55.5 -17q-46 -11 -89 -2t-74.5 36t-47.5 69.5t-10 98.5q7 57 29 107t60 86q52 50 117 63.5t135 -16.5q5 -34 8.5 -75.5t7.5 -100.5z" />
    <glyph glyph-name="ordfeminine" unicode="&#xaa;" horiz-adv-x="519" 
d="M477 708q-8 -49 -15.5 -90.5t-13.5 -83.5t-10 -85.5t-3 -95.5l-35 -7t-38 -8q-21 -4 -43 -9l-2 34q-30 -25 -66 -39.5t-81 -14.5q-29 0 -50 11.5t-35.5 30t-21.5 42t-7 46.5q0 31 8.5 68t24.5 74.5t39.5 72t53.5 61.5t66.5 43t78.5 16q38 0 70 -13.5t49 -47.5zM317 633
q-19 -5 -39.5 -25t-38 -46.5t-30 -55.5t-14.5 -51q23 9 44 29t37.5 45t27 52.5t13.5 51.5z" />
    <glyph glyph-name="guillemotleft" unicode="&#xab;" horiz-adv-x="817" 
d="M797 673q-17 -19 -27 -28t-19 -16q-8 -6 -15.5 -12.5t-15.5 -14.5q-74 -71 -137 -150t-117 -162q20 -19 45 -41t53 -43.5t57 -41t58 -32.5l-72 -97q-12 6 -38.5 23t-58.5 40.5t-67 51t-63 53t-46.5 47t-18.5 34.5q0 11 13.5 35.5t31.5 51.5q17 25 33.5 46t21.5 28
q26 34 51.5 68t54.5 67t60 64.5t67 59.5q7 6 14 12.5t22 22.5zM499 659q-46 -50 -89 -94t-84 -88.5t-80.5 -93t-77.5 -107.5q20 -19 45 -41t53 -44t57 -41.5t57 -32.5l-71 -96q-12 6 -38.5 23t-58.5 40.5t-67 51t-63 53t-46.5 47t-18.5 34.5q0 11 13.5 35.5t31.5 51.5
q17 25 33 46t22 28q26 34 51.5 68t54.5 67t60 64.5t67 59.5q7 6 14 12.5t22 22.5z" />
    <glyph glyph-name="logicalnot" unicode="&#xac;" horiz-adv-x="950" 
d="M892 532l-65 -462l-153 22q11 65 22 124q4 25 9 51t9.5 50t8 44t5.5 34q-19 1 -35.5 1.5t-33.5 -0.5q-40 -1 -88.5 -2.5t-100.5 -3t-105.5 -3t-102.5 -2.5q-116 -4 -238 -8l35 149q120 1 234 2q49 0 101.5 0.5t104 1.5t99.5 1.5t88 1.5h121q40 0 85 -1z" />
    <glyph glyph-name="registered" unicode="&#xae;" horiz-adv-x="932" 
d="M904 481q-3 -84 -41.5 -172t-99.5 -160q-35 -42 -70.5 -72.5t-73 -52.5t-77.5 -36t-85 -22q-55 -9 -107.5 -11.5t-101 11.5t-93 48t-83.5 98q-32 52 -42 105.5t-4 107.5t25 108t47 106q32 60 77 102.5t103 81.5q62 41 128 58.5t128.5 17.5t117.5 -13t96 -33
q30 -15 59 -42t51 -62t34.5 -78t11.5 -90zM772 480q-1 28 -11 51.5t-25.5 42.5t-35.5 33t-40 23q-71 32 -148.5 26.5t-152.5 -47.5q74 -2 123.5 -8.5t85.5 -20.5q42 -16 63.5 -43.5t26.5 -58.5t-3.5 -60.5t-27.5 -50.5q-14 -16 -30.5 -29.5t-35.5 -26.5q9 -2 24 -6t34 -8.5
t39 -9.5l40 -10q10 11 19.5 24t17.5 28q17 29 27.5 65.5t9.5 85.5zM528 451q-1 4 -7.5 9t-28.5 10q-12 2 -24.5 3t-25.5 2q1 -22 0.5 -43.5t0.5 -41.5l2 1q7 4 22 11t29 15t24 17t8 17zM580 167q-35 12 -65.5 21.5t-71.5 19.5v-17t1 -22q0 -12 1 -26l-123 -3q-2 78 -4 146
q-1 29 -1.5 58.5t-1 55.5t-0.5 46.5v31.5q-2 -1 -8 -1.5t-29 -3.5l9 87q-20 -17 -38 -37t-32 -46q-20 -38 -35 -73t-20.5 -68.5t-0.5 -65.5t25 -63q28 -45 59 -70.5t65.5 -35.5t72.5 -6.5t80 17.5q30 10 59.5 24.5t57.5 30.5z" />
    <glyph glyph-name="macron" unicode="&#xaf;" horiz-adv-x="1000" 
 />
    <glyph glyph-name="degree" unicode="&#xb0;" horiz-adv-x="455" 
d="M432 600q-8 -48 -23.5 -83t-51.5 -70q-44 -44 -93 -63.5t-118 -7.5q-30 5 -51.5 19.5t-36 35t-22 45t-9.5 49.5q-1 15 2 34t8.5 39.5t12.5 39.5t14 34q16 33 41.5 58t52.5 42t51.5 26.5t38.5 11.5q17 2 37 1t40.5 -6t39.5 -16t34 -29q24 -28 32 -73t1 -87zM308 607
q1 6 0.5 14.5t-2 17t-4 16t-5.5 11.5q-7 9 -24 10t-34 -5q-27 -10 -40.5 -23.5t-27.5 -40.5q-6 -11 -11.5 -29t-4.5 -29q3 -41 36 -45q25 -2 46 6.5t40 31.5q15 18 20.5 30t10.5 35z" />
    <glyph glyph-name="plusminus" unicode="&#xb1;" horiz-adv-x="537" 
d="M465 382l-124 -10l-10 -181l-115 27v143l-122 -10l-7 161l128 8l-1 181l143 -25l-8 -147l112 8zM520 -10l-471 -18l-6 160l473 13z" />
    <glyph glyph-name="acute" unicode="&#xb4;" horiz-adv-x="420" 
d="M397 703l-317 -133l-53 110l313 159z" />
    <glyph glyph-name="mu" unicode="&#xb5;" horiz-adv-x="745" 
d="M714 433q0 -19 -2 -43.5t-9.5 -47.5t-21.5 -41.5t-38 -25.5q-24 -8 -47 -16t-53 -16q-30 -9 -70.5 -18t-98.5 -18q-31 -5 -79 -9t-91 -4v-54.5t1 -58.5q1 -23 2 -57t1 -57l-134 -4q0 27 -1.5 57.5t-2.5 53.5q-1 99 0 179q-2 5 -3 9.5t-1 9.5q-5 97 2.5 182.5t18.5 157.5
v5q2 30 5 68.5t5 67.5l138 -9l-3 -15q7 -1 13.5 -2t13.5 -2q-6 -18 -13 -43.5t-14 -54.5t-12.5 -60.5t-8.5 -62.5q-5 -48 -5.5 -92.5t-1.5 -89.5q1 -1 1 -2t1 -2q3 -7 11 -11.5t29 -3.5q54 2 106 13t103 23q43 10 67 18.5t35 18t13.5 21.5t3.5 30q2 41 1.5 89.5t-2.5 98
t-5 97.5t-7 88q33 6 64 9t82 3q3 -43 4 -94.5t1.5 -102.5t0.5 -98.5t1 -83.5z" />
    <glyph glyph-name="paragraph" unicode="&#xb6;" horiz-adv-x="790" 
d="M738 593q-11 3 -22 7q-9 3 -19.5 5t-18.5 4q-2 -41 -3 -90t-2.5 -102t-2.5 -106.5t-2 -103.5q-3 -117 -4 -239l-133 15q0 32 1 65q1 28 1 59.5t2 58.5q-17 5 -35 9.5t-35 9.5v-49.5t-1 -52.5q-1 -23 -2.5 -53.5t-1.5 -57.5l-134 4q0 11 0.5 26t1 30.5t1 30.5t0.5 27
q1 35 1 68v63q-29 9 -68.5 26.5t-78.5 40t-73.5 48.5t-53.5 52q-50 67 -57.5 123.5t18.5 117.5q18 45 57 71.5t91.5 41.5t114.5 20.5t126 8.5q45 2 86 0.5t80 -5.5t78 -9t81 -10zM543 444q2 41 -1 90t0 96q-21 2 -45.5 3.5t-50.5 1.5q0 -2 0.5 -4.5t0.5 -4.5q4 -89 8 -159.5
t7 -138.5q17 -3 36 -6.5t41 -7.5q0 15 0.5 32.5l1 35t1 34t1.5 28.5zM329 364q-2 62 -5.5 125t-8.5 141q-22 -2 -41.5 -4.5t-36.5 -5.5q-69 -12 -96 -49q-11 -14 -7 -37.5t22 -50t51.5 -54t82.5 -49.5q10 -5 19.5 -8.5t19.5 -7.5z" />
    <glyph glyph-name="periodcentered" unicode="&#xb7;" horiz-adv-x="291" 
d="M257 384q-5 -17 -11 -30.5t-20 -23.5q-12 -8 -26 -15t-29 -11t-29.5 -5t-25.5 2q-31 7 -45 25t-16 39.5t4.5 44.5t17.5 40q17 26 46 41q20 9 48 10t51 -10t35 -37t0 -70z" />
    <glyph glyph-name="cedilla" unicode="&#xb8;" horiz-adv-x="590" 
d="M478 -20q0 -31 -14 -50.5t-34.5 -30.5t-43.5 -15t-41 -5q-15 -1 -32.5 1t-34.5 4q-15 2 -30.5 3.5t-39.5 1.5l28 132q29 -4 45.5 -6.5t30.5 -4.5q8 -1 14.5 -1h14.5q-4 8 -9 16t-11 18q-5 8 -11 16t-11 16t-11 18.5t-16 31.5l117 56q12 -24 19 -36t13 -21
q7 -11 13.5 -20.5t12.5 -19.5q13 -21 22 -46t9 -58z" />
    <glyph glyph-name="ordmasculine" unicode="&#xba;" horiz-adv-x="455" 
d="M452 600q-8 -48 -23.5 -83t-51.5 -70q-44 -44 -93 -63.5t-118 -7.5q-30 5 -51.5 19.5t-36 35t-22 45t-9.5 49.5q-1 15 2 34t8.5 39.5t12.5 39.5t14 34q16 33 41.5 58t52.5 42t51.5 26.5t38.5 11.5q17 2 37 1t40.5 -6t39.5 -16t34 -29q24 -28 32 -73t1 -87zM328 607
q1 6 0.5 14.5t-2 17t-4 16t-5.5 11.5q-7 9 -24 10t-34 -5q-27 -10 -40.5 -23.5t-27.5 -40.5q-6 -11 -11.5 -29t-4.5 -29q3 -41 36 -45q25 -2 46 6.5t40 31.5q15 18 20.5 30t10.5 35z" />
    <glyph glyph-name="guillemotright" unicode="&#xbb;" horiz-adv-x="793" 
d="M766 471q0 -11 -13.5 -36t-32.5 -51q-17 -25 -33 -46t-21 -29q-26 -33 -52 -67t-55 -67q-28 -33 -59.5 -64.5t-66.5 -60.5q-8 -5 -15 -11.5t-22 -22.5l-112 66q46 50 89 94t84 88.5t80.5 93t77.5 107.5q-20 19 -45.5 41t-53 43.5t-57 40.5t-57.5 33l71 96q12 -6 38.5 -23
t59 -40.5t67 -50.5t63 -53t47 -47.5t18.5 -33.5zM471 466q0 -11 -13.5 -35.5t-32.5 -51.5q-17 -25 -33 -46t-21 -29q-26 -33 -52 -67t-54 -67q-29 -33 -60.5 -64.5t-66.5 -59.5q-8 -6 -15 -12.5t-21 -22.5l-113 66q17 18 27 27t18 17q18 13 32 27q74 71 137 150t117 162
q-20 19 -45.5 41t-53 43.5t-57 41t-57.5 32.5l72 97q12 -6 38 -23t58.5 -40.5t67 -51t63 -53t47 -47t18.5 -34.5z" />
    <glyph glyph-name="questiondown" unicode="&#xbf;" horiz-adv-x="686" 
d="M420 628q-15 -11 -34 -18.5t-38.5 -8t-37.5 7t-31 27.5q-15 23 -18.5 49.5t7.5 49t36.5 39t69.5 20.5q38 3 60 -5t32 -23.5t9.5 -35t-8 -39t-20.5 -36.5t-27 -27zM670 164q-13 -23 -40 -46t-55.5 -42t-52 -32t-28.5 -16q-45 -23 -106 -38t-124.5 -18.5t-122.5 5
t-101 34.5q-50 30 -55 68.5t20.5 80.5t75 85.5t109.5 83.5q20 14 36 25t30 22q-18 -3 -39 -5.5t-53 -5.5l-58 117q50 8 101 18t100.5 24.5t96.5 33.5t89 46q19 -17 33.5 -37t24.5 -41.5t17 -42t12 -38.5q-27 -16 -55.5 -35.5t-57 -40t-56.5 -41t-53 -38.5
q-75 -53 -127.5 -96.5t-86.5 -79.5q22 -7 57 -6.5t74.5 7t79.5 18.5t74 29q2 1 18 9.5t36.5 22t39 31t24.5 35.5z" />
    <glyph glyph-name="Agrave" unicode="&#xc0;" horiz-adv-x="665" 
d="M468 904l-54 -109l-306 113l57 135zM656 -26q-20 -15 -29.5 -20.5t-21.5 -7.5q-8 -2 -25 -5.5t-59 -14.5q-20 74 -39.5 134t-34.5 106q-39 3 -70.5 3.5t-60.5 -1t-59.5 -6.5t-67.5 -14q-4 -11 -10 -25t-12.5 -35t-14.5 -49.5t-15 -67.5l-140 33q8 31 30 92.5t53 139
t68.5 162t76.5 161t77 137t70 89.5q17 -32 37 -77.5t40 -98.5t40 -109.5t38 -110.5t33.5 -102.5t26.5 -84.5q6 -22 14 -50.5t17 -59t18.5 -61t19.5 -57.5zM410 302q-17 53 -35 105t-37 102q-15 -29 -26.5 -54t-22.5 -50.5t-22.5 -53t-24.5 -61.5q49 5 89.5 7.5t78.5 4.5z
" />
    <glyph glyph-name="Aacute" unicode="&#xc1;" horiz-adv-x="665" 
d="M607 913l-316 -133l-54 109l313 159zM656 -26q-20 -15 -29.5 -20.5t-21.5 -7.5q-8 -2 -25 -5.5t-59 -14.5q-20 74 -39.5 134t-34.5 106q-39 3 -70.5 3.5t-60.5 -1t-59.5 -6.5t-67.5 -14q-4 -11 -10 -25t-12.5 -35t-14.5 -49.5t-15 -67.5l-140 33q8 31 30 92.5t53 139
t68.5 162t76.5 161t77 137t70 89.5q17 -32 37 -77.5t40 -98.5t40 -109.5t38 -110.5t33.5 -102.5t26.5 -84.5q6 -22 14 -50.5t17 -59t18.5 -61t19.5 -57.5zM410 302q-17 53 -35 105t-37 102q-15 -29 -26.5 -54t-22.5 -50.5t-22.5 -53t-24.5 -61.5q49 5 89.5 7.5t78.5 4.5z
" />
    <glyph glyph-name="Acircumflex" unicode="&#xc2;" horiz-adv-x="665" 
d="M589 864l-63 -116q-39 22 -80.5 52t-65.5 61q-30 -14 -58.5 -32t-54 -37.5t-47.5 -39t-40 -37.5l-88 97q40 39 75 68.5t70 53t74 43.5t87 41q13 -12 37.5 -33.5t52 -44.5t54.5 -44t47 -32zM656 -26q-20 -15 -29.5 -20.5t-21.5 -7.5q-8 -2 -25 -5.5t-59 -14.5
q-20 74 -39.5 134t-34.5 106q-39 3 -70.5 3.5t-60.5 -1t-59.5 -6.5t-67.5 -14q-4 -11 -10 -25t-12.5 -35t-14.5 -49.5t-15 -67.5l-140 33q8 31 30 92.5t53 139t68.5 162t76.5 161t77 137t70 89.5q17 -32 37 -77.5t40 -98.5t40 -109.5t38 -110.5t33.5 -102.5t26.5 -84.5
q6 -22 14 -50.5t17 -59t18.5 -61t19.5 -57.5zM410 302q-17 53 -35 105t-37 102q-15 -29 -26.5 -54t-22.5 -50.5t-22.5 -53t-24.5 -61.5q49 5 89.5 7.5t78.5 4.5z" />
    <glyph glyph-name="Atilde" unicode="&#xc3;" horiz-adv-x="665" 
d="M606 941q-17 -24 -27 -37t-19 -24t-19 -22.5t-21 -21.5q-23 -20 -50 -34t-62 -14q-31 0 -49.5 10.5t-31.5 27.5q-5 8 -10.5 15.5t-10.5 15.5q-4 6 -7.5 12t-8.5 11q-12 -3 -28.5 -12.5t-32.5 -24t-28.5 -31t-16.5 -32.5l-85 91q10 21 34 43.5t53.5 41.5t59 31t50.5 12
q35 0 56 -17.5t34 -36.5q5 -8 10 -16.5t9 -15.5q2 -2 1.5 -4.5t1.5 -2.5q17 0 41.5 23.5t50.5 54.5zM656 -26q-20 -15 -29.5 -20.5t-21.5 -7.5q-8 -2 -25 -5.5t-59 -14.5q-20 74 -39.5 134t-34.5 106q-39 3 -70.5 3.5t-60.5 -1t-59.5 -6.5t-67.5 -14q-4 -11 -10 -25
t-12.5 -35t-14.5 -49.5t-15 -67.5l-140 33q8 31 30 92.5t53 139t68.5 162t76.5 161t77 137t70 89.5q17 -32 37 -77.5t40 -98.5t40 -109.5t38 -110.5t33.5 -102.5t26.5 -84.5q6 -22 14 -50.5t17 -59t18.5 -61t19.5 -57.5zM410 302q-17 53 -35 105t-37 102q-15 -29 -26.5 -54
t-22.5 -50.5t-22.5 -53t-24.5 -61.5q49 5 89.5 7.5t78.5 4.5z" />
    <glyph glyph-name="Adieresis" unicode="&#xc4;" horiz-adv-x="665" 
d="M612 868q-2 -10 -7.5 -20t-11.5 -19t-12 -15.5t-8 -9.5q-14 -18 -35.5 -23t-43.5 -5q-26 1 -45 12.5t-29 31.5t-10 46t13 55q2 5 13.5 17.5t22.5 20.5q10 7 22.5 13.5t26 10t28 3t29.5 -7.5q34 -17 43 -48t4 -62zM307 934q12 -32 7 -66t-42 -76q-8 -8 -19 -13t-22 -8
t-21 -4.5t-15 -2.5q-20 -5 -35.5 3t-26 22.5t-16 33.5t-4.5 38q0 14 6 29t13.5 27.5t15 22t11.5 12.5q3 3 22.5 12.5t43.5 13.5t47 -4t35 -40zM656 -26q-20 -15 -29.5 -20.5t-21.5 -7.5q-8 -2 -25 -5.5t-59 -14.5q-20 74 -39.5 134t-34.5 106q-39 3 -70.5 3.5t-60.5 -1
t-59.5 -6.5t-67.5 -14q-4 -11 -10 -25t-12.5 -35t-14.5 -49.5t-15 -67.5l-140 33q8 31 30 92.5t53 139t68.5 162t76.5 161t77 137t70 89.5q17 -32 37 -77.5t40 -98.5t40 -109.5t38 -110.5t33.5 -102.5t26.5 -84.5q6 -22 14 -50.5t17 -59t18.5 -61t19.5 -57.5zM410 302
q-17 53 -35 105t-37 102q-15 -29 -26.5 -54t-22.5 -50.5t-22.5 -53t-24.5 -61.5q49 5 89.5 7.5t78.5 4.5z" />
    <glyph glyph-name="Aring" unicode="&#xc5;" horiz-adv-x="665" 
d="M656 -26q-20 -15 -29.5 -20.5t-21.5 -7.5q-8 -2 -25 -5.5t-59 -14.5q-20 74 -39.5 134t-34.5 106q-39 3 -70.5 3.5t-60.5 -1t-59.5 -6.5t-67.5 -14q-4 -11 -10 -25t-12.5 -35t-14.5 -49.5t-15 -67.5l-140 33q6 24 21.5 69t37.5 102t49.5 122.5t57.5 131.5t61.5 128
t61.5 113q-5 1 -10 1t-11 1q-56 5 -85 31.5t-34 61.5q-2 11 1 24t9 26t14 24.5t15 20.5q16 20 42 34.5t53 24.5t50.5 15.5t36.5 6.5q16 1 35.5 0.5t39 -3.5t38 -9t33.5 -16q26 -18 35 -48t1 -58q-9 -30 -25 -52t-53 -42q-27 -16 -53 -26q24 -56 48 -122.5t46.5 -132.5
t42 -126.5t32.5 -103.5q6 -22 14 -50.5t17 -59t18.5 -61t19.5 -57.5zM414 818q0 13 -10.5 15t-21.5 2q-26 0 -47.5 -7t-37.5 -24q-11 -11 -11 -15q0 -6 4.5 -9t10.5 -3.5t12.5 0t11.5 0.5q19 0 45 6l2 2l1 -1q16 5 28.5 12.5t12.5 21.5zM410 302q-17 53 -35 105t-37 102
q-15 -29 -26.5 -54t-22.5 -50.5t-22.5 -53t-24.5 -61.5q49 5 89.5 7.5t78.5 4.5z" />
    <glyph glyph-name="AE" unicode="&#xc6;" horiz-adv-x="1071" 
d="M1055 72q-145 -29 -282.5 -66t-278.5 -75q7 83 9 149.5t4 117.5q-38 3 -69 4t-61 -1t-62.5 -7.5t-72.5 -15.5q-16 -23 -44 -66.5t-71 -129.5l-128 36q35 64 80.5 140.5t98 158t110.5 163.5t119 157t123 139t123 110q3 -21 5.5 -47t4.5 -55q50 4 93 6.5t86 4.5t88 3t99 3
l17 -131q-69 -2 -118.5 -5.5t-91 -7.5t-81 -8t-87.5 -7v-84t-1 -84q54 10 92 15t71 8.5t66 6t77 7.5l20 -134q-45 -5 -79.5 -8.5t-70 -8t-78 -11.5t-102.5 -18q-2 -49 -4 -97t-2 -98q32 7 72.5 14.5t86.5 15t94.5 17t97.5 21.5zM520 580q-25 -32 -45.5 -60t-40.5 -56.5
t-41.5 -59.5t-46.5 -68q50 5 91.5 8t80.5 5q1 58 2 116.5t0 114.5z" />
    <glyph glyph-name="Ccedilla" unicode="&#xc7;" horiz-adv-x="630" 
d="M625 537q-11 -8 -29.5 -14t-38.5 -10.5t-39.5 -7t-31.5 -2.5q-3 24 -6 49.5t-5.5 49.5t-5.5 45.5t-6 36.5q-22 0 -47.5 -6t-50.5 -16t-49 -24.5t-43 -31.5q-25 -23 -45 -52.5t-34 -64t-21.5 -72t-7.5 -76.5q0 -35 19.5 -62.5t52.5 -44t76 -21.5t89 6q30 7 76.5 23
t96.5 45l38 -126q-45 -24 -90 -39.5t-84 -25.5q6 -8 8 -12q13 -21 22 -46t9 -58q0 -31 -14 -50.5t-34.5 -30.5t-43.5 -15t-41 -5q-15 -1 -32.5 1t-34.5 4q-15 2 -30.5 3.5t-39.5 1.5l28 132q29 -4 45.5 -6.5t30.5 -4.5q8 -1 14.5 -1h14.5q-4 8 -9 16t-11 18q-5 8 -11 16
t-11 16l-2 3q-61 3 -113.5 25.5t-89 63t-54 97.5t-8.5 128q12 96 52.5 177t107.5 138q46 39 97.5 64.5t104 36.5t105 7.5t101.5 -22.5q6 -38 12 -104.5t13 -151.5z" />
    <glyph glyph-name="Egrave" unicode="&#xc8;" horiz-adv-x="642" 
d="M456 863l-54 -109l-306 113l57 135zM614 65q-75 -14 -142.5 -27.5t-132 -26.5t-129 -25t-134.5 -22q0 99 2.5 178t4.5 148.5t2.5 135.5t-3.5 140q-6 -1 -14 -1h-16h-19q-2 24 -5 47q-2 20 -4 40.5t-4 35.5q100 9 172.5 15t134.5 9t123 5t138 4l17 -118q-71 -2 -121 -5.5
t-92.5 -7t-82.5 -7t-91 -6.5q0 -43 -1.5 -78t0.5 -74q56 9 95.5 14t73.5 8t68 5.5t78 7.5l20 -120q-46 -5 -81 -8.5t-71.5 -8t-80 -11t-106.5 -16.5v-3q0 -43 1.5 -85t0.5 -85q33 6 73.5 12.5t86.5 13.5t94.5 15t97.5 19z" />
    <glyph glyph-name="Eacute" unicode="&#xc9;" horiz-adv-x="642" 
d="M567 890l-316 -134l-53 110l313 159zM614 65q-75 -14 -142.5 -27.5t-132 -26.5t-129 -25t-134.5 -22q0 99 2.5 178t4.5 148.5t2.5 135.5t-3.5 140q-6 -1 -14 -1h-16h-19q-2 24 -5 47q-2 20 -4 40.5t-4 35.5q100 9 172.5 15t134.5 9t123 5t138 4l17 -118q-71 -2 -121 -5.5
t-92.5 -7t-82.5 -7t-91 -6.5q0 -43 -1.5 -78t0.5 -74q56 9 95.5 14t73.5 8t68 5.5t78 7.5l20 -120q-46 -5 -81 -8.5t-71.5 -8t-80 -11t-106.5 -16.5v-3q0 -43 1.5 -85t0.5 -85q33 6 73.5 12.5t86.5 13.5t94.5 15t97.5 19z" />
    <glyph glyph-name="Ecircumflex" unicode="&#xca;" horiz-adv-x="642" 
d="M569 880l-63 -116q-39 22 -80.5 52t-65.5 61q-30 -14 -58.5 -31.5t-54 -37t-47.5 -39.5t-40 -38l-88 97q40 39 75 68.5t70 53t74 43.5t87 41q13 -12 37.5 -33.5t52 -44.5t54.5 -44t47 -32zM614 65q-75 -14 -142.5 -27.5t-132 -26.5t-129 -25t-134.5 -22q0 99 2.5 178
t4.5 148.5t2.5 135.5t-3.5 140q-6 -1 -14 -1h-16h-19q-2 24 -5 47q-2 20 -4 40.5t-4 35.5q100 9 172.5 15t134.5 9t123 5t138 4l17 -118q-71 -2 -121 -5.5t-92.5 -7t-82.5 -7t-91 -6.5q0 -43 -1.5 -78t0.5 -74q56 9 95.5 14t73.5 8t68 5.5t78 7.5l20 -120q-46 -5 -81 -8.5
t-71.5 -8t-80 -11t-106.5 -16.5v-3q0 -43 1.5 -85t0.5 -85q33 6 73.5 12.5t86.5 13.5t94.5 15t97.5 19z" />
    <glyph glyph-name="Edieresis" unicode="&#xcb;" horiz-adv-x="642" 
d="M574 852q-2 -9 -7.5 -18t-11.5 -16.5t-12 -13.5t-8 -9q-14 -17 -35.5 -21.5t-43.5 -3.5q-26 1 -45 11.5t-29 28t-10 40.5t13 50q2 5 13.5 16t22.5 18q21 13 48 22t58 -4q34 -15 43 -43.5t4 -56.5zM269 912q12 -29 7 -59.5t-42 -68.5q-8 -8 -19 -12t-22 -6.5t-21 -4
t-15 -2.5q-20 -4 -35.5 2.5t-26 20t-15.5 30.5t-5 34q1 13 6.5 26.5t13 25t15 19.5t11.5 11q3 3 22.5 11.5t43.5 12t47 -3.5t35 -36zM614 65q-75 -14 -142.5 -27.5t-132 -26.5t-129 -25t-134.5 -22q0 99 2.5 178t4.5 148.5t2.5 135.5t-3.5 140q-6 -1 -14 -1h-16h-19
q-2 24 -5 47q-2 20 -4 40.5t-4 35.5q100 9 172.5 15t134.5 9t123 5t138 4l17 -118q-71 -2 -121 -5.5t-92.5 -7t-82.5 -7t-91 -6.5q0 -43 -1.5 -78t0.5 -74q56 9 95.5 14t73.5 8t68 5.5t78 7.5l20 -120q-46 -5 -81 -8.5t-71.5 -8t-80 -11t-106.5 -16.5v-3q0 -43 1.5 -85
t0.5 -85q33 6 73.5 12.5t86.5 13.5t94.5 15t97.5 19z" />
    <glyph glyph-name="Igrave" unicode="&#xcc;" horiz-adv-x="490" 
d="M299 860l-42 -106l-240 110l44 131zM465 618l-175 -23q-3 -41 -5.5 -103.5t-4 -128.5t-2 -128.5t-0.5 -103.5l129 12l21 -125l-371 -37l-14 127l100 10q-1 44 0.5 104t3.5 123.5t5 124.5t6 109l-110 -13l-20 128l425 43z" />
    <glyph glyph-name="Iacute" unicode="&#xcd;" horiz-adv-x="490" 
d="M435 880l-260 -130l-45 107l258 154zM465 618l-175 -23q-3 -41 -5.5 -103.5t-4 -128.5t-2 -128.5t-0.5 -103.5l129 12l21 -125l-371 -37l-14 127l100 10q-1 44 0.5 104t3.5 123.5t5 124.5t6 109l-110 -13l-20 128l425 43z" />
    <glyph glyph-name="Icircumflex" unicode="&#xce;" horiz-adv-x="490" 
d="M425 871l-51 -106q-16 10 -33.5 22t-33.5 25.5t-30 27.5t-24 28q-25 -12 -48.5 -28.5t-44.5 -34.5t-39 -36t-33 -34l-73 89q33 36 61.5 62.5t58 48.5t61.5 40.5t72 37.5l31 -31t42.5 -41t45 -40.5t38.5 -29.5zM465 618l-175 -23q-3 -41 -5.5 -103.5t-4 -128.5t-2 -128.5
t-0.5 -103.5l129 12l21 -125l-371 -37l-14 127l100 10q-1 44 0.5 104t3.5 123.5t5 124.5t6 109l-110 -13l-20 128l425 43z" />
    <glyph glyph-name="Idieresis" unicode="&#xcf;" horiz-adv-x="490" 
d="M485 859q-2 -10 -7.5 -20t-11.5 -19t-12 -15.5t-8 -9.5q-14 -18 -35.5 -23.5t-43.5 -4.5q-26 1 -45 12.5t-29 31t-10 45.5t13 56q2 5 13.5 17.5t22.5 20.5q10 7 22 13.5t25.5 10t28 3t30.5 -7.5q34 -17 43 -48t4 -62zM180 925q11 -32 6 -66.5t-42 -75.5q-7 -8 -18 -13
t-22.5 -8t-21 -4.5t-14.5 -2.5q-20 -5 -35.5 3t-26 22.5t-16 33.5t-4.5 38q0 14 6 29t13.5 27.5t15 22t10.5 12.5q4 3 23 12.5t43 13.5t47.5 -4t35.5 -40zM465 618l-175 -23q-3 -41 -5.5 -103.5t-4 -128.5t-2 -128.5t-0.5 -103.5l129 12l21 -125l-371 -37l-14 127l100 10
q-1 44 0.5 104t3.5 123.5t5 124.5t6 109l-110 -13l-20 128l425 43z" />
    <glyph glyph-name="Ntilde" unicode="&#xd1;" horiz-adv-x="727" 
d="M622 904q-17 -23 -27 -36.5t-19 -24.5t-19 -22t-21 -21q-22 -20 -49.5 -34t-62.5 -14q-30 0 -48.5 10.5t-31.5 27.5q-6 7 -11.5 15t-10.5 16q-4 6 -7.5 12t-8.5 11q-12 -3 -28.5 -12.5t-32.5 -24t-28.5 -31.5t-16.5 -33l-84 92q10 21 34 43.5t53.5 41.5t58.5 31t50 12
q35 0 56 -17.5t34 -36.5q6 -9 10.5 -17t9.5 -15q2 -2 1 -4.5t1 -2.5q17 0 41.5 23.5t50.5 54.5zM659 761q0 -113 2 -215t3.5 -204t1 -209t-6.5 -229q-32 32 -58 57.5t-48 47t-40.5 40l-36.5 36.5q-36 36 -70.5 73t-67.5 79q-32 39 -71 79t-70 72q-1 -42 -0.5 -82t3 -82
t5.5 -87t7 -96q-24 -9 -42 -15t-34 -11t-32.5 -9.5t-37.5 -10.5q-3 97 -5 192t-1 191t6 194t16 202q35 -44 72 -89.5t71.5 -87.5t64.5 -80t51 -67q26 -36 49.5 -65.5t46 -55t44.5 -48.5t46 -46q3 68 1.5 128t-4.5 120t-5.5 123.5t-2.5 138.5q22 6 38.5 9t32 3.5t32.5 1
t40 2.5z" />
    <glyph glyph-name="Ograve" unicode="&#xd2;" 
d="M545 860l-54 -109l-306 113l57 135zM786 351q-8 -42 -18.5 -77t-27 -67t-40 -62t-57.5 -60q-42 -38 -86 -65.5t-93 -43.5t-105 -20t-122 6q-56 9 -95.5 33t-66 58.5t-40.5 76t-18 85.5q-3 25 2.5 56.5t16 64.5t24.5 65.5t28 59.5q20 38 49.5 70.5t62.5 59.5t68.5 48
t68 35.5t59.5 23t45 10.5q33 4 71 2.5t75.5 -10.5t73 -26.5t63.5 -47.5q22 -24 37.5 -56t23 -69t8 -75.5t-6.5 -74.5zM651 368q4 18 3 42.5t-6.5 49t-14 46t-17.5 34.5q-15 19 -40 28t-53.5 10.5t-57.5 -3t-52 -11.5q-41 -13 -70.5 -28.5t-53 -36t-42.5 -47t-40 -61.5
q-9 -15 -18.5 -35.5t-17 -43t-12 -44.5t-2.5 -40q5 -58 36.5 -96.5t96.5 -45.5q157 -15 270 107q22 24 36.5 43t24 38t16.5 41.5t14 52.5z" />
    <glyph glyph-name="Oacute" unicode="&#xd3;" 
d="M719 884l-316 -134l-54 110l313 159zM786 351q-8 -42 -18.5 -77t-27 -67t-40 -62t-57.5 -60q-42 -38 -86 -65.5t-93 -43.5t-105 -20t-122 6q-56 9 -95.5 33t-66 58.5t-40.5 76t-18 85.5q-3 25 2.5 56.5t16 64.5t24.5 65.5t28 59.5q20 38 49.5 70.5t62.5 59.5t68.5 48
t68 35.5t59.5 23t45 10.5q33 4 71 2.5t75.5 -10.5t73 -26.5t63.5 -47.5q22 -24 37.5 -56t23 -69t8 -75.5t-6.5 -74.5zM651 368q4 18 3 42.5t-6.5 49t-14 46t-17.5 34.5q-15 19 -40 28t-53.5 10.5t-57.5 -3t-52 -11.5q-41 -13 -70.5 -28.5t-53 -36t-42.5 -47t-40 -61.5
q-9 -15 -18.5 -35.5t-17 -43t-12 -44.5t-2.5 -40q5 -58 36.5 -96.5t96.5 -45.5q157 -15 270 107q22 24 36.5 43t24 38t16.5 41.5t14 52.5z" />
    <glyph glyph-name="Ocircumflex" unicode="&#xd4;" 
d="M699 857l-63 -116q-39 23 -80.5 53t-65.5 60q-30 -14 -58.5 -31.5t-54 -37t-47.5 -39t-40 -37.5l-88 97q40 39 75 68t70 53t74 44t87 41q13 -12 37.5 -33.5t52 -44.5t54.5 -44t47 -33zM786 351q-8 -42 -18.5 -77t-27 -67t-40 -62t-57.5 -60q-42 -38 -86 -65.5t-93 -43.5
t-105 -20t-122 6q-56 9 -95.5 33t-66 58.5t-40.5 76t-18 85.5q-3 25 2.5 56.5t16 64.5t24.5 65.5t28 59.5q20 38 49.5 70.5t62.5 59.5t68.5 48t68 35.5t59.5 23t45 10.5q33 4 71 2.5t75.5 -10.5t73 -26.5t63.5 -47.5q22 -24 37.5 -56t23 -69t8 -75.5t-6.5 -74.5zM651 368
q4 18 3 42.5t-6.5 49t-14 46t-17.5 34.5q-15 19 -40 28t-53.5 10.5t-57.5 -3t-52 -11.5q-41 -13 -70.5 -28.5t-53 -36t-42.5 -47t-40 -61.5q-9 -15 -18.5 -35.5t-17 -43t-12 -44.5t-2.5 -40q5 -58 36.5 -96.5t96.5 -45.5q157 -15 270 107q22 24 36.5 43t24 38t16.5 41.5
t14 52.5z" />
    <glyph glyph-name="Otilde" unicode="&#xd5;" 
d="M693 904q-18 -23 -28 -36.5t-18 -24.5q-18 -23 -40 -43q-23 -20 -50.5 -34t-61.5 -14q-31 0 -49.5 10.5t-31.5 27.5q-6 7 -11 15l-10 16q-5 6 -8.5 12t-8.5 11q-11 -3 -27.5 -12.5t-32.5 -24t-29 -31.5t-17 -33l-84 92q10 21 34 43t53.5 41t59 31t50.5 12q34 0 55 -17
t34 -36q6 -9 10.5 -17.5t9.5 -14.5q2 -2 1.5 -4.5t1.5 -2.5q17 0 41.5 23t50.5 55zM786 351q-8 -42 -18.5 -77t-27 -67t-40 -62t-57.5 -60q-42 -38 -86 -65.5t-93 -43.5t-105 -20t-122 6q-56 9 -95.5 33t-66 58.5t-40.5 76t-18 85.5q-3 25 2.5 56.5t16 64.5t24.5 65.5
t28 59.5q20 38 49.5 70.5t62.5 59.5t68.5 48t68 35.5t59.5 23t45 10.5q33 4 71 2.5t75.5 -10.5t73 -26.5t63.5 -47.5q22 -24 37.5 -56t23 -69t8 -75.5t-6.5 -74.5zM651 368q4 18 3 42.5t-6.5 49t-14 46t-17.5 34.5q-15 19 -40 28t-53.5 10.5t-57.5 -3t-52 -11.5
q-41 -13 -70.5 -28.5t-53 -36t-42.5 -47t-40 -61.5q-9 -15 -18.5 -35.5t-17 -43t-12 -44.5t-2.5 -40q5 -58 36.5 -96.5t96.5 -45.5q157 -15 270 107q22 24 36.5 43t24 38t16.5 41.5t14 52.5z" />
    <glyph glyph-name="Odieresis" unicode="&#xd6;" 
d="M714 846q-2 -10 -7 -20t-11.5 -19t-12 -15.5t-8.5 -9.5q-13 -18 -34.5 -23.5t-43.5 -4.5q-26 1 -45.5 12.5t-29.5 31t-10 45.5t13 56q2 5 14 17.5t23 20.5q10 7 22 13.5t25.5 10t28 3t29.5 -7.5q35 -17 44 -48t3 -62zM410 912q11 -32 6 -66.5t-42 -75.5q-8 -8 -19 -13
t-22 -8t-21 -4.5t-15 -2.5q-20 -5 -35 3t-25.5 22.5t-16 33.5t-4.5 38q0 14 6 29t13.5 27.5t15 22t10.5 12.5q4 3 23 12.5t43 13.5t47.5 -4t35.5 -40zM786 351q-8 -42 -18.5 -77t-27 -67t-40 -62t-57.5 -60q-42 -38 -86 -65.5t-93 -43.5t-105 -20t-122 6q-56 9 -95.5 33
t-66 58.5t-40.5 76t-18 85.5q-3 25 2.5 56.5t16 64.5t24.5 65.5t28 59.5q20 38 49.5 70.5t62.5 59.5t68.5 48t68 35.5t59.5 23t45 10.5q33 4 71 2.5t75.5 -10.5t73 -26.5t63.5 -47.5q22 -24 37.5 -56t23 -69t8 -75.5t-6.5 -74.5zM651 368q4 18 3 42.5t-6.5 49t-14 46
t-17.5 34.5q-15 19 -40 28t-53.5 10.5t-57.5 -3t-52 -11.5q-41 -13 -70.5 -28.5t-53 -36t-42.5 -47t-40 -61.5q-9 -15 -18.5 -35.5t-17 -43t-12 -44.5t-2.5 -40q5 -58 36.5 -96.5t96.5 -45.5q157 -15 270 107q22 24 36.5 43t24 38t16.5 41.5t14 52.5z" />
    <glyph glyph-name="Oslash" unicode="&#xd8;" 
d="M786 390q-8 -46 -18.5 -85.5t-27 -75t-40 -68.5t-57.5 -66q-40 -39 -81.5 -69t-87.5 -48t-97.5 -24.5t-111.5 0.5q-9 -17 -17.5 -32.5t-16.5 -26.5l-137 73q7 10 13 21l12 22q-48 42 -72.5 102t-29.5 126q-3 28 2.5 63t16 72t24.5 73t28 65q31 63 80 113t100.5 85
t98.5 54.5t74 22.5q34 4 73.5 2t78.5 -13q14 20 26.5 39t23.5 34l134 -88q-14 -14 -27.5 -31t-25.5 -34v-1q22 -26 37.5 -62t23 -76.5t8 -83.5t-6.5 -83zM651 409q3 16 3 35.5t-3 40.5t-8 41.5t-11 38.5q-76 -115 -147.5 -232.5t-140.5 -237.5q123 7 216 120q22 26 36.5 47
t24 42.5t16.5 46t14 58.5zM505 644q-25 -1 -48.5 -5.5t-43.5 -11.5q-41 -15 -70.5 -32t-53 -39.5t-42.5 -52t-40 -68.5q-9 -17 -18.5 -40t-17 -48t-12 -49.5t-2.5 -43.5q5 -67 36 -107q73 128 151.5 250t160.5 247z" />
    <glyph glyph-name="Ugrave" unicode="&#xd9;" horiz-adv-x="716" 
d="M528 838l-54 -110l-306 114l57 135zM673 43q-22 -11 -64.5 -25t-82.5 -28q-2 18 -2.5 29t-0.5 17v9v6q1 4 1 10.5t-1 21.5q-28 -10 -48 -19.5t-39.5 -19t-41.5 -20t-53 -22.5q-24 -9 -50.5 -18.5t-54 -17t-54.5 -11.5t-52 -2q-20 1 -36 11t-28 24.5t-19 33t-8 36.5
q-2 39 3 105.5t16 151.5t26.5 185t34.5 208q40 -4 72.5 -8t71.5 -17q-6 -47 -17 -97.5t-23.5 -112t-24 -136.5t-16.5 -171q-2 -29 -1 -43t12 -16q6 -2 18.5 0.5t26 6.5t26.5 8t19 6q35 11 70 24.5t66.5 27t58.5 26.5t46 22q-1 48 -3 103.5t-5 112.5t-6.5 113.5t-7.5 108.5
q21 4 38.5 8.5t34.5 8.5t35 7t41 4q2 -75 3 -159t3 -169.5t5.5 -168t10.5 -154.5z" />
    <glyph glyph-name="Uacute" unicode="&#xda;" horiz-adv-x="716" 
d="M664 847l-316 -133l-54 110l313 159zM673 43q-22 -11 -64.5 -25t-82.5 -28q-2 18 -2.5 29t-0.5 17v9v6q1 4 1 10.5t-1 21.5q-28 -10 -48 -19.5t-39.5 -19t-41.5 -20t-53 -22.5q-24 -9 -50.5 -18.5t-54 -17t-54.5 -11.5t-52 -2q-20 1 -36 11t-28 24.5t-19 33t-8 36.5
q-2 39 3 105.5t16 151.5t26.5 185t34.5 208q40 -4 72.5 -8t71.5 -17q-6 -47 -17 -97.5t-23.5 -112t-24 -136.5t-16.5 -171q-2 -29 -1 -43t12 -16q6 -2 18.5 0.5t26 6.5t26.5 8t19 6q35 11 70 24.5t66.5 27t58.5 26.5t46 22q-1 48 -3 103.5t-5 112.5t-6.5 113.5t-7.5 108.5
q21 4 38.5 8.5t34.5 8.5t35 7t41 4q2 -75 3 -159t3 -169.5t5.5 -168t10.5 -154.5z" />
    <glyph glyph-name="Ucircumflex" unicode="&#xdb;" horiz-adv-x="716" 
d="M637 864l-63 -116q-39 22 -80.5 52t-65.5 61q-30 -14 -58.5 -32t-54 -37.5t-47.5 -39t-40 -37.5l-88 97q40 39 75 68.5t70 53t74 43.5t87 41q13 -12 37.5 -33.5t52 -44.5t54.5 -44t47 -32zM673 43q-22 -11 -64.5 -25t-82.5 -28q-2 18 -2.5 29t-0.5 17v9v6q1 4 1 10.5
t-1 21.5q-28 -10 -48 -19.5t-39.5 -19t-41.5 -20t-53 -22.5q-24 -9 -50.5 -18.5t-54 -17t-54.5 -11.5t-52 -2q-20 1 -36 11t-28 24.5t-19 33t-8 36.5q-2 39 3 105.5t16 151.5t26.5 185t34.5 208q40 -4 72.5 -8t71.5 -17q-6 -47 -17 -97.5t-23.5 -112t-24 -136.5t-16.5 -171
q-2 -29 -1 -43t12 -16q6 -2 18.5 0.5t26 6.5t26.5 8t19 6q35 11 70 24.5t66.5 27t58.5 26.5t46 22q-1 48 -3 103.5t-5 112.5t-6.5 113.5t-7.5 108.5q21 4 38.5 8.5t34.5 8.5t35 7t41 4q2 -75 3 -159t3 -169.5t5.5 -168t10.5 -154.5z" />
    <glyph glyph-name="Udieresis" unicode="&#xdc;" horiz-adv-x="716" 
d="M650 846q-2 -10 -7 -20t-11.5 -19t-12 -15.5t-8.5 -9.5q-13 -18 -34.5 -23.5t-43.5 -4.5q-26 1 -45.5 12.5t-29.5 31t-10 45.5t13 56q2 5 14 17.5t23 20.5q10 7 22 13.5t25.5 10t28 3t29.5 -7.5q35 -17 44 -48t3 -62zM346 912q11 -32 6 -66.5t-42 -75.5q-8 -8 -19 -13
t-22 -8t-21 -4.5t-15 -2.5q-20 -5 -35 3t-25.5 22.5t-16 33.5t-4.5 38q0 14 6 29t13.5 27.5t15 22t10.5 12.5q4 3 23 12.5t43 13.5t47.5 -4t35.5 -40zM673 43q-22 -11 -64.5 -25t-82.5 -28q-2 18 -2.5 29t-0.5 17v9v6q1 4 1 10.5t-1 21.5q-28 -10 -48 -19.5t-39.5 -19
t-41.5 -20t-53 -22.5q-24 -9 -50.5 -18.5t-54 -17t-54.5 -11.5t-52 -2q-20 1 -36 11t-28 24.5t-19 33t-8 36.5q-2 39 3 105.5t16 151.5t26.5 185t34.5 208q40 -4 72.5 -8t71.5 -17q-6 -47 -17 -97.5t-23.5 -112t-24 -136.5t-16.5 -171q-2 -29 -1 -43t12 -16q6 -2 18.5 0.5
t26 6.5t26.5 8t19 6q35 11 70 24.5t66.5 27t58.5 26.5t46 22q-1 48 -3 103.5t-5 112.5t-6.5 113.5t-7.5 108.5q21 4 38.5 8.5t34.5 8.5t35 7t41 4q2 -75 3 -159t3 -169.5t5.5 -168t10.5 -154.5z" />
    <glyph glyph-name="Yacute" unicode="&#xdd;" horiz-adv-x="606" 
d="M568 864l-317 -133l-53 109l313 159zM603 675q-17 -58 -33 -103t-33 -85.5t-36.5 -81t-42.5 -90.5q-25 -53 -47.5 -96.5t-44.5 -86.5t-45.5 -90.5t-49.5 -109.5l-119 69q20 40 37 72t32.5 61t29 58.5t26.5 65.5q-34 36 -67.5 72t-65.5 74q-35 42 -70 88.5t-73 109.5
l116 78q61 -94 115 -163t108 -131q20 43 38.5 80.5t35.5 78.5t34.5 89.5t35.5 113.5z" />
    <glyph glyph-name="germandbls" unicode="&#xdf;" horiz-adv-x="788" 
d="M776 308q1 -29 -6.5 -57.5t-22 -54t-35 -47t-44.5 -36.5q-66 -42 -140.5 -68.5t-165.5 -46.5l-43 138q40 7 74 14t63.5 15t56 18t52.5 22q12 6 27.5 13.5t28 16.5t18.5 20.5t0 25.5q-6 12 -29.5 23t-59 19t-80 12.5t-92 4.5t-94.5 -4.5t-87 -14.5v-45.5t0.5 -60
t0.5 -67.5v-69q0 -80 1 -169l-131 -31q-4 81 -7 166q-2 73 -3.5 160t0.5 168q1 48 7 94t15 86t21 71.5t26 50.5q32 42 79.5 69t103 40.5t115.5 13.5t118 -11q57 -11 82 -42t28.5 -69t-10.5 -76.5t-35 -64.5q-28 -34 -67 -67q49 -7 91.5 -23.5t74 -38.5t50 -47.5t19.5 -50.5z
M503 654q-81 17 -146.5 3t-109.5 -58q-24 -25 -33 -62t-11 -80q77 17 149 44.5t136 80.5q8 7 18.5 17.5t16.5 21.5t3 20t-23 13z" />
    <glyph glyph-name="agrave" unicode="&#xe0;" horiz-adv-x="858" 
d="M551 895l-54 -109l-306 113l57 135zM880 8q-19 -19 -32 -29.5t-26 -17.5t-29.5 -14t-41.5 -18q-19 31 -38 66.5t-37 71t-34 68t-28 57.5q-59 -8 -106 -12.5t-92 -6.5t-92 -3t-106 -1q-10 -16 -28.5 -46t-38.5 -62.5t-38 -61.5t-26 -42l-122 57q59 100 115.5 193.5
t115.5 187.5q59 93 123.5 185.5t142.5 190.5q36 -60 71.5 -123t69 -125.5t64 -122.5t57.5 -115q11 -22 31 -58t42.5 -76t44.5 -78.5t38 -64.5zM550 328q-29 52 -55.5 95.5t-55.5 91.5q-33 -42 -50 -66t-29 -44q-11 -20 -22.5 -40t-31.5 -52q74 -2 136.5 2.5t107.5 12.5z" />
    <glyph glyph-name="aacute" unicode="&#xe1;" horiz-adv-x="858" 
d="M680 893l-317 -133l-53 109l313 159zM880 8q-19 -19 -32 -29.5t-26 -17.5t-29.5 -14t-41.5 -18q-19 31 -38 66.5t-37 71t-34 68t-28 57.5q-59 -8 -106 -12.5t-92 -6.5t-92 -3t-106 -1q-10 -16 -28.5 -46t-38.5 -62.5t-38 -61.5t-26 -42l-122 57q59 100 115.5 193.5
t115.5 187.5q59 93 123.5 185.5t142.5 190.5q36 -60 71.5 -123t69 -125.5t64 -122.5t57.5 -115q11 -22 31 -58t42.5 -76t44.5 -78.5t38 -64.5zM550 328q-29 52 -55.5 95.5t-55.5 91.5q-33 -42 -50 -66t-29 -44q-11 -20 -22.5 -40t-31.5 -52q74 -2 136.5 2.5t107.5 12.5z" />
    <glyph glyph-name="acircumflex" unicode="&#xe2;" horiz-adv-x="858" 
d="M688 864l-62 -117q-20 11 -40.5 24.5t-40 28.5t-36.5 30.5t-29 30.5q-30 -14 -58.5 -32t-54 -37.5t-48 -39t-40.5 -37.5l-88 97q40 39 75.5 68.5t70.5 53t74 43.5t87 41q13 -12 37 -33.5t51.5 -44.5t54.5 -44t47 -32zM880 8q-19 -19 -32 -29.5t-26 -17.5t-29.5 -14
t-41.5 -18q-19 31 -38 66.5t-37 71t-34 68t-28 57.5q-59 -8 -106 -12.5t-92 -6.5t-92 -3t-106 -1q-10 -16 -28.5 -46t-38.5 -62.5t-38 -61.5t-26 -42l-122 57q59 100 115.5 193.5t115.5 187.5q59 93 123.5 185.5t142.5 190.5q36 -60 71.5 -123t69 -125.5t64 -122.5
t57.5 -115q11 -22 31 -58t42.5 -76t44.5 -78.5t38 -64.5zM550 328q-29 52 -55.5 95.5t-55.5 91.5q-33 -42 -50 -66t-29 -44q-11 -20 -22.5 -40t-31.5 -52q74 -2 136.5 2.5t107.5 12.5z" />
    <glyph glyph-name="atilde" unicode="&#xe3;" horiz-adv-x="858" 
d="M695 932q-17 -23 -27 -36.5t-19 -24.5t-19 -22t-21 -21q-22 -20 -49.5 -34.5t-62.5 -14.5q-30 0 -48.5 11t-32.5 28q-5 7 -10.5 15t-10.5 16q-4 6 -7.5 12t-8.5 11q-12 -3 -28.5 -12.5t-32.5 -24t-28.5 -31.5t-16.5 -33l-84 92q10 21 34 43t53 41t58.5 31t50.5 12
q35 0 56 -17t34 -36q6 -9 10.5 -17.5t9.5 -14.5q1 -2 0.5 -4.5t1.5 -2.5q17 0 41.5 23t50.5 55zM880 8q-19 -19 -32 -29.5t-26 -17.5t-29.5 -14t-41.5 -18q-19 31 -38 66.5t-37 71t-34 68t-28 57.5q-59 -8 -106 -12.5t-92 -6.5t-92 -3t-106 -1q-10 -16 -28.5 -46
t-38.5 -62.5t-38 -61.5t-26 -42l-122 57q59 100 115.5 193.5t115.5 187.5q59 93 123.5 185.5t142.5 190.5q36 -60 71.5 -123t69 -125.5t64 -122.5t57.5 -115q11 -22 31 -58t42.5 -76t44.5 -78.5t38 -64.5zM550 328q-29 52 -55.5 95.5t-55.5 91.5q-33 -42 -50 -66t-29 -44
q-11 -20 -22.5 -40t-31.5 -52q74 -2 136.5 2.5t107.5 12.5z" />
    <glyph glyph-name="adieresis" unicode="&#xe4;" horiz-adv-x="858" 
d="M705 865q-2 -10 -7.5 -20t-11.5 -19t-12 -15.5t-8 -9.5q-14 -18 -35.5 -23t-43.5 -4q-26 1 -45 12.5t-29 31t-10 45.5t13 55q2 5 13.5 17.5t22.5 20.5q10 7 22 13.5t25.5 10t28.5 3t30 -7.5q34 -17 43 -48t4 -62zM400 931q12 -32 6.5 -66t-41.5 -76q-8 -8 -19 -13t-22 -8
t-21 -4.5t-15 -2.5q-20 -5 -35.5 3t-26 22.5t-16 34t-4.5 38.5q0 13 6 28t13.5 27.5t15 22t10.5 12.5q2 2 12 7.5t24 10.5t30.5 8.5t32.5 0.5t29 -13t21 -32zM880 8q-19 -19 -32 -29.5t-26 -17.5t-29.5 -14t-41.5 -18q-19 31 -38 66.5t-37 71t-34 68t-28 57.5
q-59 -8 -106 -12.5t-92 -6.5t-92 -3t-106 -1q-10 -16 -28.5 -46t-38.5 -62.5t-38 -61.5t-26 -42l-122 57q59 100 115.5 193.5t115.5 187.5q59 93 123.5 185.5t142.5 190.5q36 -60 71.5 -123t69 -125.5t64 -122.5t57.5 -115q11 -22 31 -58t42.5 -76t44.5 -78.5t38 -64.5z
M550 328q-29 52 -55.5 95.5t-55.5 91.5q-33 -42 -50 -66t-29 -44q-11 -20 -22.5 -40t-31.5 -52q74 -2 136.5 2.5t107.5 12.5z" />
    <glyph glyph-name="aring" unicode="&#xe5;" horiz-adv-x="858" 
d="M880 8q-19 -19 -32 -29.5t-26 -17.5t-29.5 -14t-41.5 -18q-19 31 -38 66.5t-37 71t-34 68t-28 57.5q-59 -8 -106 -12.5t-92 -6.5t-92 -3t-106 -1q-10 -16 -28.5 -46t-38.5 -62.5t-38 -61.5t-26 -42l-122 57q59 100 115.5 193.5t115.5 187.5q42 64 84.5 127.5t90.5 129.5
h-8q-56 5 -85 31.5t-34 61.5q-2 11 1 24.5t9 26t14 24.5t15 20q16 20 42 35t53 25t50.5 15t36.5 6q16 1 35.5 0.5t39 -3.5t38 -9t33.5 -16q26 -18 35 -48t1 -58q-9 -30 -25 -52t-52 -42q-12 -7 -24 -12.5t-25 -10.5q57 -100 108 -198.5t95 -186.5q11 -22 31 -58t42.5 -76
t44.5 -78.5t38 -64.5zM512 799q0 12 -10.5 14t-21.5 2q-26 0 -47.5 -7t-37.5 -23q-5 -5 -8 -10t-3 -6q0 -6 4.5 -8.5t10.5 -3t12.5 0t11.5 0.5h14t17 2l8 11l4 -8q18 5 32 13t14 23zM550 328q-29 52 -55.5 95.5t-55.5 91.5q-33 -42 -50 -66t-29 -44q-11 -20 -22.5 -40
t-31.5 -52q74 -2 136.5 2.5t107.5 12.5z" />
    <glyph glyph-name="ae" unicode="&#xe6;" horiz-adv-x="1276" 
d="M1280 97q-81 -20 -165.5 -38.5t-168.5 -39t-166 -44t-160 -54.5q-3 34 -4.5 74t-1.5 79.5t0.5 75.5t0.5 63q-63 -8 -112.5 -12.5t-95 -7.5t-93 -4t-106.5 -1q-12 -12 -31.5 -31t-42.5 -42t-48 -47.5t-47.5 -46.5t-41 -40.5l-28.5 -28.5l-92 64q109 110 213 215t210 208
q112 109 223.5 212t230.5 206q2 -29 4 -59t4 -59q58 7 112.5 14t111.5 13.5t117.5 13.5t130.5 15l25 -136q-140 -16 -262.5 -30.5t-227.5 -37.5q1 -39 1.5 -77.5t1.5 -76.5q55 10 101 16.5t93.5 12.5t101.5 13.5t125 19.5l20 -133q-71 -12 -125.5 -20.5t-104 -16
t-99.5 -15.5t-112 -19q1 -33 3 -80t6 -94q48 9 103 21.5t113.5 26.5t118 29.5t117.5 29.5zM620 364q-3 58 -2.5 106.5t-5.5 102.5q-53 -47 -87.5 -74t-56.5 -49q-21 -21 -42.5 -43.5t-57.5 -57.5q73 -2 137.5 2.5t114.5 12.5z" />
    <glyph glyph-name="ccedilla" unicode="&#xe7;" horiz-adv-x="768" 
d="M799 257q-46 -29 -89 -53t-86.5 -43.5t-89 -35.5t-95.5 -29q6 -8 8 -12q13 -21 22 -46t9 -58q0 -31 -14 -50.5t-34.5 -30.5t-43.5 -15t-41 -5q-15 -1 -32.5 1t-34.5 4q-15 2 -30.5 3.5t-39.5 1.5l28 132q29 -4 45.5 -6.5t30.5 -4.5q8 -1 14.5 -1h14.5q-4 8 -9 16t-11 18
q-5 8 -11 16t-11 16l-1 2q-61 2 -114 23t-90 59.5t-55 94t-9 127.5q6 49 20.5 89t35.5 74.5t48.5 64.5t60.5 58q31 26 74.5 48t92 39t98.5 28.5t95 17.5t81 5.5t56 -7.5q6 -39 9 -96.5t8 -142.5q-11 -8 -29 -14t-38.5 -10.5t-40.5 -7t-33 -2.5q2 50 0 84t-7 61
q-33 -3 -74.5 -13.5t-82 -24.5t-75 -31.5t-53.5 -34.5q-51 -46 -82 -103t-31 -133q0 -34 20 -60t53 -41t76 -18t90 8q46 11 89 27.5t82 35t73.5 38.5t63.5 38q26 -25 46.5 -50.5t42.5 -50.5z" />
    <glyph glyph-name="egrave" unicode="&#xe8;" horiz-adv-x="737" 
d="M475 841l-54 -109l-306 113l57 135zM717 87q-77 -17 -162.5 -37t-171 -39.5t-167.5 -37t-152 -27.5q0 99 2 173.5t3.5 138.5t1.5 125t-4 135q-6 -1 -14.5 -0.5t-16.5 0.5h-18q-2 23 -5 46q-2 20 -4 40.5t-4 35.5q95 13 174.5 22.5t156.5 17.5t157.5 16.5t177.5 19.5
l26 -123q-142 -14 -265 -27.5t-229 -34.5q0 -21 -0.5 -38.5t-1 -33.5t-0.5 -32t1 -35q57 10 104 16t95 11t102.5 12t127.5 18l20 -120q-73 -11 -128.5 -18.5t-106 -14t-102 -14t-116.5 -18.5v-1q0 -8 0.5 -19t0.5 -25q1 -23 1.5 -52t0.5 -61q49 8 106 19.5t117.5 24.5
t123.5 27t123 28z" />
    <glyph glyph-name="eacute" unicode="&#xe9;" horiz-adv-x="737" 
d="M603 858l-316 -133l-54 109l313 159zM717 87q-77 -17 -162.5 -37t-171 -39.5t-167.5 -37t-152 -27.5q0 99 2 173.5t3.5 138.5t1.5 125t-4 135q-6 -1 -14.5 -0.5t-16.5 0.5h-18q-2 23 -5 46q-2 20 -4 40.5t-4 35.5q95 13 174.5 22.5t156.5 17.5t157.5 16.5t177.5 19.5
l26 -123q-142 -14 -265 -27.5t-229 -34.5q0 -21 -0.5 -38.5t-1 -33.5t-0.5 -32t1 -35q57 10 104 16t95 11t102.5 12t127.5 18l20 -120q-73 -11 -128.5 -18.5t-106 -14t-102 -14t-116.5 -18.5v-1q0 -8 0.5 -19t0.5 -25q1 -23 1.5 -52t0.5 -61q49 8 106 19.5t117.5 24.5
t123.5 27t123 28z" />
    <glyph glyph-name="ecircumflex" unicode="&#xea;" horiz-adv-x="737" 
d="M585 867l-63 -116q-19 11 -40 24t-40.5 28t-36.5 30.5t-29 30.5q-30 -14 -58 -31.5t-53.5 -37t-48 -39.5t-40.5 -38l-88 97q40 39 75 68.5t70.5 53t74.5 43.5t87 41q13 -12 37 -33.5t51.5 -44.5t54.5 -44t47 -32zM717 87q-77 -17 -162.5 -37t-171 -39.5t-167.5 -37
t-152 -27.5q0 99 2 173.5t3.5 138.5t1.5 125t-4 135q-6 -1 -14.5 -0.5t-16.5 0.5h-18q-2 23 -5 46q-2 20 -4 40.5t-4 35.5q95 13 174.5 22.5t156.5 17.5t157.5 16.5t177.5 19.5l26 -123q-142 -14 -265 -27.5t-229 -34.5q0 -21 -0.5 -38.5t-1 -33.5t-0.5 -32t1 -35
q57 10 104 16t95 11t102.5 12t127.5 18l20 -120q-73 -11 -128.5 -18.5t-106 -14t-102 -14t-116.5 -18.5v-1q0 -8 0.5 -19t0.5 -25q1 -23 1.5 -52t0.5 -61q49 8 106 19.5t117.5 24.5t123.5 27t123 28z" />
    <glyph glyph-name="edieresis" unicode="&#xeb;" horiz-adv-x="737" 
d="M612 845q-2 -10 -7.5 -20t-11.5 -19t-12 -15.5t-8 -9.5q-14 -17 -35.5 -22.5t-43.5 -4.5q-26 1 -45 12.5t-29 31t-10 45.5t13 56q2 5 13.5 17.5t22.5 19.5q10 7 22.5 13.5t26 10.5t28 3.5t29.5 -7.5q34 -17 43 -48.5t4 -62.5zM307 911q12 -32 7 -65.5t-42 -75.5
q-8 -9 -19 -14t-22 -7.5t-21 -4t-15 -2.5q-20 -5 -35.5 2.5t-26 22t-16 34t-4.5 38.5q0 14 6 28.5t13.5 27.5t15 22t10.5 12q4 3 23.5 13t43.5 14t47 -4t35 -41zM717 87q-77 -17 -162.5 -37t-171 -39.5t-167.5 -37t-152 -27.5q0 99 2 173.5t3.5 138.5t1.5 125t-4 135
q-6 -1 -14.5 -0.5t-16.5 0.5h-18q-2 23 -5 46q-2 20 -4 40.5t-4 35.5q95 13 174.5 22.5t156.5 17.5t157.5 16.5t177.5 19.5l26 -123q-142 -14 -265 -27.5t-229 -34.5q0 -21 -0.5 -38.5t-1 -33.5t-0.5 -32t1 -35q57 10 104 16t95 11t102.5 12t127.5 18l20 -120
q-73 -11 -128.5 -18.5t-106 -14t-102 -14t-116.5 -18.5v-1q0 -8 0.5 -19t0.5 -25q1 -23 1.5 -52t0.5 -61q49 8 106 19.5t117.5 24.5t123.5 27t123 28z" />
    <glyph glyph-name="igrave" unicode="&#xec;" horiz-adv-x="320" 
d="M265 844l-39 -106l-220 110l41 131zM256 686q-6 -28 -9.5 -57.5t-5.5 -51.5q-6 -71 -9.5 -129t-5 -114t-1.5 -114.5t2 -129.5q0 -11 0.5 -24.5t1 -27.5t1 -27.5t0.5 -23.5l-134 -4q0 25 -1.5 52.5t-2.5 47.5q-2 72 -1 130t4 113.5t6.5 114.5t7.5 131q2 27 4.5 61.5
t4.5 60.5z" />
    <glyph glyph-name="iacute" unicode="&#xed;" horiz-adv-x="320" 
d="M384 866l-212 -135l-36 111l210 160zM256 686q-6 -28 -9.5 -57.5t-5.5 -51.5q-6 -71 -9.5 -129t-5 -114t-1.5 -114.5t2 -129.5q0 -11 0.5 -24.5t1 -27.5t1 -27.5t0.5 -23.5l-134 -4q0 25 -1.5 52.5t-2.5 47.5q-2 72 -1 130t4 113.5t6.5 114.5t7.5 131q2 27 4.5 61.5
t4.5 60.5z" />
    <glyph glyph-name="icircumflex" unicode="&#xee;" horiz-adv-x="320" 
d="M326 842l-43 -115q-26 22 -54.5 52t-45.5 60q-21 -14 -40 -31.5t-36.5 -37t-33 -39t-27.5 -36.5l-61 96q28 39 52 68t48.5 52.5t51 43.5t59.5 41q9 -12 25.5 -33.5t35 -44.5t37 -44t32.5 -32zM256 686q-6 -28 -9.5 -57.5t-5.5 -51.5q-6 -71 -9.5 -129t-5 -114
t-1.5 -114.5t2 -129.5q0 -11 0.5 -24.5t1 -27.5t1 -27.5t0.5 -23.5l-134 -4q0 25 -1.5 52.5t-2.5 47.5q-2 72 -1 130t4 113.5t6.5 114.5t7.5 131q2 27 4.5 61.5t4.5 60.5z" />
    <glyph glyph-name="idieresis" unicode="&#xef;" horiz-adv-x="320" 
d="M441 834q-2 -10 -7 -20t-11 -19t-12 -15.5t-8 -9.5q-14 -17 -35.5 -22.5t-43.5 -4.5q-26 1 -45.5 12.5t-29.5 31t-10 45.5t13 55q2 5 14 18t23 20q20 14 47 24t59 -4q34 -17 43 -48.5t3 -62.5zM137 900q11 -32 6 -66t-42 -76q-8 -8 -18.5 -13t-22 -7.5t-21 -4t-14.5 -2.5
q-20 -5 -35.5 2.5t-26 22t-16 34t-4.5 38.5q0 14 6 28.5t13.5 27.5t15 22t10.5 12q4 3 23 13t43 14t47.5 -4t35.5 -41zM256 686q-6 -28 -9.5 -57.5t-5.5 -51.5q-6 -71 -9.5 -129t-5 -114t-1.5 -114.5t2 -129.5q0 -11 0.5 -24.5t1 -27.5t1 -27.5t0.5 -23.5l-134 -4
q0 25 -1.5 52.5t-2.5 47.5q-2 72 -1 130t4 113.5t6.5 114.5t7.5 131q2 27 4.5 61.5t4.5 60.5z" />
    <glyph glyph-name="ntilde" unicode="&#xf1;" horiz-adv-x="917" 
d="M713 889q-17 -24 -27 -37.5t-19 -24.5t-19 -22t-21 -21q-22 -20 -49.5 -34t-62.5 -14q-30 0 -48.5 10.5t-31.5 27.5q-11 14 -22 31q-4 6 -7.5 12t-8.5 11q-12 -3 -28.5 -12.5t-32.5 -24t-28.5 -31t-16.5 -32.5l-84 91q10 21 34 43.5t53.5 41.5t58.5 31t50 12
q35 0 56 -17.5t34 -36.5q6 -8 10.5 -16.5t9.5 -15.5q2 -2 1 -4.5t1 -2.5q17 0 41.5 23.5t50.5 54.5zM838 722v-184t-0.5 -165.5l-1 -161t-1.5 -170.5l-1 -119q-20 17 -56.5 46.5t-83.5 67t-102 80.5t-110 87q-41 32 -80 63t-73.5 59t-63.5 51.5t-48 40.5q-9 -89 -7.5 -191
t9.5 -208q-35 -14 -71.5 -15.5t-68.5 3.5q-3 38 -4 89.5t-1 109.5t1.5 119.5t3.5 120.5q4 137 12 287q131 -108 248 -206q50 -42 101.5 -85t99.5 -83t88.5 -74.5t67.5 -58.5q0 64 0.5 118l1 108t1 113t0.5 133q20 6 36 9.5t32 6.5t32.5 5t38.5 4z" />
    <glyph glyph-name="ograve" unicode="&#xf2;" horiz-adv-x="910" 
d="M596 841l-54 -110l-306 114l57 135zM894 423q-2 -35 -12.5 -71t-29.5 -71.5t-44.5 -69t-55.5 -62.5q-35 -34 -70.5 -59t-72.5 -43t-76.5 -29.5t-84.5 -17.5q-55 -8 -107 -10t-100 9.5t-92 39.5t-83 80q-32 43 -42.5 87.5t-4.5 89.5t25.5 89.5t47.5 86.5q32 49 77.5 84
t102.5 67q61 34 126.5 48t127.5 14t116.5 -11t94.5 -27q30 -12 59 -33.5t51 -51t35 -65t12 -74.5zM765 422q0 22 -10 41t-25.5 34t-35 26.5t-40.5 19.5q-76 28 -160 21t-162 -46q-34 -17 -68.5 -41t-57.5 -59q-20 -31 -34.5 -59.5t-20 -55.5t-0.5 -52t24 -50
q28 -37 58.5 -54.5t65 -23t73 -1.5t82.5 10q74 11 147.5 52t127.5 117q17 23 27.5 52.5t8.5 68.5z" />
    <glyph glyph-name="oacute" unicode="&#xf3;" horiz-adv-x="910" 
d="M753 862l-316 -133l-54 110l313 159zM894 423q-2 -35 -12.5 -71t-29.5 -71.5t-44.5 -69t-55.5 -62.5q-35 -34 -70.5 -59t-72.5 -43t-76.5 -29.5t-84.5 -17.5q-55 -8 -107 -10t-100 9.5t-92 39.5t-83 80q-32 43 -42.5 87.5t-4.5 89.5t25.5 89.5t47.5 86.5q32 49 77.5 84
t102.5 67q61 34 126.5 48t127.5 14t116.5 -11t94.5 -27q30 -12 59 -33.5t51 -51t35 -65t12 -74.5zM765 422q0 22 -10 41t-25.5 34t-35 26.5t-40.5 19.5q-76 28 -160 21t-162 -46q-34 -17 -68.5 -41t-57.5 -59q-20 -31 -34.5 -59.5t-20 -55.5t-0.5 -52t24 -50
q28 -37 58.5 -54.5t65 -23t73 -1.5t82.5 10q74 11 147.5 52t127.5 117q17 23 27.5 52.5t8.5 68.5z" />
    <glyph glyph-name="ocircumflex" unicode="&#xf4;" horiz-adv-x="910" 
d="M713 842l-63 -116q-39 23 -80.5 52.5t-65.5 60.5q-30 -14 -58.5 -31.5t-54 -37t-47.5 -39.5t-40 -38l-88 98q40 39 75 68t70 52.5t74 43.5t87 41q13 -12 37.5 -33.5t52 -44.5t54.5 -44t47 -32zM894 423q-2 -35 -12.5 -71t-29.5 -71.5t-44.5 -69t-55.5 -62.5
q-35 -34 -70.5 -59t-72.5 -43t-76.5 -29.5t-84.5 -17.5q-55 -8 -107 -10t-100 9.5t-92 39.5t-83 80q-32 43 -42.5 87.5t-4.5 89.5t25.5 89.5t47.5 86.5q32 49 77.5 84t102.5 67q61 34 126.5 48t127.5 14t116.5 -11t94.5 -27q30 -12 59 -33.5t51 -51t35 -65t12 -74.5z
M765 422q0 22 -10 41t-25.5 34t-35 26.5t-40.5 19.5q-76 28 -160 21t-162 -46q-34 -17 -68.5 -41t-57.5 -59q-20 -31 -34.5 -59.5t-20 -55.5t-0.5 -52t24 -50q28 -37 58.5 -54.5t65 -23t73 -1.5t82.5 10q74 11 147.5 52t127.5 117q17 23 27.5 52.5t8.5 68.5z" />
    <glyph glyph-name="otilde" unicode="&#xf5;" horiz-adv-x="910" 
d="M744 883q-18 -24 -27.5 -37t-18.5 -24t-19 -22t-21 -22q-23 -20 -50 -34t-62 -14q-31 0 -49.5 10.5t-31.5 27.5q-6 8 -11 16l-10 16q-4 6 -8 11.5t-8 10.5q-12 -3 -28.5 -12.5t-32.5 -24t-28.5 -31t-16.5 -32.5l-85 91q10 21 34 43.5t53.5 41.5t59 31t50.5 12
q34 0 55 -17.5t34 -35.5q6 -9 11 -17.5t9 -15.5q2 -2 1.5 -4.5t1.5 -2.5q17 0 41.5 23.5t50.5 55.5zM894 423q-2 -35 -12.5 -71t-29.5 -71.5t-44.5 -69t-55.5 -62.5q-35 -34 -70.5 -59t-72.5 -43t-76.5 -29.5t-84.5 -17.5q-55 -8 -107 -10t-100 9.5t-92 39.5t-83 80
q-32 43 -42.5 87.5t-4.5 89.5t25.5 89.5t47.5 86.5q32 49 77.5 84t102.5 67q61 34 126.5 48t127.5 14t116.5 -11t94.5 -27q30 -12 59 -33.5t51 -51t35 -65t12 -74.5zM765 422q0 22 -10 41t-25.5 34t-35 26.5t-40.5 19.5q-76 28 -160 21t-162 -46q-34 -17 -68.5 -41
t-57.5 -59q-20 -31 -34.5 -59.5t-20 -55.5t-0.5 -52t24 -50q28 -37 58.5 -54.5t65 -23t73 -1.5t82.5 10q74 11 147.5 52t127.5 117q17 23 27.5 52.5t8.5 68.5z" />
    <glyph glyph-name="odieresis" unicode="&#xf6;" horiz-adv-x="910" 
d="M751 823q-2 -9 -7 -19t-11.5 -19t-12 -15.5t-8.5 -9.5q-13 -18 -34.5 -23.5t-43.5 -4.5q-26 1 -45.5 12.5t-29.5 31t-10 45.5t13 56q2 5 14 17.5t23 20.5q10 7 22 13.5t25.5 10t28 3t29.5 -7.5q35 -17 44 -48t3 -63zM447 890q11 -32 6 -66.5t-42 -75.5q-8 -8 -19 -13
t-22 -8t-21 -4.5t-15 -2.5q-20 -5 -35 3t-25.5 22.5t-16 33.5t-4.5 38q0 14 6 29t13.5 27.5t15 22t10.5 12.5q4 3 23 12.5t43 13.5t47.5 -4t35.5 -40zM894 423q-2 -35 -12.5 -71t-29.5 -71.5t-44.5 -69t-55.5 -62.5q-35 -34 -70.5 -59t-72.5 -43t-76.5 -29.5t-84.5 -17.5
q-55 -8 -107 -10t-100 9.5t-92 39.5t-83 80q-32 43 -42.5 87.5t-4.5 89.5t25.5 89.5t47.5 86.5q32 49 77.5 84t102.5 67q61 34 126.5 48t127.5 14t116.5 -11t94.5 -27q30 -12 59 -33.5t51 -51t35 -65t12 -74.5zM765 422q0 22 -10 41t-25.5 34t-35 26.5t-40.5 19.5
q-76 28 -160 21t-162 -46q-34 -17 -68.5 -41t-57.5 -59q-20 -31 -34.5 -59.5t-20 -55.5t-0.5 -52t24 -50q28 -37 58.5 -54.5t65 -23t73 -1.5t82.5 10q74 11 147.5 52t127.5 117q17 23 27.5 52.5t8.5 68.5z" />
    <glyph glyph-name="divide" unicode="&#xf7;" horiz-adv-x="592" 
d="M357 651q15 -32 14 -66.5t-32 -74.5q-7 -8 -17.5 -13t-21.5 -7t-20.5 -3t-14.5 -2q-19 -4 -35.5 4t-29 23t-20.5 34.5t-9 38.5q-1 14 3 28.5t10 27t12 21.5t9 12t21.5 12t42 12.5t48 -5.5t40.5 -42zM546 288l-492 -36l-7 160l495 31zM396 104q-2 -9 -7.5 -19t-11.5 -19
t-12 -15.5t-8 -9.5q-14 -18 -35.5 -24t-43.5 -4q-33 4 -55 19.5t-31.5 37t-6 45t21.5 43.5q3 4 14 17t22 21q10 7 22 13.5t25.5 10t28.5 3t30 -7.5q34 -17 43 -48t4 -63z" />
    <glyph glyph-name="oslash" unicode="&#xf8;" horiz-adv-x="1051" 
d="M993 470q-2 -39 -14 -79t-33 -79.5t-49 -76.5t-62 -69q-39 -38 -78 -66t-80 -48t-85.5 -32.5t-93.5 -19.5q-31 -4 -60.5 -7t-58.5 -4q-12 -23 -25 -47.5t-24 -41.5l-130 72q13 22 23 41q-41 16 -78.5 44.5t-71.5 74.5q-36 48 -47.5 97.5t-4.5 99.5t28.5 99.5t52.5 96.5
q35 54 85.5 93t114.5 74q45 25 92.5 40t94.5 22t93.5 7t88.5 -5l27 40.5t24 35.5l127 -85q-6 -7 -12 -14.5t-12 -15.5q33 -14 64 -38.5t54.5 -56.5t37.5 -70.5t12 -81.5zM850 469q-1 45 -34 77.5t-76 51.5q-73 -112 -142 -226t-135 -231l20 2t21 3q41 6 82.5 20.5t81.5 37.5
t76 55.5t66 74.5q18 26 30 58.5t10 76.5zM588 628q-55 1 -110.5 -12.5t-108.5 -40.5q-38 -19 -76 -45t-64 -66q-23 -34 -39 -65.5t-22 -61.5t-0.5 -58t26.5 -55q23 -31 48 -49.5t52 -28.5q69 124 143 242.5t151 239.5z" />
    <glyph glyph-name="ugrave" unicode="&#xf9;" horiz-adv-x="745" 
d="M491 832l-54 -110l-306 113l57 136zM690 261q0 -24 -1.5 -54t-9 -58.5t-22 -51t-38.5 -31.5q-24 -8 -47 -18t-53 -21t-70.5 -22.5t-99.5 -22.5q-20 -4 -47.5 -7t-57.5 -5t-59.5 -2.5t-51.5 1.5q-18 1 -34.5 9t-29 20.5t-20.5 29t-9 35.5q-4 92 0 177.5t12 160.5
t17.5 138.5t15.5 111.5q42 -8 76.5 -16t72.5 -15q-7 -26 -14.5 -62.5t-14.5 -78.5t-13 -86t-10.5 -85t-6 -76t-0.5 -58q1 -13 1 -28.5t5 -26.5q3 -8 10.5 -13.5t28.5 -4.5q55 2 107 15.5t103 28.5q43 12 67 22.5t35.5 22.5t14 27t3.5 37q2 50 1.5 109.5t-2.5 120.5t-5 120
t-7 109q33 7 64 10.5t82 3.5q3 -53 4 -116t1.5 -126t0.5 -121.5t1 -102.5z" />
    <glyph glyph-name="uacute" unicode="&#xfa;" horiz-adv-x="745" 
d="M634 855l-316 -133l-54 109l313 159zM690 261q0 -24 -1.5 -54t-9 -58.5t-22 -51t-38.5 -31.5q-24 -8 -47 -18t-53 -21t-70.5 -22.5t-99.5 -22.5q-20 -4 -47.5 -7t-57.5 -5t-59.5 -2.5t-51.5 1.5q-18 1 -34.5 9t-29 20.5t-20.5 29t-9 35.5q-4 92 0 177.5t12 160.5
t17.5 138.5t15.5 111.5q42 -8 76.5 -16t72.5 -15q-7 -26 -14.5 -62.5t-14.5 -78.5t-13 -86t-10.5 -85t-6 -76t-0.5 -58q1 -13 1 -28.5t5 -26.5q3 -8 10.5 -13.5t28.5 -4.5q55 2 107 15.5t103 28.5q43 12 67 22.5t35.5 22.5t14 27t3.5 37q2 50 1.5 109.5t-2.5 120.5t-5 120
t-7 109q33 7 64 10.5t82 3.5q3 -53 4 -116t1.5 -126t0.5 -121.5t1 -102.5z" />
    <glyph glyph-name="ucircumflex" unicode="&#xfb;" horiz-adv-x="745" 
d="M628 867l-63 -116q-19 11 -40 24t-40.5 28t-36.5 30.5t-29 30.5q-30 -14 -58 -31.5t-53.5 -37t-48 -39.5t-40.5 -38l-88 97q40 39 75 68.5t70.5 53t74.5 43.5t87 41q13 -12 37 -33.5t51.5 -44.5t54.5 -44t47 -32zM690 261q0 -24 -1.5 -54t-9 -58.5t-22 -51t-38.5 -31.5
q-24 -8 -47 -18t-53 -21t-70.5 -22.5t-99.5 -22.5q-20 -4 -47.5 -7t-57.5 -5t-59.5 -2.5t-51.5 1.5q-18 1 -34.5 9t-29 20.5t-20.5 29t-9 35.5q-4 92 0 177.5t12 160.5t17.5 138.5t15.5 111.5q42 -8 76.5 -16t72.5 -15q-7 -26 -14.5 -62.5t-14.5 -78.5t-13 -86t-10.5 -85
t-6 -76t-0.5 -58q1 -13 1 -28.5t5 -26.5q3 -8 10.5 -13.5t28.5 -4.5q55 2 107 15.5t103 28.5q43 12 67 22.5t35.5 22.5t14 27t3.5 37q2 50 1.5 109.5t-2.5 120.5t-5 120t-7 109q33 7 64 10.5t82 3.5q3 -53 4 -116t1.5 -126t0.5 -121.5t1 -102.5z" />
    <glyph glyph-name="udieresis" unicode="&#xfc;" horiz-adv-x="745" 
d="M615 843q-2 -10 -7.5 -20t-11.5 -19t-12 -15.5t-8 -9.5q-14 -18 -35.5 -23t-43.5 -5q-26 1 -45 12.5t-29 31.5t-10 46t13 55q2 5 13.5 17.5t22.5 20.5q10 7 22.5 13.5t26 10t28 3t29.5 -7.5q34 -17 43 -48t4 -62zM310 909q12 -32 7 -66t-42 -76q-8 -8 -19 -13t-22 -8
t-21 -4.5t-15 -2.5q-20 -5 -35.5 3t-26 22.5t-16 33.5t-4.5 38q0 14 6 29t13.5 27.5t15 22t11.5 12.5q3 3 22.5 12.5t43.5 13.5t47 -4t35 -40zM690 261q0 -24 -1.5 -54t-9 -58.5t-22 -51t-38.5 -31.5q-24 -8 -47 -18t-53 -21t-70.5 -22.5t-99.5 -22.5q-20 -4 -47.5 -7
t-57.5 -5t-59.5 -2.5t-51.5 1.5q-18 1 -34.5 9t-29 20.5t-20.5 29t-9 35.5q-4 92 0 177.5t12 160.5t17.5 138.5t15.5 111.5q42 -8 76.5 -16t72.5 -15q-7 -26 -14.5 -62.5t-14.5 -78.5t-13 -86t-10.5 -85t-6 -76t-0.5 -58q1 -13 1 -28.5t5 -26.5q3 -8 10.5 -13.5t28.5 -4.5
q55 2 107 15.5t103 28.5q43 12 67 22.5t35.5 22.5t14 27t3.5 37q2 50 1.5 109.5t-2.5 120.5t-5 120t-7 109q33 7 64 10.5t82 3.5q3 -53 4 -116t1.5 -126t0.5 -121.5t1 -102.5z" />
    <glyph glyph-name="yacute" unicode="&#xfd;" horiz-adv-x="722" 
d="M646 845l-316 -133l-54 110l313 159zM765 678q-61 -108 -128.5 -202t-139.5 -185t-144 -179.5t-140 -179.5l-32 -42l-117 79q38 45 69.5 80.5t60.5 69.5q52 59 92 118q-36 35 -72.5 70t-74.5 74t-78 83t-83 96l114 85q39 -45 74.5 -83t69 -74l67 -72t69.5 -76
q70 89 146.5 194t143.5 226z" />
    <glyph glyph-name="ydieresis" unicode="&#xff;" horiz-adv-x="722" 
d="M625 834q-2 -10 -7 -20t-11.5 -19t-12.5 -15.5t-8 -9.5q-13 -18 -34.5 -23.5t-44.5 -4.5q-26 1 -45 12.5t-29 31t-10 45.5t13 56q2 5 13.5 17.5t22.5 20.5q10 7 22.5 13.5t26 10t28 3t29.5 -7.5q35 -17 44 -48t3 -62zM321 900q11 -32 6 -66.5t-42 -75.5q-8 -8 -19 -13
t-22 -8t-21 -4.5t-15 -2.5q-20 -5 -35 3t-25.5 22.5t-16 33.5t-4.5 38q0 14 6 29t13.5 27.5t15 22t10.5 12.5q4 3 23 12.5t43 13.5t47.5 -4t35.5 -40zM765 678q-61 -108 -128.5 -202t-139.5 -185t-144 -179.5t-140 -179.5l-32 -42l-117 79q38 45 69.5 80.5t60.5 69.5
q52 59 92 118q-36 35 -72.5 70t-74.5 74t-78 83t-83 96l114 85q39 -45 74.5 -83t69 -74l67 -72t69.5 -76q70 89 146.5 194t143.5 226z" />
    <glyph glyph-name="OE" unicode="&#x152;" horiz-adv-x="1218" 
d="M1211 72q-75 -15 -142.5 -30.5t-132 -29.5t-129 -27t-134.5 -25q0 40 0.5 76t0.5 70q-2 -3 -5 -5.5t-6 -5.5q-42 -42 -86 -72.5t-93 -48.5t-105 -22.5t-122 6.5q-56 9 -95.5 36t-66 65.5t-40.5 85t-18 94.5q-3 28 2.5 63t16 72t24.5 73t28 65q31 63 80 113t100.5 85
t98.5 54.5t74 22.5q41 5 87.5 1t91.5 -21q63 6 114 10.5t94.5 8t83 5.5l79 4t82 3.5t92.5 2.5l17 -131q-71 -2 -121 -6t-92.5 -8t-82.5 -8t-91 -7q0 -48 -1.5 -86.5t0.5 -82.5q56 10 96 16t73.5 9.5t67.5 6t78 7.5l20 -134q-46 -5 -81 -8.5t-71.5 -8.5t-80 -12t-106.5 -19
l1 -4q1 -48 1.5 -94.5t0.5 -94.5q32 7 72.5 14.5t86.5 15t94.5 17t97.5 21.5zM671 409q4 21 3 48t-6.5 54t-14 51t-17.5 38q-15 21 -40 31t-53.5 12t-57.5 -3t-52 -13q-41 -15 -70.5 -32t-53 -39.5t-42.5 -52t-40 -68.5q-9 -17 -18.5 -40t-17 -48t-12 -49.5t-2.5 -43.5
q5 -66 36.5 -108.5t96.5 -49.5q80 -8 146.5 21t123.5 98q22 26 36.5 47t24 42.5t16.5 46t14 58.5z" />
    <glyph glyph-name="oe" unicode="&#x153;" horiz-adv-x="1542" 
d="M1526 97q-77 -19 -162.5 -41.5t-171 -44t-167.5 -40.5t-152 -31q0 74 0.5 134t2.5 113q-11 -12 -21 -21q-39 -38 -78 -66t-80 -48t-85.5 -32.5t-93.5 -19.5q-61 -9 -118.5 -11t-111.5 10.5t-103 43.5t-92 89q-36 48 -47.5 97.5t-4.5 99.5t28.5 99.5t52.5 96.5
q35 54 85.5 93t114.5 74q68 37 141 53t141.5 16.5t129.5 -12t105 -30.5q2 -1 8 -3q88 13 163 23t148.5 18.5t151 17.5t170.5 20l26 -136q-142 -16 -265 -30.5t-229 -38.5q0 -23 -0.5 -42t-0.5 -36q2 -11 2 -21v-21q0 -13 -3 -28q1 -2 1 -6q57 11 104 17.5t95 12.5
t102.5 13.5t127.5 19.5l20 -133q-73 -12 -128.5 -20.5t-106 -16t-102 -16t-116.5 -20.5v-1q0 -8 0.5 -20.5t0.5 -27.5q1 -26 1.5 -58.5t-0.5 -67.5q49 9 106 21.5t118 27t124 30.5t123 31zM870 469q-1 24 -11.5 45t-28 38t-39.5 29.5t-45 21.5q-85 32 -177 24t-180 -52
q-38 -19 -76 -45t-64 -66q-23 -34 -39 -65.5t-22 -61.5t-0.5 -58t26.5 -55q31 -41 65 -61t72.5 -26t81 -2t91.5 11q41 6 82.5 20.5t81.5 37.5t76 55.5t66 74.5q18 26 30 58.5t10 76.5z" />
    <glyph glyph-name="Ydieresis" unicode="&#x178;" horiz-adv-x="606" 
d="M557 845q-4 -20 -19 -38.5t-20 -25.5q-14 -17 -35.5 -22.5t-43.5 -4.5q-26 1 -45 12.5t-29 31t-10 45.5t13 56q2 5 13.5 17.5t22.5 19.5q10 7 22 14t25.5 10.5t28 3t30.5 -7.5q34 -17 43 -48.5t4 -62.5zM252 911q11 -32 6 -65.5t-42 -75.5q-7 -9 -18 -14t-22.5 -7.5
t-21 -4t-14.5 -2.5q-20 -5 -35.5 2.5t-26 22t-16 34t-4.5 38.5q0 14 6 28.5t13.5 27.5t15 22t10.5 12q4 3 23 13t43 14t47.5 -4t35.5 -41zM603 675q-17 -58 -33 -103t-33 -85.5t-36.5 -81t-42.5 -90.5q-25 -53 -47.5 -96.5t-44.5 -86.5t-45.5 -90.5t-49.5 -109.5l-119 69
q20 40 37 72t32.5 61t29 58.5t26.5 65.5q-34 36 -67.5 72t-65.5 74q-35 42 -70 88.5t-73 109.5l116 78q61 -94 115 -163t108 -131q20 43 38.5 80.5t35.5 78.5t34.5 89.5t35.5 113.5z" />
    <glyph glyph-name="florin" unicode="&#x192;" horiz-adv-x="602" 
d="M598 316l-182 -13v-1q5 -39 4.5 -91.5t-12.5 -102t-37.5 -87t-71.5 -46.5q-35 -7 -70.5 -3t-71.5 16.5t-72 32t-71 44.5l42 132q62 -48 119.5 -71.5t93.5 -16.5q14 2 15 22.5t2 44.5q0 31 -3.5 61.5t-5.5 44.5q0 3 -0.5 5.5t-0.5 5.5l-171 -13l-6 160l138 9
q-12 38 -23 75.5t-18 76.5q-9 50 0 85.5t30 59.5t50.5 37t59.5 19q16 3 48 1t69.5 -9t75.5 -19t68 -30l-46 -117q-23 13 -50 22t-52.5 14t-46 6t-29.5 -1q-29 -5 -34 -23t3 -56q8 -34 17.5 -67t19.5 -65l215 13z" />
    <glyph glyph-name="circumflex" unicode="&#x2c6;" horiz-adv-x="521" 
d="M534 706l-63 -117q-19 11 -40 24.5t-40.5 28t-36.5 30t-29 30.5q-30 -14 -58 -31.5t-53.5 -37t-48 -39t-40.5 -37.5l-88 97q40 39 75 68.5t70.5 53t74.5 43.5t87 41q13 -12 37 -33.5t51.5 -44.5t54.5 -44t47 -32z" />
    <glyph glyph-name="breve" unicode="&#x2d8;" horiz-adv-x="1000" 
 />
    <glyph glyph-name="dotaccent" unicode="&#x2d9;" horiz-adv-x="1000" 
 />
    <glyph glyph-name="ring" unicode="&#x2da;" horiz-adv-x="455" 
d="M427 665q-9 -30 -25.5 -52t-52.5 -42q-44 -25 -92 -36t-114 -5q-56 5 -85.5 31.5t-34.5 61.5q-2 11 1.5 24.5t9.5 26t13.5 24.5t14.5 20q16 20 42 35t53 25t51 15t37 6q16 1 35 0.5t38.5 -3.5t38 -9t33.5 -16q26 -18 35.5 -48t1.5 -58zM291 677q0 12 -10.5 14t-21.5 2
q-26 0 -47 -7t-38 -23q-5 -5 -7.5 -10t-2.5 -6q0 -6 4 -8.5t10 -3t12.5 0t11.5 0.5q9 0 24.5 2t29.5 6.5t24.5 12.5t10.5 20z" />
    <glyph glyph-name="tilde" unicode="&#x2dc;" horiz-adv-x="628" 
d="M593 776q-18 -24 -27.5 -37.5t-18.5 -24.5t-19 -22t-21 -21q-23 -20 -50 -34t-62 -14q-31 0 -49.5 10.5t-31.5 27.5q-5 8 -10.5 15.5t-10.5 15.5q-4 6 -7.5 12t-8.5 11q-12 -3 -28.5 -12.5t-32.5 -24t-28.5 -31t-16.5 -32.5l-85 91q10 21 34 43.5t53.5 41.5t59 31
t50.5 12q35 0 55.5 -17.5t33.5 -36.5q6 -8 11 -16.5t9 -15.5q2 -2 1.5 -4.5t1.5 -2.5q17 0 41.5 23.5t50.5 54.5z" />
    <glyph glyph-name="pi" unicode="&#x3c0;" horiz-adv-x="760" 
d="M781 650q-39 0 -84 -2.5t-91 -7.5q-1 -7 -1.5 -13.5t-0.5 -12.5q-6 -78 -9.5 -142.5t-5 -127t-1.5 -127.5t2 -144q0 -11 0.5 -26t1 -30.5t1 -30.5t0.5 -27l-134 -4q0 28 -2 58t-2 53q-2 79 -1 144t3.5 127t6.5 127t8 146q0 10 1 15q-38 -5 -68 -9.5t-47 -6.5l11 -664
l-149 2l1 648q-27 -5 -80 -13.5t-128 -17.5q-5 22 -6 40t-1 35q1 8 1 15v14q0 6 -0.5 13.5t-2.5 26.5q120 15 222.5 28t194 23t177 16.5t171.5 8.5q2 -28 3 -43t1 -26t1.5 -23.5t6.5 -41.5z" />
    <glyph glyph-name="afii10023" unicode="&#x401;" horiz-adv-x="645" 
d="M441 1002q45 0 67 -49q4 -20 4 -26q0 -34 -45 -75q-18 -13 -43 -13h-15q-61 0 -73 58v15q0 65 97 90h8zM188 996h13q45 0 54 -66v-7q0 -44 -51 -81q-34 -13 -69 -13q-54 14 -54 70v7q0 34 48 75q36 15 59 15zM614 72q-75 -15 -142.5 -30.5t-132 -29.5t-129 -27
t-134.5 -25q0 110 2.5 197.5t4.5 164.5t2.5 150.5t-3.5 156.5q-6 -1 -14 -1h-16h-19q-2 26 -5 52q-2 22 -4 45t-4 40q67 7 121 12t100 8t86.5 5.5t81.5 4.5t84 3.5t95 2.5l17 -131q-71 -2 -121 -6t-92.5 -8t-82.5 -8t-91 -7q0 -48 -1.5 -86.5t0.5 -82.5q56 10 95.5 16
t73.5 9.5t68 6t78 7.5l20 -134q-46 -5 -81 -8.5t-71.5 -8.5t-80 -12t-106.5 -19v-4q0 -48 1.5 -94.5t0.5 -94.5q33 7 73.5 14.5t86.5 15t94.5 17t97.5 21.5z" />
    <glyph glyph-name="afii10017" unicode="&#x410;" horiz-adv-x="665" 
d="M656 -29q-20 -17 -29.5 -22.5t-21.5 -8.5q-8 -2 -25 -6t-59 -17q-20 83 -39.5 149.5t-34.5 117.5q-39 3 -70.5 4t-60.5 -0.5t-59.5 -7.5t-67.5 -16q-4 -11 -10 -27t-12.5 -39t-14.5 -55t-15 -75l-140 37q6 25 20 71t34 104t44.5 125.5t52.5 136t57.5 135.5t58.5 124.5
t56.5 102t51.5 68.5q17 -36 37 -86.5t40 -109t40 -121.5t38 -122.5t33.5 -113.5t26.5 -94q6 -25 14 -56.5t17 -65.5t18.5 -68t19.5 -64zM410 336q-17 58 -35 116t-37 114q-15 -32 -26.5 -60t-22.5 -56.5t-22.5 -59t-24.5 -67.5q49 5 89.5 8t78.5 5z" />
    <glyph glyph-name="afii10018" unicode="&#x411;" horiz-adv-x="695" 
d="M214 318q-3 -43 -3 -167h3q144 16 233 56q77 38 77 60q0 21 -47 46q-57 24 -127 24h-9q-102 -5 -127 -19zM91 653l-53 -6q-9 98 -8 142l525 35q8 -66 5 -130q-148 -10 -341 -30l-5 -206q402 35 451 -156v-15q0 -160 -224 -233q-68 -32 -271 -68l-86 -9q2 258 7 676z" />
    <glyph glyph-name="afii10019" unicode="&#x412;" horiz-adv-x="647" 
d="M644 296q1 -29 -6 -57.5t-21.5 -55t-35.5 -48t-47 -35.5q-43 -23 -88 -42t-100.5 -35t-125 -29t-160.5 -23q7 190 5.5 362.5t3.5 324.5q-7 1 -17 1.5t-36 0.5l21 136q65 -1 119.5 -1.5t106.5 -5.5t102 -15.5t95 -31.5q35 -17 58.5 -46t33.5 -64t4 -71t-30 -66
q-13 -16 -22 -26t-19 -18q33 -11 62 -28t50 -37t33.5 -43t13.5 -47zM399 610q-22 17 -76.5 28.5t-129.5 14.5q-5 -47 -4 -102t0 -99q75 17 126 34.5t80 46.5q12 12 20 20.5t9.5 17t-4 17.5t-21.5 22zM499 269q-8 19 -36 34.5t-70 23.5t-94 6t-109 -17q0 -45 -2 -83.5
t-2 -89.5q62 9 121.5 20.5t116.5 39.5q7 4 21.5 10.5t28 15t22 18.5t3.5 22z" />
    <glyph glyph-name="afii10020" unicode="&#x413;" horiz-adv-x="581" 
d="M554 681q-66 -6 -110 -9.5t-80 -6.5t-71 -5t-82 -5q-3 -18 -4 -42t-1 -51v-136.5t1.5 -186.5t1.5 -129q0 -60 -1 -122l-135 -15q-2 150 -2 281v113.5t0.5 109t1 94.5t2.5 69q-5 -1 -14 -2t-37 -6l-10 144q56 4 127 8.5t143.5 9t141.5 8.5t122 9q3 -35 7 -65.5t-1 -64.5z
" />
    <glyph glyph-name="afii10021" unicode="&#x414;" horiz-adv-x="783" 
d="M116 143q53 169 139 376q80 197 177 328h2q128 -300 183 -523q26 -110 45 -179q39 -1 80 -2q11 -133 5 -274l-139 13q9 53 0 127q-451 4 -451 -4q4 -53 10 -122q-87 -16 -131 -17q-7 156 2 266q24 6 78 11zM521 148l-19 61l-35 145q-38 127 -65 204q-50 -110 -107 -275
q-27 -78 -44 -135q110 2 270 0z" />
    <glyph glyph-name="afii10022" unicode="&#x415;" horiz-adv-x="642" 
d="M614 72q-75 -15 -142.5 -30.5t-132 -29.5t-129 -27t-134.5 -25q0 110 2.5 197.5t4.5 164.5t2.5 150.5t-3.5 156.5q-6 -1 -14 -1h-16h-19q-2 26 -5 52q-2 22 -4 45t-4 40q67 7 121 12t100 8t86.5 5.5t81.5 4.5t84 3.5t95 2.5l17 -131q-71 -2 -121 -6t-92.5 -8t-82.5 -8
t-91 -7q0 -48 -1.5 -86.5t0.5 -82.5q56 10 95.5 16t73.5 9.5t68 6t78 7.5l20 -134q-46 -5 -81 -8.5t-71.5 -8.5t-80 -12t-106.5 -19v-4q0 -48 1.5 -94.5t0.5 -94.5q33 7 73.5 14.5t86.5 15t94.5 17t97.5 21.5z" />
    <glyph glyph-name="afii10024" unicode="&#x416;" horiz-adv-x="1079" 
d="M466 424q-1 316 -1 355q14 2 145 18v-364q114 139 277 370h6l106 -104q-95 -124 -298 -378q128 -44 349 -138v-3q-65 -129 -65 -133q-9 0 -319 130q-5 0 -50 17v-3q0 -63 -6 -212l-142 -12v3q0 112 -1 209q-50 -26 -54 -27q-310 -198 -319 -201q0 5 -65 119v3
q221 143 349 216q-203 208 -299 311l106 128l7 1q161 -193 274 -305z" />
    <glyph glyph-name="afii10025" unicode="&#x417;" horiz-adv-x="630" 
d="M128 331l-12 119q75 4 191 57q54 36 52 73q-17 68 -146 67q-48 -4 -155 -25q-28 129 -28 139q315 58 409 -36q63 -63 63 -129v-21q0 -56 -71 -124q157 -63 157 -153v-15q0 -160 -225 -233q-68 -32 -216 -44l-85 -9l-9 145q228 21 316 61q77 38 77 60q0 21 -47 46
q-56 24 -127 24h-9z" />
    <glyph glyph-name="afii10026" unicode="&#x418;" horiz-adv-x="627" 
d="M599 417v-62q0 -234 -6 -330v-3q-89 27 -139 47q0 3 3 3q11 211 11 289v68h-2q-10 -14 -99 -129q-96 -125 -329 -370h-3q-6 252 -6 295q6 396 6 593v3q80 -8 136 -17l-1 -29q0 -81 -12 -420q3 -43 3 -77v-3q102 120 157 198l257 361h3q21 -198 21 -417z" />
    <glyph glyph-name="afii10027" unicode="&#x419;" horiz-adv-x="627" 
d="M599 417v-62q0 -234 -6 -330v-3q-89 27 -139 47q0 3 3 3q11 211 11 289v68h-2q-10 -14 -99 -129q-96 -125 -329 -370h-3q-6 252 -6 295q6 396 6 593v3q80 -8 136 -17l-1 -29q0 -81 -12 -420q3 -43 3 -77v-3q102 120 157 198l257 361h3q21 -198 21 -417zM560 1005
q2 -97 4 -129q-392 -29 -414 -29v1q-4 112 -4 132h1q385 25 413 25z" />
    <glyph glyph-name="afii10028" unicode="&#x41a;" horiz-adv-x="630" 
d="M650 165l-68 -135q-72 25 -161.5 66t-206.5 82q-1 -25 -2 -61.5t-2 -70.5q-2 -40 -3 -83l-141 -13l-3 815l143 17v-137v-59.5v-61t0.5 -58.5t0.5 -51q48 60 97.5 125.5t91.5 121.5q48 65 94 128l109 -105q-50 -64 -102 -130q-45 -57 -97.5 -123t-100.5 -126
q60 -23 108.5 -41.5t90 -35.5t78.5 -32.5t74 -31.5z" />
    <glyph glyph-name="afii10029" unicode="&#x41b;" horiz-adv-x="670" 
d="M374 828h3q127 -300 187 -541.5t76 -293.5q-19 -27 -127 -50v3q-26 102 -68 245l-35 144q-39 128 -65 204q-51 -110 -108 -275t-78 -274l-130 33q55 207 168 478q80 197 177 327z" />
    <glyph glyph-name="afii10030" unicode="&#x41c;" horiz-adv-x="841" 
d="M834 33q-11 -5 -29 -11.5t-38 -13.5t-39.5 -12.5t-31.5 -7.5q-20 142 -38 254t-37 210q-16 -30 -32.5 -60.5t-38.5 -68t-51 -85.5t-70 -113q-54 106 -96 185t-80 145q-11 -43 -19.5 -80t-16.5 -73t-16.5 -73.5t-18 -81.5t-21 -97.5t-26.5 -120.5q-41 20 -70 30.5
t-64 19.5q28 125 50.5 229t45 203.5t48.5 202.5t62 227q39 -80 72.5 -142t61.5 -113.5t51.5 -95.5t44.5 -88q49 74 84 133.5t65 112.5t59 102.5t67 103.5q19 -114 34 -219t29 -205t28 -198t31 -199z" />
    <glyph glyph-name="afii10031" unicode="&#x41d;" horiz-adv-x="630" 
d="M586 -15l-145 2q6 76 9 163.5t2 167.5q-27 -4 -64.5 -9.5t-75.5 -12t-72 -12t-55 -9.5q-4 -54 -2 -121t6 -155q-26 -9 -60 -19t-76 -15q-1 100 -1.5 184.5t0 164.5t2.5 163t6 181q36 7 68 14.5t70 11.5q0 -39 -1.5 -71t-3 -61t-3 -56.5t-1.5 -57.5q23 4 55.5 9t68.5 11
t72 11.5t65 9.5q-1 51 -1 92t-1 78.5t-3 73t-7 75.5q38 11 70 16.5t73 10.5q6 -94 8 -203t2 -220.5t-1.5 -219t-3.5 -197.5z" />
    <glyph glyph-name="afii10032" unicode="&#x41e;" 
d="M786 390q-8 -46 -18.5 -85.5t-27 -75t-40 -68.5t-57.5 -66q-42 -42 -86 -72.5t-93 -48.5t-105 -22.5t-122 6.5q-56 9 -95.5 36t-66 65.5t-40.5 85t-18 94.5q-3 28 2.5 63t16 72t24.5 73t28 65q31 63 80 113t100.5 85t98.5 54.5t74 22.5q33 4 71 2.5t75.5 -11.5t73 -30
t63.5 -53q22 -26 37.5 -62t23 -76.5t8 -83.5t-6.5 -83zM651 409q4 21 3 48t-6.5 54t-14 51t-17.5 38q-15 21 -40 31t-53.5 12t-57.5 -3t-52 -13q-41 -15 -70.5 -32t-53 -39.5t-42.5 -52t-40 -68.5q-9 -17 -18.5 -40t-17 -48t-12 -49.5t-2.5 -43.5q5 -66 36.5 -108.5
t96.5 -49.5q80 -8 146.5 21t123.5 98q22 26 36.5 47t24 42.5t16.5 46t14 58.5z" />
    <glyph glyph-name="afii10033" unicode="&#x41f;" horiz-adv-x="587" 
d="M549 813q9 -206 9 -375q0 -267 -6 -443h-142q9 81 6 647q-257 -20 -257 -29q0 -38 -3 -59q10 -483 10 -547q-89 -27 -133 -32v318q-4 326 5 445q104 39 511 75z" />
    <glyph glyph-name="afii10034" unicode="&#x420;" horiz-adv-x="636" 
d="M625 574q8 -32 7.5 -60.5t-7.5 -53.5t-19 -47t-25 -41q-26 -38 -69.5 -75t-89.5 -61q-28 -15 -52 -27.5t-48 -23.5t-48.5 -21t-54.5 -20q1 -27 1.5 -58.5t1.5 -58.5q1 -32 1 -64l-133 -15q0 137 -2 266q-1 55 -2 114t-2 115.5t-2 108.5t-2 93q-17 -2 -33 -3.5t-27 -3.5
l17 157q81 -3 160 -5t159 -20q43 -10 86 -24.5t80 -37.5t64.5 -56t38.5 -78zM493 529q-11 44 -52.5 67.5t-95.5 34.5q-32 7 -70.5 6.5t-70.5 1.5q1 -26 1.5 -56.5l1 -61t1 -58t1.5 -47.5q2 -23 2.5 -56.5t2.5 -61.5q37 14 61 23t43 17t37.5 17.5t45.5 24.5q18 9 36 26
t32.5 37t21.5 42.5t2 43.5z" />
    <glyph glyph-name="afii10035" unicode="&#x421;" horiz-adv-x="659" 
d="M625 485q-11 -8 -29.5 -15t-38.5 -12t-39.5 -7.5t-31.5 -2.5q-3 26 -6 54.5t-5.5 55t-5.5 50.5t-6 41q-22 0 -47.5 -6.5t-50.5 -18t-49 -27.5t-43 -35q-25 -25 -45 -58t-34 -71t-21.5 -80t-7.5 -85q0 -39 19.5 -69.5t52.5 -49t76 -24t89 6.5q30 8 76.5 26t96.5 50
l38 -141q-58 -33 -114 -52t-98 -29q-78 -20 -149.5 -5t-124 59.5t-79.5 116.5t-16 167q12 107 52.5 197t107.5 154q46 44 97.5 72t104 40t105 8t101.5 -25q6 -42 12 -116.5t13 -168.5z" />
    <glyph glyph-name="afii10036" unicode="&#x422;" horiz-adv-x="563" 
d="M573 687q-35 -3 -70 -6.5t-66.5 -7.5t-57 -7t-40.5 -5l6 -651q-14 -4 -23 -6.5t-15 -4l-10 -2.5l-8 -2t-10 -1.5t-16.5 -2t-26.5 -4t-40 -5.5l3 667q-22 -2 -66 -8t-117 -21q-6 24 -7.5 41.5t-2.5 31.5t-1.5 29.5t-3.5 38.5q75 13 147 21t141 14.5t135.5 13t129.5 17.5
q3 -22 5 -39.5t4 -33.5l4 -32t6 -35z" />
    <glyph glyph-name="afii10037" unicode="&#x423;" horiz-adv-x="606" 
d="M603 750q-17 -65 -33 -114.5t-33 -94.5t-36.5 -90t-42.5 -100q-25 -60 -47.5 -108t-44.5 -96t-45.5 -101t-49.5 -122l-119 77q20 45 37 80t32.5 67.5t29 65.5t26.5 73q-34 40 -67.5 79.5t-65.5 82.5q-35 46 -70 98t-73 122l116 87q61 -104 115 -181.5t108 -145.5
q20 48 38.5 89.5t35.5 87t34.5 99.5t35.5 126z" />
    <glyph glyph-name="afii10038" unicode="&#x424;" horiz-adv-x="1037" 
d="M580 654q0 -37 9 -337h3q277 91 277 215q0 52 -77 92q-60 30 -171 30h-41zM457 297q0 37 -8 337h-4q-277 -90 -277 -215q0 -52 77 -92q61 -30 171 -30h41zM572 805q220 5 342 -92q94 -73 94 -181q0 -133 -174 -256q-201 -112 -239 -112q3 -49 3 -74v-110q-13 0 -133 -14
l-2 187q-218 -12 -340 85q-94 74 -94 181q0 133 173 256q114 78 236 112l-3 106q13 0 137 15v-103z" />
    <glyph glyph-name="afii10039" unicode="&#x425;" horiz-adv-x="655" 
d="M699 748q-76 -110 -149.5 -203t-138.5 -178q20 -28 44.5 -56.5t51.5 -58.5q31 -35 62.5 -73t66.5 -86q-13 -17 -23 -30.5t-20.5 -26t-22.5 -26l-28 -31.5q-69 85 -126.5 150t-102.5 120q-35 -40 -61 -76t-50 -72q-27 -41 -56 -86.5t-76 -111.5l-94 113q60 85 120.5 176
t126.5 174q-23 34 -42.5 61t-42.5 56q-13 16 -27 33t-31.5 38t-38.5 47t-48 59l102 105q45 -56 78 -95.5t58.5 -71t46.5 -58.5t44 -58q70 84 139 179t135 190z" />
    <glyph glyph-name="afii10040" unicode="&#x426;" horiz-adv-x="650" 
d="M479 11l-450 -23v318q0 238 8 411q106 23 133 23q-13 -381 -7 -622l241 20q17 159 1 644q57 18 141 27q7 -176 9 -358q0 -173 -3 -305l69 3q-1 -66 -4 -239h-142q3 40 4 101z" />
    <glyph glyph-name="afii10041" unicode="&#x427;" horiz-adv-x="619" 
d="M582 834l-2 -148q3 -447 10 -692q-120 -4 -133 -6l-3 109q-1 25 2 194q-112 -5 -253 36q-163 52 -171 217q-3 107 3 258l136 4q-1 -189 0 -241q3 -123 278 -128h4q-3 257 -5 224l1 165z" />
    <glyph glyph-name="afii10042" unicode="&#x428;" horiz-adv-x="950" 
d="M396 116v180q0 238 8 411q105 23 133 23q-13 -381 -7 -622l241 19q17 159 0 645q58 18 142 27q7 -177 8 -358q0 -267 -7 -438l-518 -26v2q-140 -8 -367 -17v3q0 442 5 770q136 20 144 20l-19 -617q3 -14 3 -42q163 15 234 20z" />
    <glyph glyph-name="afii10043" unicode="&#x429;" horiz-adv-x="1016" 
d="M918 146l70 3q-2 -66 -5 -239h-141q3 40 4 101l-450 -23v2q-140 -8 -367 -17v3q0 442 5 770q136 20 144 19l-19 -617q3 -14 3 -42q163 15 234 20v180q0 238 8 411q105 23 133 23q-13 -381 -7 -622l241 20q17 159 0 644q58 18 142 27q7 -176 8 -358q0 -173 -3 -305z" />
    <glyph glyph-name="afii10044" unicode="&#x42a;" horiz-adv-x="773" 
d="M292 318q-2 -43 -3 -167h3q145 16 233 56q77 38 77 60q0 21 -47 46q-56 24 -127 24h-9q-102 -5 -127 -19zM170 653l-132 -17q-9 98 -8 143l271 27l-9 -348q403 35 452 -156v-15q0 -160 -225 -233q-68 -32 -271 -68l-85 -9q2 258 7 676z" />
    <glyph glyph-name="afii10045" unicode="&#x42b;" horiz-adv-x="835" 
d="M158 318q-2 -43 -2 -167h2q145 16 234 56q76 38 76 60q0 21 -46 46q-57 24 -128 24h-8q-102 -5 -128 -19zM33 772l135 32l-10 -346q403 35 452 -156v-15q0 -160 -224 -233q-68 -32 -271 -68l-86 -9q2 258 4 795zM807 813q-18 -646 -15 -821q-75 -18 -136 -9v3
q0 442 6 794q119 33 145 33z" />
    <glyph glyph-name="afii10046" unicode="&#x42c;" horiz-adv-x="640" 
d="M158 318q-2 -43 -2 -167h2q145 16 234 56q76 38 76 60q0 21 -46 46q-57 24 -128 24h-8q-102 -5 -128 -19zM33 772l135 32l-10 -346q403 35 452 -156v-15q0 -160 -224 -233q-68 -32 -271 -68l-86 -9q2 258 4 795z" />
    <glyph glyph-name="afii10047" unicode="&#x42d;" horiz-adv-x="645" 
d="M455 458q-53 130 -146 161q-80 24 -124 16l-16 -115v-3q-67 -12 -139 11q1 53 16 203q73 40 127 49q203 37 352 -144q91 -142 91 -279v-38q0 -61 -29 -129q-82 -171 -261 -203q-106 -19 -288 40l-3 -1q29 120 38 149q146 -57 230 -41l23 4q154 57 154 166v21
q-131 -20 -289 -16l-3 141q141 -1 267 8z" />
    <glyph glyph-name="afii10048" unicode="&#x42e;" horiz-adv-x="1063" 
d="M400 286q6 -123 94 -160q38 -9 77 -9q157 0 272 177q50 91 50 160v27q0 74 -41 147q-40 35 -101 35q-138 0 -245 -115q-106 -158 -106 -262zM258 295q-69 -11 -99 -22q-2 -151 3 -266q-88 -26 -133 -32v319q0 238 12 443q106 23 133 23v-9q-9 -284 -9 -307v-6l132 14
q20 53 50 114q101 137 192 180q96 65 191 65q171 0 254 -124q48 -81 48 -183v-6q0 -3 2 -3l-2 -6v-15q0 -140 -80 -277q-167 -224 -384 -224q-218 0 -284 171q-26 81 -26 136v15z" />
    <glyph glyph-name="afii10049" unicode="&#x42f;" horiz-adv-x="704" 
d="M675 665q-40 3 -59 3h-9l4 -342q3 -244 -4 -363h-32q-60 0 -98 12l3 14l-2 110q0 14 -3 44l-21 -3q-190 -44 -373 -112h-3q-33 46 -49 148q298 76 306 76l-45 30q-246 127 -248 277q-1 35 13 77q66 171 491 171h113q0 -24 16 -142zM313 651q-129 -27 -129 -95
q0 -89 286 -215v71q0 93 3 251q-108 -4 -160 -12z" />
    <glyph glyph-name="afii10065" unicode="&#x430;" horiz-adv-x="858" 
d="M880 9q-19 -21 -32 -32.5t-26 -20t-29.5 -16t-41.5 -19.5q-19 34 -38 73.5t-37 79t-34 76t-28 63.5q-59 -8 -106 -13t-92 -8t-92 -4t-106 -1q-10 -17 -28.5 -50.5t-38.5 -69.5t-38 -68t-26 -47l-122 64q59 110 115.5 215t115.5 208q60 103 124 205.5t142 211.5
q36 -67 71.5 -137t69 -139t64 -136t57.5 -127q11 -24 31 -64.5t42.5 -84.5t44.5 -87t38 -72zM550 364q-29 59 -55.5 106.5t-55.5 101.5q-33 -46 -50 -73t-29 -49q-11 -22 -22.5 -44.5t-31.5 -57.5q74 -2 136.5 3t107.5 13z" />
    <glyph glyph-name="afii10066" unicode="&#x431;" horiz-adv-x="827" 
d="M211 320q3 -129 3 -203v-2q228 33 336 73q109 42 109 84q0 56 -268 68q-96 0 -180 -20zM209 639q-3 -50 -3 -114v-66q378 46 521 -51q71 -56 71 -103q0 -189 -291 -276q-56 -29 -303 -64l-127 -15q8 269 8 615q2 39 2 53l-48 -12q-2 5 -2 7q0 44 -8 145q131 25 637 63
q10 -68 8 -100q0 -7 -3 -38q-309 -17 -462 -44z" />
    <glyph glyph-name="afii10067" unicode="&#x432;" horiz-adv-x="788" 
d="M776 308q1 -29 -6.5 -57.5t-22 -54t-35 -47t-44.5 -36.5q-62 -39 -130 -65t-143 -43t-157 -28t-172 -21q6 187 5.5 349t3.5 311q-3 0 -11 -2.5t-16 -4.5q-10 -4 -21 -7l-8 150q56 14 121.5 26t134 18t137 4.5t131.5 -13.5q57 -11 82 -42t28.5 -69t-10.5 -76.5t-35 -64.5
q-28 -34 -67 -67q49 -7 91.5 -23.5t74 -38.5t50 -47.5t19.5 -50.5zM503 655q-51 12 -94.5 14t-81.5 -1q-36 -3 -68 -9t-62 -13q-5 -46 -4.5 -96t0.5 -93q39 9 78 19.5t76.5 25.5t73 34.5t67.5 45.5q8 7 18.5 17.5t16.5 21t2.5 20t-22.5 14.5zM639 281q-6 12 -29.5 23t-59 19
t-80 12.5t-91.5 4.5t-94 -4.5t-87 -14.5v-98.5t1 -105.5l104.5 16.5t90.5 16.5q10 2 34 8t53.5 15t60.5 21t55 26t36.5 29.5t5.5 31.5z" />
    <glyph glyph-name="afii10068" unicode="&#x433;" horiz-adv-x="657" 
d="M641 653q-66 -6 -120 -9t-101 -6t-91.5 -8t-90.5 -15q-7 -35 -9.5 -82t-2.5 -167.5t0.5 -177.5t1.5 -110q1 -62 1 -127l-135 -15q-1 61 -2 120q-1 51 -1 105.5t1 136.5t2.5 167t6.5 130q-10 -2 -25 -6t-49 -14l-26 160q33 7 83 14t108.5 13.5t122 12.5t123 11t111 9.5
t86.5 7.5q4 -38 8 -75.5t-2 -74.5z" />
    <glyph glyph-name="afii10069" unicode="&#x434;" horiz-adv-x="869" 
d="M282 146q175 4 295 4q-22 47 -55 156q-40 127 -65 200q-7 -7 -57 -121zM121 141q133 245 248 530q43 107 73 189q103 -166 162 -354q35 -88 132 -359q61 -4 86 -10q9 -110 2 -266q-44 1 -131 16q6 68 10 121q0 9 -522 -2q-8 -75 0 -127l-139 -15q-6 141 5 274q38 1 74 3z
" />
    <glyph glyph-name="afii10070" unicode="&#x435;" horiz-adv-x="737" 
d="M717 97q-77 -19 -162.5 -41.5t-171 -44t-167.5 -40.5t-152 -31q0 110 2 192.5t3.5 154t1.5 139.5t-4 150q-6 -1 -14.5 -1h-16.5h-18q-2 26 -5 52q-2 22 -4 44.5t-4 39.5q95 14 174.5 24.5t156.5 20t157.5 18.5t177.5 21l26 -136q-142 -16 -265 -30.5t-229 -38.5
q0 -23 -0.5 -42t-1 -37t-0.5 -36t1 -39q57 11 104 17.5t95 12.5t102.5 13.5t127.5 19.5l20 -133q-73 -12 -128.5 -20.5t-106 -16t-102 -16t-116.5 -20.5v-1q0 -8 0.5 -20.5t0.5 -27.5q1 -26 1.5 -58.5t0.5 -67.5q49 9 106 21.5t117.5 27t123.5 30.5t123 31z" />
    <glyph glyph-name="afii10072" unicode="&#x436;" horiz-adv-x="1387" 
d="M619 398l-6 361q28 3 151 8q-4 -223 -4 -372q148 130 382 354q110 -88 124 -104l-398 -339q132 -18 499 -55v-3q-33 -150 -33 -154q-205 25 -567 73v-175q-68 -5 -141 -15l-3 190q-358 -97 -562 -150q0 5 -39 149v3q364 88 496 123l-411 283q13 18 120 122
q239 -190 392 -299z" />
    <glyph glyph-name="afii10073" unicode="&#x437;" horiz-adv-x="764" 
d="M133 317l-5 138q141 31 238 84q96 61 99 91q-2 46 -149 41h-3q-73 0 -278 -57q-9 53 -10 151q142 40 296 40q217 0 258 -74q18 -35 18 -71q0 -97 -114 -194q75 -7 167 -61q71 -56 71 -104q0 -188 -292 -276q-55 -28 -359 -58l-6 143q300 34 409 75q109 42 109 83
q0 56 -269 68q-96 0 -180 -19z" />
    <glyph glyph-name="afii10074" unicode="&#x438;" horiz-adv-x="832" 
d="M804 210l-6 -190q-13 -4 -52 -4h-3q-49 0 -89 17q10 150 10 269q0 86 -7 177l-626 -555q-2 319 -2 486v415q38 -2 40 -5q102 -16 102 -25v-83q0 -151 2 -441v-2q299 283 613 569q12 -281 18 -628z" />
    <glyph glyph-name="afii10075" unicode="&#x439;" horiz-adv-x="832" 
d="M804 210l-6 -190q-13 -4 -52 -4h-3q-49 0 -89 17q10 150 10 269q0 86 -7 177l-626 -555q-2 319 -2 486v415q38 -2 40 -5q102 -16 102 -25v-83q0 -151 2 -441v-2q299 283 613 569q12 -281 18 -628zM688 1009q2 -108 4 -143q-433 -32 -458 -32v2q-5 124 -5 145h2
q427 28 457 28z" />
    <glyph glyph-name="afii10076" unicode="&#x43a;" horiz-adv-x="767" 
d="M802 241l-33 -152q-61 7 -132.5 16t-146 18.5t-147 19.5t-134.5 18q-1 -21 -0.5 -50.5t0.5 -56.5v-65l-138 -15l-13 771l149 7q-2 -72 -3 -141q-1 -59 -2 -121.5t0 -106.5q29 26 61 55t64 58.5t63.5 58.5t59.5 56q66 62 131 124l123 -102q-68 -58 -138 -117
q-30 -25 -62.5 -53t-66.5 -56.5t-67 -56.5t-63 -53q124 -17 250 -29.5t245 -26.5z" />
    <glyph glyph-name="afii10077" unicode="&#x43b;" horiz-adv-x="782" 
d="M164 -74l-120 74q190 356 312 658q42 107 73 190q103 -166 162 -355q35 -89 114 -317q4 -2 52 -126q-27 -26 -127 -73q-82 189 -121.5 316t-64.5 200q-7 -7 -57 -120z" />
    <glyph glyph-name="afii10078" unicode="&#x43c;" horiz-adv-x="972" 
d="M955 47q-20 -14 -33 -19t-25 -8t-26.5 -5.5l-43.5 -7.5q-29 117 -53 219t-46 209q-25 -53 -45.5 -94t-38 -77t-34 -70t-35 -73.5t-39.5 -88t-48 -112.5q-51 123 -110.5 252.5t-109.5 263.5q-16 -41 -28.5 -74t-23.5 -64t-22 -63t-22.5 -70.5t-25.5 -86.5t-32 -111
q-20 10 -35.5 17.5t-29.5 13t-28 10t-31 8.5q25 83 47.5 155.5t44 138t42.5 128.5t44 127.5t49.5 134t57.5 149.5q31 -83 58.5 -157.5t53 -144.5t51 -136t53.5 -132q36 79 71 149.5t71 139.5t73 142t75 159q28 -114 50.5 -220t43 -206.5t40 -198.5t40.5 -197z" />
    <glyph glyph-name="afii10079" unicode="&#x43d;" horiz-adv-x="816" 
d="M777 348l-37 -6q0 -26 1.5 -69t2 -92t0.5 -97t-2 -84l-139 5q6 75 5.5 155t-1.5 158q-59 -9 -111.5 -17t-102 -15.5t-98.5 -16t-101 -18.5q-4 -54 -1 -121.5t5 -155.5q-18 -6 -31 -11.5t-25 -10.5q-13 -5 -30 -10.5t-47 -11.5q-4 100 -5 193t0.5 184t5 183t8.5 191
q42 10 75.5 18.5t59.5 14.5q-2 -34 -4 -74.5t-3.5 -82.5t-2.5 -81.5t-1 -71.5q91 17 194 31t213 34q-2 50 -2 91.5t-2 77.5q-1 38 -4 72.5t-11 76.5q13 4 21 6t13 3.5t9 2.5t9 2q8 2 27 4t66 7q3 -38 5 -72.5t2.5 -71.5t1 -80.5t2.5 -98.5q4 -1 10 -1.5t25 -1.5v-138z" />
    <glyph glyph-name="afii10080" unicode="&#x43e;" horiz-adv-x="1007" 
d="M993 470q-2 -39 -14 -79t-33 -79.5t-49 -76.5t-62 -69q-39 -38 -78 -66t-80 -48t-85.5 -32.5t-93.5 -19.5q-61 -9 -118.5 -11t-111.5 10.5t-103 43.5t-92 89q-36 48 -47.5 97.5t-4.5 99.5t28.5 99.5t52.5 96.5q35 54 85.5 93t114.5 74q68 37 141 53t141.5 16.5t129.5 -12
t105 -30.5q33 -14 65 -38t57 -56t39.5 -71.5t12.5 -83.5zM850 469q-1 24 -11.5 45t-28 38t-39.5 29.5t-45 21.5q-85 32 -177 24t-180 -52q-38 -19 -76 -45t-64 -66q-23 -34 -39 -65.5t-22 -61.5t-0.5 -58t26.5 -55q31 -41 65 -61t72.5 -26t81 -2t91.5 11q41 6 82.5 20.5
t81.5 37.5t76 55.5t66 74.5q18 26 30 58.5t10 76.5z" />
    <glyph glyph-name="afii10081" unicode="&#x43f;" horiz-adv-x="787" 
d="M712 835q8 -115 10.5 -352t2.5 -412q0 -12 -2 -58q-45 0 -142 5q5 77 5 139v496l-418 -69l-2 -359q2 -106 2 -240q-68 -31 -131 -43v2q-6 76 -6 208v71q0 5 -2 10q2 4 2 10v40q0 153 13 418z" />
    <glyph glyph-name="afii10082" unicode="&#x440;" horiz-adv-x="762" 
d="M728 629q25 -61 17.5 -117.5t-57.5 -123.5q-21 -28 -59 -56t-80.5 -51.5t-83.5 -40.5t-68 -23q-48 -12 -94 -25.5t-94 -25.5q1 -27 1.5 -58.5t1.5 -59.5q1 -33 1 -65l-133 -15q-2 122 -4 239q-1 50 -2 103.5t-2.5 106.5t-3 102t-2.5 90q-8 -2 -18.5 -4t-19.5 -5
q-11 -4 -22 -7l7 154q42 5 81 10t78 9t80 5.5t86 -0.5q64 -3 126 -8.5t114.5 -20.5t92 -41.5t57.5 -71.5zM603 571q-27 37 -96 49q-31 6 -70.5 9.5t-81 5t-81.5 0.5t-71 -5q2 -47 -1 -96t-1 -90q1 -12 1.5 -28.5t1 -34l1 -35t0.5 -32.5q42 7 76 13.5t63 14t55.5 17
t54.5 21.5q49 22 82.5 49.5t51.5 54t21.5 50t-6.5 37.5z" />
    <glyph glyph-name="afii10083" unicode="&#x441;" horiz-adv-x="838" 
d="M641 792q34 1 61 -2q8 -47 18 -277q-69 -38 -144 -38v60q0 63 -8 102q-187 -34 -284 -112q-116 -123 -116 -247v-19q0 -2 -2 -2q0 -85 96 -124q32 -10 78 -12q124 0 383 167l86 -112v-2q-96 -72 -185 -114q-189 -89 -307 -89h-4q-184 0 -261 165q-23 60 -23 109v25
q0 222 195 387q145 101 334 127q35 5 83 8z" />
    <glyph glyph-name="afii10084" unicode="&#x442;" horiz-adv-x="760" 
d="M781 650q-53 0 -107 -3.5t-102.5 -9t-86.5 -10.5t-57 -8l11 -664l-149 2l1 648q-19 -3 -49.5 -8t-68 -10.5t-79 -11.5t-81.5 -11q-8 35 -6.5 71.5t-2.5 72.5q120 15 222.5 28t194 23t177 16.5t171.5 8.5q3 -34 4 -67t8 -67z" />
    <glyph glyph-name="afii10085" unicode="&#x443;" horiz-adv-x="722" 
d="M765 754q-61 -121 -128.5 -225t-139.5 -205t-144 -199.5t-140 -199.5l-32 -48l-117 88q38 51 69.5 90t60.5 77q53 69 92 131q-36 39 -72.5 78.5t-74.5 82.5t-78 91.5t-83 106.5l114 94q39 -50 74.5 -92t69 -82l67 -80t69.5 -84q70 99 146.5 215.5t143.5 250.5z" />
    <glyph glyph-name="afii10086" unicode="&#x444;" horiz-adv-x="1183" 
d="M640 646l3 -12q-3 -85 -3 -119q0 -9 -2 -13q2 -14 2 -20q0 -22 3 -155h3q134 22 215 51q154 85 154 181v2q0 49 -96 71q-57 19 -175 19q-28 0 -104 -5zM510 315l-3 13q3 85 3 119q0 8 3 13q-3 14 -3 20q0 22 -3 155h-2q-135 -22 -208 -52q-129 -75 -133 -178v-2
q0 -49 74 -75q50 -17 168 -17q29 0 104 4zM729 791q324 -2 395 -123q31 -59 31 -112v-13q0 -83 -91 -177q-129 -114 -320 -162l-96 -29q3 -79 3 -119v-65q-131 -15 -134 -15l3 191q2 4 -98 4q-295 4 -367 125q-30 59 -30 111v13q0 84 91 177q106 111 290 161q222 33 323 33z
" />
    <glyph glyph-name="afii10087" unicode="&#x445;" horiz-adv-x="724" 
d="M752 747q-84 -109 -166 -202t-154 -178q23 -28 50.5 -57t58.5 -61q34 -35 69 -72.5t73 -83.5q-26 -32 -36 -43.5t-15 -17.5l-13.5 -13.5t-31.5 -30.5q-74 84 -139 149t-115 122q-42 -42 -73 -80t-58 -76q-31 -41 -62 -85.5t-79 -104.5l-94 103q66 84 133 175.5t141 174.5
q-26 35 -48 62.5t-48 56.5q-14 16 -30 33t-35 37.5t-42 46t-52 57.5l103 97q49 -55 85 -94t64.5 -70.5t53 -59.5t50.5 -60q80 85 158 181.5t148 187.5z" />
    <glyph glyph-name="afii10088" unicode="&#x446;" horiz-adv-x="835" 
d="M661 25q-147 -10 -629 -52v2q-5 76 -4 194v70q0 6 -2 10q2 5 2 10v41q0 152 13 418l140 35q-11 -167 -10 -611l418 36q-7 538 -27 639q47 18 149 25q8 -116 11 -353q2 -197 3 -344l78 4q-1 -66 -4 -239h-142q3 45 4 115z" />
    <glyph glyph-name="afii10089" unicode="&#x447;" horiz-adv-x="692" 
d="M504 367q6 135 -9 410q132 14 148 11q-3 -239 1 -427l3 -186q3 -79 3 -119v-65q-130 -15 -134 -15l-2 243q3 4 -98 4q-295 3 -366 125q-31 58 -31 111l-5 274l145 10v-289q0 -48 74 -74q49 -18 168 -18q28 0 103 5z" />
    <glyph glyph-name="afii10090" unicode="&#x448;" horiz-adv-x="1171" 
d="M648 141l347 8q-6 538 -26 638q47 19 149 26q7 -116 9.5 -353t4.5 -403q0 -11 -3 -58q-44 0 -1097 -37v3q-5 76 -4 193v71q0 5 -2 10q2 4 2 10v40q0 153 13 418l140 35q-11 -166 -10 -611l336 7l20 296v43q-5 250 -5 304q30 0 136 5q6 -178 6 -220q0 -167 -16 -425z" />
    <glyph glyph-name="afii10091" unicode="&#x449;" horiz-adv-x="1244" 
d="M507 149l20 296v43q-5 250 -5 303q30 0 136 6q6 -179 6 -221q0 -167 -16 -424l347 7q-6 538 -26 639q47 18 149 25q7 -115 10 -352q1 -185 3 -326l82 4q-2 -66 -5 -239h-141q3 39 3 98q-197 -5 -1038 -35v2q-5 76 -4 194v70q0 6 -2 10q2 5 2 10v41q0 152 13 418l140 35
q-11 -167 -10 -611z" />
    <glyph glyph-name="afii10092" unicode="&#x44a;" horiz-adv-x="929" 
d="M302 320q2 -129 2 -203v-2q228 33 337 73q109 42 109 84q0 56 -269 68q-96 0 -179 -20zM304 785q-8 -196 -8 -260v-66q378 46 522 -51q71 -56 71 -103q0 -189 -292 -276q-55 -29 -303 -64l-127 -15q8 269 8 615q2 39 2 53l-142 -22q-2 5 -2 8q0 43 -8 144q225 35 279 37z
" />
    <glyph glyph-name="afii10093" unicode="&#x44b;" horiz-adv-x="1050" 
d="M210 320q3 -129 3 -203v-2q228 33 336 73q109 42 109 84q0 56 -268 68q-96 0 -180 -20zM207 785q-2 -196 -2 -260v-66q378 46 521 -51q71 -56 71 -103q0 -189 -291 -276q-56 -29 -303 -64l-127 -15q8 269 8 615q2 39 1 200q74 18 122 20zM877 802q91 -8 142 -8
q-18 -44 -34 -463v-43q6 -250 6 -304q-30 0 -137 -5q-5 179 -5 220q0 184 28 603z" />
    <glyph glyph-name="afii10094" unicode="&#x44c;" horiz-adv-x="827" 
d="M210 320q3 -129 3 -203v-2q228 33 336 73q109 42 109 84q0 56 -268 68q-96 0 -180 -20zM207 785q-2 -196 -2 -260v-66q378 46 521 -51q71 -56 71 -103q0 -189 -291 -276q-56 -29 -303 -64l-127 -15q8 269 8 615q2 39 1 200q74 18 122 20z" />
    <glyph glyph-name="afii10095" unicode="&#x44d;" horiz-adv-x="838" 
d="M645 450q-29 59 -92 107q-96 48 -283 24q-8 -41 -8 -103v-61q-75 -23 -144 -6q10 234 18 283q27 11 61 20q48 12 83 17q189 32 334 -24q195 -106 195 -328v-25q0 -49 -23 -116q-77 -188 -261 -244l-4 -1q-118 -37 -307 -6q-89 16 -185 58v3l86 137q259 -88 383 -50
q45 16 78 36q80 57 91 139q-166 -21 -329 -47q18 108 20 140z" />
    <glyph glyph-name="afii10096" unicode="&#x44e;" horiz-adv-x="1257" 
d="M460 303q0 -79 88 -147q39 -25 89 -25h11q245 0 372 195q40 61 40 139q0 104 -147 151q-36 13 -85 13q-157 0 -292 -134q-76 -118 -76 -192zM310 293q-76 -13 -142 -27l-2 -41q2 -106 2 -240q-68 -31 -131 -43v2q-6 76 -6 208v71q0 5 -2 10q2 4 2 10v40q0 153 13 418
l140 35q-11 -166 -13 -313l178 30q28 59 74 123q181 190 418 190q192 0 304 -114l34 -51q30 -63 30 -106v-30q0 -144 -159 -319q-127 -124 -267 -147q-57 -13 -153 -18q-207 0 -301 208q-19 53 -19 101v3z" />
    <glyph glyph-name="afii10097" unicode="&#x44f;" horiz-adv-x="874" 
d="M818 802q1 -40 0 -148l-37 2q-2 -342 6 -658q-88 -5 -132 3l-5 112q-380 -68 -582 -116q-23 77 -39 144q146 34 460 86q-188 67 -307 147q-105 84 -110 199q-4 102 101 151q164 62 397 72q112 10 248 6zM483 644l-39 -4q-221 -34 -219 -81q1 -41 92 -104
q232 -110 324 -133q-4 239 -2 333q-106 -7 -156 -11z" />
    <glyph glyph-name="afii10071" unicode="&#x451;" horiz-adv-x="769" 
d="M495 1004q51 0 75 -55q4 -23 4 -29q0 -39 -50 -84q-21 -15 -48 -15h-17q-67 0 -82 66v16q0 73 109 101h9zM213 997h14q50 0 60 -75v-7q0 -50 -57 -91q-38 -14 -77 -14q-60 16 -60 78v7q0 39 53 85q40 17 67 17zM717 97q-77 -19 -162.5 -41.5t-171 -44t-167.5 -40.5
t-152 -31q0 110 2 192.5t3.5 154t1.5 139.5t-4 150q-6 -1 -14.5 -1h-16.5h-18q-2 26 -5 52q-2 22 -4 44.5t-4 39.5q95 14 174.5 24.5t156.5 20t157.5 18.5t177.5 21l26 -136q-142 -16 -265 -30.5t-229 -38.5q0 -23 -0.5 -42t-1 -37t-0.5 -36t1 -39q57 11 104 17.5t95 12.5
t102.5 13.5t127.5 19.5l20 -133q-73 -12 -128.5 -20.5t-106 -16t-102 -16t-116.5 -20.5v-1q0 -8 0.5 -20.5t0.5 -27.5q1 -26 1.5 -58.5t0.5 -67.5q49 9 106 21.5t117.5 27t123.5 30.5t123 31z" />
    <glyph glyph-name="uni0496" unicode="&#x496;" horiz-adv-x="1131" 
d="M467 185q-50 -27 -54 -29q-310 -198 -319 -200q0 5 -65 119v3q221 143 349 215q-203 209 -299 312l106 127l7 1q161 -193 274 -305q-1 316 -1 355q14 3 145 18v-363q114 138 277 369h6l106 -103q-95 -125 -298 -378q128 -44 349 -139v-3q-6 -11 -11 -21l63 3
q-1 -66 -4 -239h-141q3 50 4 133q-65 25 -295 122q-5 0 -50 17v-3q0 -63 -6 -213l-142 -11v3q0 113 -1 210z" />
    <glyph glyph-name="uni0497" unicode="&#x497;" horiz-adv-x="1424" 
d="M623 167q-358 -97 -562 -150q0 5 -39 149v3q364 88 496 123l-411 283q13 18 120 122q239 -190 392 -299l-6 361q28 3 151 8q-4 -223 -4 -372q148 130 382 354q110 -88 124 -104l-398 -339q132 -18 499 -55v-3q-3 -16 -7 -30l47 3q-1 -66 -4 -239h-142q4 46 4 120
q-193 25 -498 65v-175q-68 -5 -141 -15z" />
    <glyph glyph-name="uni04A2" unicode="&#x4a2;" horiz-adv-x="662" 
d="M479 8h-72q9 81 9 322q-257 -35 -257 -44q0 -39 -3 -59q6 -143 6 -207q-88 -27 -133 -32v318q0 238 9 358q105 23 133 23v-9q-6 -198 -6 -221v-6q244 35 251 41q0 220 -12 307q57 18 142 27q9 -206 9 -375q0 -171 -2 -305l68 3q-1 -66 -4 -239h-142q3 39 4 98z" />
    <glyph glyph-name="uni04A3" unicode="&#x4a3;" horiz-adv-x="835" 
d="M662 20q-34 2 -81 4q5 78 5 139v178q-310 -46 -418 -69l-2 -40q2 -107 2 -241q-68 -31 -131 -43v3q-6 76 -6 208v70q0 6 -2 10q2 5 2 10v41q0 152 13 418l140 35q-11 -167 -13 -314l412 66q0 221 -20 322q47 18 149 25q8 -116 11 -330l35 1v-142q-28 -5 -38 -5
q4 -91 5 -221l79 4q-1 -66 -4 -239h-142q3 43 4 110z" />
    <glyph glyph-name="uni04AE" unicode="&#x4ae;" horiz-adv-x="640" 
d="M498 807l112 -77q-51 -191 -184 -456q-13 -141 -1 -304l-133 37q11 106 2 281q-198 225 -265 366q3 0 112 82h3q81 -148 213 -313q82 177 127 346q10 38 14 38z" />
    <glyph glyph-name="uni04AF" unicode="&#x4af;" horiz-adv-x="855" 
d="M720 845h3q84 -70 103 -92q-79 -163 -321 -502q-13 -159 -12 -285l-142 -21q4 154 3 304q-238 250 -325 372l114 94h3q280 -338 283 -339h3q202 300 202 312q57 94 86 157z" />
    <glyph glyph-name="uni04BA" unicode="&#x4ba;" horiz-adv-x="619" 
d="M38 -18l3 149q-4 447 -11 692q121 4 134 6l3 -109q0 -25 -2 -194q112 5 252 -36q163 -52 171 -218q3 -106 -3 -257l-136 -4q2 189 1 240q-4 124 -279 129h-3q2 -258 4 -224l-1 -165z" />
    <glyph glyph-name="uni04BB" unicode="&#x4bb;" horiz-adv-x="693" 
d="M163 347q-5 -135 9 -367q-132 -14 -147 -11q3 239 -2 427l-3 186q-3 79 -3 119v65q131 15 134 15l3 -286q-3 -4 97 -4q295 -3 367 -124q30 -59 30 -112l5 -231l-145 -10l1 246q0 49 -74 74q-50 18 -168 18q-29 0 -104 -5z" />
    <glyph glyph-name="uni04D8" unicode="&#x4d8;" horiz-adv-x="812" 
d="M637 293l-455 -33v-26l-3 -22q131 -103 287 -57q22 6 59 22q87 53 112 116zM632 441q-26 88 -104 151q-122 62 -207 37l-26 -8q-17 -5 -27 -146l-3 -2q-73 -21 -139 -2q0 3 3 4q0 68 33 228q0 25 121 68q114 33 257 -8q242 -110 242 -371v-12q0 -48 -18 -103
q-74 -204 -290 -268q-256 -75 -445 123q-1 75 35 244v3q436 48 568 62z" />
    <glyph glyph-name="afii10846" unicode="&#x4d9;" horiz-adv-x="913" 
d="M732 307l-522 -29l-2 -1q14 -54 76 -92q138 -59 250 -26l31 8q43 13 91 47q51 44 76 93zM748 462q-23 90 -125 153q-118 42 -288 -8q-70 -20 -148 -63h-2l-23 135q96 61 188 87q230 67 382 -19q164 -130 164 -326q0 -62 -20 -128q-83 -211 -301 -274l-10 -3
q-59 -17 -114 -20q-208 -8 -316 75q-94 56 -94 320v2q338 49 707 69z" />
    <glyph glyph-name="uni04E8" unicode="&#x4e8;" horiz-adv-x="834" 
d="M171 294v-8q6 -123 94 -160q38 -9 77 -9q157 0 272 177q11 20 20 39zM664 478v3q0 74 -41 147q-40 35 -101 35q-138 0 -245 -115q-41 -60 -66 -113q225 20 453 43zM501 811q171 0 254 -124q47 -81 47 -183v-6q0 -3 3 -3l-3 -6v-15q0 -140 -79 -277q-167 -224 -384 -224
q-219 0 -284 171q-26 81 -26 136q0 105 88 286q102 137 193 180q96 65 191 65z" />
    <glyph glyph-name="uni04E9" unicode="&#x4e9;" horiz-adv-x="1045" 
d="M872 472q-5 99 -170 145q-42 12 -98 12q-182 0 -337 -134q-28 -36 -47 -69q324 21 652 46zM179 286q10 -69 101 -130q46 -25 103 -25h13q282 0 429 194zM611 766q213 0 334 -114l38 -51q33 -62 33 -106v-30q0 -144 -174 -319q-140 -124 -294 -147q-63 -12 -167 -18
q-228 0 -331 208q-21 53 -21 101q0 131 124 286q198 190 458 190z" />
    <glyph glyph-name="endash" unicode="&#x2013;" horiz-adv-x="592" 
d="M546 288l-492 -36l-7 160l495 31z" />
    <glyph glyph-name="emdash" unicode="&#x2014;" horiz-adv-x="762" 
d="M722 276l-668 -24l-7 161l671 17z" />
    <glyph glyph-name="quoteleft" unicode="&#x2018;" horiz-adv-x="279" 
d="M245 495l-127 -1l-96 313l146 7z" />
    <glyph glyph-name="quoteright" unicode="&#x2019;" horiz-adv-x="286" 
d="M253 805l-103 -341l-116 39l75 328z" />
    <glyph glyph-name="quotesinglbase" unicode="&#x201a;" horiz-adv-x="250" 
d="M273 285l-103 -341l-116 39l75 328z" />
    <glyph glyph-name="quotedblleft" unicode="&#x201c;" horiz-adv-x="506" 
d="M463 512l-119 -39l-100 340l138 33zM255 475h-126l-107 312l147 7z" />
    <glyph glyph-name="quotedblright" unicode="&#x201d;" horiz-adv-x="496" 
d="M463 773l-116 -313l-126 1l96 319zM240 815l-100 -340l-119 39l81 335z" />
    <glyph glyph-name="quotedblbase" unicode="&#x201e;" horiz-adv-x="455" 
d="M493 253l-116 -313l-126 1l96 319zM270 295l-100 -340l-119 39l81 335z" />
    <glyph glyph-name="dagger" unicode="&#x2020;" horiz-adv-x="425" 
d="M372 283l-98 -10v-82.5t2 -91.5q0 -23 1.5 -56.5t1.5 -56.5l-134 -5q0 28 -2 58.5t-2 53.5q-2 47 -2 88t1 80l-98 -10l-6 160l110 9q2 49 5.5 101t6.5 115q1 30 4 68t5 67l138 -8q-7 -32 -10.5 -64.5t-5.5 -57.5q-4 -60 -7 -111.5t-5 -99.5l91 8z" />
    <glyph glyph-name="daggerdbl" unicode="&#x2021;" horiz-adv-x="425" 
d="M409 404l-112 -11q-1 -17 -1 -33.5v-33.5l98 8l4 -155l-102 -10v-34t1 -36q1 -23 2 -56.5t1 -56.5l-134 -5q0 28 -1.5 58.5t-2.5 53.5q-1 17 -1 32.5v30.5l-92 -9l-7 161l101 8q1 16 1.5 32t1.5 32l-86 -8l-7 161l101 7q2 23 2.5 46.5t2.5 49.5q2 30 4.5 68t4.5 67
l138 -8q-6 -32 -9.5 -64.5t-5.5 -57.5q-2 -24 -3.5 -46.5t-2.5 -43.5l100 8z" />
    <glyph glyph-name="bullet" unicode="&#x2022;" horiz-adv-x="345" 
d="M297 340q-9 -19 -22 -32q-7 -6 -14 -11l-14 -10q-14 -10 -32 -19t-36 -14.5t-35 -6.5t-29 4q-36 16 -53 38t-20 46.5t5 49t21 45.5q11 18 24 29.5t32 20.5q16 8 39.5 9t47 -4t45.5 -17t35.5 -30.5t16.5 -43t-11 -54.5z" />
    <glyph glyph-name="ellipsis" unicode="&#x2026;" horiz-adv-x="1085" 
d="M962 74q-7 -16 -19 -27q-5 -5 -11 -9t-11 -8q-12 -9 -26.5 -16t-29.5 -11t-28.5 -5t-23.5 2q-40 13 -54.5 33t-14.5 41.5t9.5 41.5t18.5 34q17 26 46 41q20 9 51.5 6.5t58 -17t39 -41t-4.5 -65.5zM612 74q-7 -16 -25 -32t-40.5 -27t-45 -16t-38.5 1q-41 14 -56 33t-12 46
q1 13 8 30t17.5 33.5t23 29.5t24.5 19q20 9 51.5 6.5t58 -17t39 -41t-4.5 -65.5zM267 74q-7 -16 -19 -27q-5 -5 -11 -9t-11 -8q-12 -9 -26.5 -16t-29.5 -11t-28.5 -5t-23.5 2q-41 14 -56 33t-12 46q1 13 8 30t17.5 33.5t23 29.5t24.5 19q20 9 51.5 6.5t58 -17t39 -41
t-4.5 -65.5z" />
    <glyph glyph-name="perthousand" unicode="&#x2030;" horiz-adv-x="1260" 
d="M1214 199q-8 -48 -23.5 -83t-50.5 -70q-45 -43 -94 -62.5t-118 -8.5q-31 5 -52.5 20t-35.5 36q-41 -35 -86.5 -51t-108.5 -5q-30 5 -51.5 20t-36 35t-22 44.5t-9.5 49.5q-1 15 2 34t8.5 39.5t12.5 39.5t14 34q16 33 41 58t52 42.5t52 26.5t39 11q34 4 76.5 -5t73.5 -44
q5 -6 10 -13q34 29 69 44.5t54 17.5q17 2 37 1t40.5 -6t39.5 -15.5t34 -28.5q24 -29 32 -74t1 -87zM818 756q-21 -24 -42.5 -53.5t-37.5 -52.5q-98 -143 -187.5 -293t-174.5 -303q-6 -12 -14 -26.5t-16 -29.5t-16 -29t-14 -24l-126 69q16 25 30.5 54.5t26.5 51.5
q84 154 176.5 300t188.5 296q18 29 42 63t41 59zM452 600q-8 -48 -23.5 -83t-51.5 -70q-44 -44 -93 -63.5t-118 -7.5q-30 5 -51.5 19.5t-36 35t-22 45t-9.5 49.5q-1 15 2 34t8.5 39.5t12.5 39.5t14 34q16 33 41.5 58t52.5 42t51.5 26.5t38.5 11.5q17 2 37 1t40.5 -6
t39.5 -16t34 -29q24 -28 32 -73t1 -87zM1090 206q1 6 0.5 14.5t-2 17t-4 16t-5.5 11.5q-7 9 -24 10t-34 -5q-27 -10 -40.5 -23t-27.5 -40q-6 -12 -11.5 -29.5t-4.5 -28.5q3 -42 36 -45q49 -6 86 38q7 9 12 15.5t8.5 13.5t5.5 15.5t5 19.5zM806 206q3 12 -1 31.5t-10 27.5
q-6 9 -23.5 10t-34.5 -5q-26 -10 -39.5 -23t-27.5 -40q-6 -12 -12 -29.5t-4 -28.5q3 -42 36 -45q49 -6 86 38q7 9 12 15.5t8 13.5t5.5 15.5t4.5 19.5zM328 607q1 6 0.5 14.5t-2 17t-4 16t-5.5 11.5q-7 9 -24 10t-34 -5q-27 -10 -40.5 -23.5t-27.5 -40.5q-6 -11 -11.5 -29
t-4.5 -29q3 -41 36 -45q25 -2 46 6.5t40 31.5q15 18 20.5 30t10.5 35z" />
    <glyph glyph-name="guilsinglleft" unicode="&#x2039;" horiz-adv-x="428" 
d="M499 659q-46 -50 -89 -94t-84 -88.5t-80.5 -93t-77.5 -107.5q20 -19 45 -41t53 -44t57 -41.5t57 -32.5l-71 -96q-12 6 -38.5 23t-58.5 40.5t-67 51t-63 53t-46.5 47t-18.5 34.5q0 11 13.5 35.5t31.5 51.5q17 25 33 46t22 28q26 34 51.5 68t54.5 67t60 64.5t67 59.5
q7 6 14 12.5t22 22.5z" />
    <glyph glyph-name="guilsinglright" unicode="&#x203a;" horiz-adv-x="428" 
d="M471 466q0 -11 -13.5 -35.5t-32.5 -51.5q-17 -25 -33 -46t-21 -29q-26 -33 -52 -67t-54 -67q-29 -33 -60.5 -64.5t-66.5 -59.5q-8 -6 -15 -12.5t-21 -22.5l-113 66q17 18 27 27t18 17q18 13 32 27q74 71 137 150t117 162q-20 19 -45.5 41t-53 43.5t-57 41t-57.5 32.5
l72 97q12 -6 38 -23t58.5 -40.5t67 -51t63 -53t47 -47t18.5 -34.5z" />
    <glyph glyph-name="fraction" unicode="&#x2044;" horiz-adv-x="614" 
d="M634 756q-21 -24 -42.5 -53.5t-37.5 -52.5q-98 -143 -187.5 -293t-174.5 -303q-6 -12 -14 -26.5t-16 -29.5t-16 -29t-14 -24l-126 69q16 25 30.5 54.5t26.5 51.5q84 154 176.5 300t188.5 296q18 29 42 63t41 59z" />
    <glyph glyph-name="Euro" unicode="&#x20ac;" horiz-adv-x="759" 
d="M725 485q-11 -8 -29.5 -15t-38.5 -12t-39.5 -7.5t-31.5 -2.5q-3 26 -6 54.5t-5.5 55t-5.5 50.5t-6 41q-22 0 -47.5 -6.5t-50.5 -18t-49 -27.5t-43 -35q-3 -4 -6.5 -7t-6.5 -7l96 4l4 -154l-180 -12q-9 -33 -12 -67l177 9l4 -155l-134 -9q34 -27 83 -36.5t104 4.5
q30 8 76.5 26t96.5 50l38 -141q-58 -33 -114 -52t-98 -29q-59 -15 -114 -10t-101.5 26.5t-82 60t-54.5 91.5l-100 -7l-7 161l89 4q0 3 0.5 6t0.5 6q2 14 4 27l4 26l-80 -5l-7 161l141 6q39 79 98 136q46 44 97.5 72t104 40t105 8t101.5 -25q6 -42 12 -116.5t13 -168.5z" />
    <glyph glyph-name="trademark" unicode="&#x2122;" horiz-adv-x="805" 
d="M754 435q-24 -19 -48.5 -26.5t-52.5 -18.5q-10 40 -17 71.5l-13 58.5q-7 -16 -14 -32.5t-17 -39.5t-23 -55.5t-32 -78.5q-29 69 -50 118.5t-38 91.5q-5 -13 -10 -27.5t-11 -34t-13.5 -45l-17.5 -59.5q-19 10 -31 16t-22.5 10t-21.5 7t-27 7q18 61 35 110t35 98t40 104.5
t51 128.5q16 -42 29 -76.5t22.5 -63l17.5 -52.5l15 -45q11 22 22.5 45.5t25.5 53.5t32 68.5t41 91.5q19 -76 32 -135t23.5 -108.5t19 -93t18.5 -89.5zM333 678q-42 0 -64 -0.5t-36 -0.5l3 -253q-16 -5 -29 -8t-26 -5t-28 -4t-34 -5l2 273q-9 -1 -23.5 -2t-43.5 -5
q-4 16 -6 29t-3.5 26t-3 27t-3.5 31q41 3 76.5 4.5t68 2t65 1.5t67.5 4q3 -18 4.5 -31t3 -25t4 -25.5t6.5 -33.5z" />
    <glyph glyph-name="Omega" unicode="&#x2126;" horiz-adv-x="842" 
d="M812 -2l-330 -32l-6 151q38 35 67.5 72.5t51.5 75.5t35.5 74.5t20.5 69.5q4 20 3 44.5t-7 49.5t-16.5 47t-23.5 38q-18 21 -42 33t-50.5 15.5t-53 0.5t-48.5 -10q-41 -15 -70.5 -32t-53 -39.5t-42.5 -52t-40 -68.5q-30 -57 -26.5 -110t28 -96.5t64 -75t80.5 -46.5l7 -133
l-330 -32l-7 160l76 6q-34 45 -48.5 97.5t-14 106.5t14.5 108t37 102q31 63 80 111.5t100.5 81.5t98.5 51t74 21q33 4 71 2.5t75.5 -11.5t73 -30t63.5 -53q22 -26 37.5 -62t23 -76.5t8 -83.5t-6.5 -83q-14 -76 -41 -136t-63 -111l125 10z" />
    <glyph glyph-name="partialdiff" unicode="&#x2202;" horiz-adv-x="700" 
d="M646 341q12 -48 19 -100t0 -100t-33 -88.5t-81 -64.5q-47 -21 -103.5 -19.5t-113.5 21t-110 54t-92 79.5q-31 36 -59 80t-46.5 90t-22.5 89.5t12.5 78t58.5 55.5t116 22q41 1 72.5 -5.5t58.5 -17.5q16 -6 34.5 -15.5t36.5 -20t35 -22t30 -21.5q-26 51 -59.5 97t-81.5 79
q-19 13 -36.5 23t-37 18.5t-43 15t-56.5 12.5l75 122q31 -5 63.5 -19t63 -33t56 -39.5t42.5 -37.5q52 -52 86.5 -95.5t57 -82.5t35.5 -77t23 -78zM513 167q-6 42 -22.5 68.5t-38.5 46.5q-25 22 -51 43.5t-54 38t-59 27t-65 10.5q-30 0 -47 -6t-24 -16t-6 -24t7 -30
q6 -19 17.5 -38.5t25 -37.5t26.5 -33t24 -25q27 -25 56 -45t59 -31t59.5 -12.5t56.5 10.5q20 9 29 24.5t7 29.5z" />
    <glyph glyph-name="Delta" unicode="&#x2206;" horiz-adv-x="590" 
d="M599 -3l-481 -15q-2 -7 -2.5 -13.5t-2.5 -13.5l-127 34q12 50 23 95.5t23.5 90.5t26.5 91.5t31 97.5q19 58 44.5 120t52.5 127.5t54 134.5t50 141q37 -67 64 -123t48.5 -110t41 -112t42.5 -130q26 -79 44.5 -147t29.5 -122l34 1zM412 140q-9 49 -21 102t-29 118
q-15 60 -29.5 108.5t-31.5 88.5q-11 -29 -18.5 -48t-14.5 -38q-10 -24 -21.5 -56.5t-32.5 -91.5q-14 -38 -29 -86.5t-30 -102.5z" />
    <glyph glyph-name="product" unicode="&#x220f;" horiz-adv-x="760" 
d="M781 650q-39 0 -84 -2.5t-91 -7.5q-1 -7 -1.5 -13.5t-0.5 -12.5q-6 -78 -9.5 -142.5t-5 -127t-1.5 -127.5t2 -144q0 -11 0.5 -26t1 -30.5t1 -30.5t0.5 -27l-134 -4q0 28 -2 58t-2 53q-2 79 -1 144t3.5 127t6.5 127t8 146q0 10 1 15q-38 -5 -68 -9.5t-47 -6.5l11 -664
l-149 2l1 648q-27 -5 -80 -13.5t-128 -17.5q-5 22 -6 40t-1 35q1 8 1 15v14q0 6 -0.5 13.5t-2.5 26.5q120 15 222.5 28t194 23t177 16.5t171.5 8.5q2 -28 3 -43t1 -26t1.5 -23.5t6.5 -41.5z" />
    <glyph glyph-name="summation" unicode="&#x2211;" horiz-adv-x="613" 
d="M609 776l-23 -148q-36 0 -71 -0.5t-74 -1t-83 -0.5t-98 2q17 -23 30 -42t26.5 -39.5t30.5 -45t41 -57.5q-21 -34 -43 -73.5t-44 -80.5t-43 -81.5t-39 -77.5q52 7 85.5 11.5t62.5 9.5q17 3 34.5 5.5t41 5.5t54.5 6.5t74 7.5q0 -26 1.5 -40.5t3.5 -27.5q2 -14 4.5 -30.5
t5.5 -42.5q-89 -8 -162 -18t-142.5 -20.5t-142 -21.5t-159.5 -21q62 128 122.5 253.5t119.5 229.5q-34 44 -59.5 78t-52.5 68.5t-60.5 76t-83.5 101.5q67 2 153.5 5t175 5.5t171 3.5t143.5 0z" />
    <glyph glyph-name="radical" unicode="&#x221a;" horiz-adv-x="950" 
d="M881 602q-84 -86 -164 -168q-34 -35 -71 -72.5t-73 -74.5t-69.5 -71.5t-60.5 -62.5l-85 -85q-28 -28 -61 -59l-281 372l123 93q38 -55 72 -104q15 -21 30 -43t28.5 -42t25.5 -36.5l20 -27.5q14 13 26 24t24 24q27 28 60 63.5t69 73.5t72.5 77t70.5 75q80 85 163 174z" />
    <glyph glyph-name="infinity" unicode="&#x221e;" horiz-adv-x="754" 
d="M734 394q-8 -47 -23.5 -82.5t-50.5 -70.5q-44 -43 -93.5 -62.5t-118.5 -7.5q-29 5 -50.5 19t-35.5 34q-40 -32 -85 -46.5t-105 -4.5q-30 5 -51.5 20t-36 35.5t-22 45t-9.5 49.5q-1 15 2 34t8.5 39t12.5 39t14 34q16 33 41.5 58.5t52.5 42.5t51.5 26.5t38.5 11.5
q17 2 37 1t40.5 -6t39.5 -16t34 -29q2 -2 4 -5l4 -6q33 27 66.5 41.5t50.5 16.5t37 1t40.5 -6t39.5 -16t34 -29q12 -14 20 -33t12 -40.5t4 -44t-3 -43.5zM610 402q1 6 0.5 14.5t-2 17t-4 16t-5.5 11.5q-6 9 -23.5 10t-34.5 -5q-27 -10 -40 -23.5t-27 -40.5q-7 -11 -12.5 -29
t-4.5 -29q3 -42 37 -45q50 -6 85 38q15 18 20.5 30t10.5 35zM334 405q2 12 -2 31t-9 27q-7 9 -24 10t-34 -5q-27 -9 -40.5 -22.5t-27.5 -40.5q-6 -11 -11.5 -29t-4.5 -29q3 -42 36 -45q49 -6 86 38q15 18 20.5 30t10.5 35z" />
    <glyph glyph-name="integral" unicode="&#x222b;" horiz-adv-x="602" 
d="M597 745l-46 -117q-23 13 -50 22t-52.5 14t-46 6t-29.5 -1q-29 -5 -34 -23t3 -56q8 -36 18.5 -70.5t21.5 -69.5q11 -36 20 -73t14 -75q5 -39 4.5 -91.5t-12.5 -102t-37.5 -87t-71.5 -46.5q-35 -7 -70.5 -3t-71.5 16.5t-72 32t-71 44.5l42 132q62 -48 119.5 -71.5
t93.5 -16.5q14 2 15 22.5t2 44.5q0 31 -3.5 61.5t-5.5 44.5q-5 42 -15.5 80.5t-21.5 77.5q-13 40 -24.5 79.5t-19.5 81.5q-9 50 0 85.5t30 59.5t50.5 37t59.5 19q16 3 48 1t69.5 -9t75.5 -19t68 -30z" />
    <glyph glyph-name="approxequal" unicode="&#x2248;" horiz-adv-x="668" 
d="M677 589q-22 -28 -34 -43.5t-23 -28.5q-11 -14 -23.5 -27t-26.5 -25q-27 -24 -61 -40.5t-77 -16.5q-38 0 -60.5 13t-38.5 32q-8 9 -14 18.5t-13 19.5q-5 7 -9.5 13.5t-10.5 12.5q-14 -3 -34.5 -14.5t-40 -28.5t-35.5 -37t-20 -39l-104 109q12 25 42 51.5t65.5 48.5
t72 36.5t62.5 14.5q42 0 68.5 -20.5t42.5 -42.5q7 -11 13 -20.5t11 -17.5q2 -3 1.5 -6t1.5 -3q22 0 52 28t62 65zM677 350q-22 -28 -34 -43.5t-23 -28.5q-11 -14 -23.5 -27t-26.5 -25q-27 -24 -61 -40.5t-77 -16.5q-38 0 -60.5 13t-38.5 33q-8 8 -14 17.5t-13 19.5
q-5 7 -9.5 13.5t-10.5 12.5q-14 -3 -34.5 -14.5t-40 -28t-35.5 -36.5t-20 -39l-104 108q12 25 42 51.5t65.5 48.5t72 36.5t62.5 14.5q42 0 68.5 -20.5t42.5 -42.5q7 -11 13 -20.5t11 -17.5q2 -3 1.5 -6t1.5 -3q22 0 52 28t62 65z" />
    <glyph glyph-name="notequal" unicode="&#x2260;" horiz-adv-x="425" 
d="M419 647q-14 -19 -27 -42t-24 -41l-4 -9l41 4l4 -155l-130 -13q-8 -17 -16.5 -34.5t-16.5 -34.5l148 12l4 -155l-229 -22q-7 -16 -14 -31.5t-14 -31.5q-4 -9 -8.5 -20t-10 -23t-10.5 -23t-9 -19l-79 54q10 20 19 43.5t17 40.5q2 5 4 9t4 9l-6 143l75 6q8 17 16.5 33.5
t16.5 33.5l-90 -9l-7 161l182 14q8 17 17 34l18 34q11 23 26 49.5t26 46.5z" />
    <glyph glyph-name="lessequal" unicode="&#x2264;" horiz-adv-x="537" 
d="M520 -10l-471 -18l-6 160l252 7q-18 10 -45 29t-58 41.5t-62 48t-56.5 49t-41 42.5t-15.5 31q0 11 13.5 35.5t31.5 51.5q17 25 33 46t22 28q26 34 51.5 68t54.5 67t60 64.5t67 59.5q7 6 14 12.5t22 22.5l113 -66q-46 -50 -89 -94t-84 -88.5t-80.5 -93t-77.5 -107.5
q20 -19 45 -41t53 -44t57 -41.5t57 -32.5l-65 -87l201 5z" />
    <glyph glyph-name="greaterequal" unicode="&#x2265;" horiz-adv-x="537" 
d="M520 -10l-471 -18l-6 160l82 3l-106 62q17 18 27 27t18 17q18 13 32 27q74 71 137 150t117 162q-20 19 -45.5 41t-53 43.5t-57 41t-57.5 32.5l72 97q12 -6 38 -23t58.5 -40.5t67 -51t63 -53t47 -47.5t18.5 -34q0 -11 -13.5 -35.5t-32.5 -51.5q-17 -25 -33 -46t-21 -29
q-26 -33 -52 -67t-54 -67q-29 -33 -60.5 -64.5t-66.5 -59.5q-7 -5 -13.5 -11t-19.5 -20l381 10z" />
    <glyph glyph-name="lozenge" unicode="&#x25ca;" horiz-adv-x="689" 
d="M695 466q0 -11 -13.5 -36t-32.5 -51q-17 -25 -33 -46t-21 -29q-26 -33 -52 -67t-54 -67q-29 -33 -60.5 -64.5t-66.5 -60.5q-8 -5 -15 -11.5t-21 -22.5l-113 66l4 4q-33 24 -68.5 51.5t-64.5 54t-48 48.5t-19 35q0 11 13.5 35.5t31.5 51.5q17 25 33 46t22 28
q26 34 51.5 68t54.5 67t60 64.5t67 59.5q7 6 14 12.5t22 22.5l113 -66l-4 -5q33 -23 68 -50.5t64.5 -54t48.5 -48.5t19 -35zM544 460q-26 24 -60 53t-71 55q-66 -68 -126.5 -135.5t-118.5 -156.5q27 -26 63 -56.5t74 -57.5q69 69 128.5 144t110.5 154z" />
    <glyph glyph-name="apple" unicode="&#xf8ff;" horiz-adv-x="1495" 
d="M1479 690h-4v27l-10 -27h-3l-10 27h-1v-27h-3v31h6l10 -25l9 25h6v-31zM1444 718h-10v-28h-4v28h-9v3h23v-3zM1407 713q11 -14 6.5 -32.5t-16.5 -28.5q-15 -14 -30 -17.5t-38 -4.5q4 2 9 8.5t6 11.5q-5 -8 -21 -14.5t-33 -11.5v-15h-36v-200h-21v-4q0 -91 -42.5 -163.5
t-125.5 -123.5q1 -18 -4 -39t-18.5 -41t-35.5 -36t-54 -23q-7 -2 -11 6q-3 7 3 12q10 6 17.5 17.5t10.5 24.5q2 7 2 16.5t-5 18.5q-123 -44 -283 -44q-111 0 -204 21t-164 63v-62q-45 17 -87 43.5t-75 64t-53 86.5t-20 111q0 31 7 60.5t18.5 55t26.5 46t30 33.5q-7 2 -18 7
t-19 10q5 -10 15 -15q-6 -1 -15 -1t-19.5 2.5t-21.5 7.5t-20 14q-18 19 -14.5 37.5t14.5 26.5q8 7 23.5 8.5t28.5 -8.5q11 8 24.5 8.5t24.5 -6.5q10 -5 12 -13.5t0.5 -17t-5.5 -15t-7 -8.5q2 -7 5 -13t8 -8q2 2 4.5 4t5.5 4q62 95 190 149t305 54q125 0 227.5 -26.5
t174.5 -77.5q20 1 41.5 2t39.5 1q38 0 72.5 1t45.5 1q-5 9 -2.5 21t12.5 19q14 9 27.5 7t23.5 -11q8 8 26 11t32 -14zM1396 690q-1 12 -8.5 16t-12.5 4t-11.5 -4.5t-6.5 -12.5q-1 -8 4 -14t12 -6q2 -11 -10 -21q10 4 17 10q6 5 11 12t5 16zM1345 690q0 13 -8.5 17t-13.5 4
t-11 -4.5t-7 -12.5q0 -9 5 -14.5t12 -6.5q2 -12 -11 -20q9 4 17 10q7 5 12 12t5 15zM1304 664q-9 4 -14 13v-30q6 5 9 8.5t5 8.5zM1174 592v14l-9 -1q2 -3 4.5 -6.5t4.5 -6.5zM1269 629v30h-111v-30h36v-201l39 -1v202h36zM1140 627v31l-79 -3v-233l36 2v57l40 2v34l-40 -3
l4 111zM1051 421l-54 229l-52 -4l-43 -243l37 6l6 33l60 5l9 -29zM901 496q-8 -26 -28 -44l15 -15zM892 402l-47 49q14 12 25 27q9 13 16 31t6 41q-2 38 -19.5 55t-38.5 24q-25 7 -55 5v-253l35 7l-1 43l39 -36zM756 430v144q-29 -9 -47 -29.5t-19 -50.5q-1 -27 18.5 -45
t47.5 -19zM762 378v34q-25 -1 -44 8q-17 8 -31 25t-15 50q-1 29 12 49t30 31q18 13 43 21v37q-36 -9 -63 -27q-23 -16 -43 -44t-18 -72q1 -40 18.5 -63t39.5 -34t42.5 -13.5t28.5 -1.5zM1215 405q0 1 -0.5 1.5t-0.5 2.5h-40v149q-7 12 -15.5 23.5t-17.5 22.5l-21 -1v-69
l37 2v-73l-40 -3v-56l-114 -10l-11 31l-25 -3l-8 -31q-20 -2 -53.5 -7.5t-56.5 -10.5l-12 10v-13q-10 -2 -21 -4q-9 -2 -20.5 -4t-21.5 -4q-20 -4 -41 -1.5t-40 10t-35 19.5t-25 28v-87l-144 -47v79l-17 -39l-18 36v-89l-76 -31l1 38q-13 -27 -31 -46.5t-41 -19.5
q-24 0 -41 15t-28 37.5t-16.5 49t-6.5 49.5q-1 17 3 44t14.5 52t28.5 43t45 18t44.5 -16.5t26.5 -41.5v74l62 21l30 -48l20 61l143 52v-52q17 36 54 59.5t81 28.5q121 14 146 -82l15 93l85 5l26 -108v110h5h5t8 1q-69 43 -163 65t-207 22q-143 0 -256 -37t-182 -107l-4 -4
l-4 -4q15 8 31 14.5t32 9.5v-98q-31 -6 -55.5 -24t-41 -43t-25.5 -55t-9 -60q0 -39 14 -71.5t35.5 -57.5t47.5 -43t49 -27v-17q69 -43 162.5 -65t205.5 -22q162 0 284 45q7 3 12 -4q15 -23 9 -55q-5 -15 -10 -25q19 10 32 24t20.5 29.5t10 31t0.5 27.5q0 7 5 10
q81 48 123 117t42 156zM611 338v248l-36 -12v-248zM545 318v247l-39 -14l-36 -95l-41 73l-32 -12v-252l36 13v161l39 -61l38 91l-1 -163zM163 614q-1 8 -7 12.5t-11 4.5t-12.5 -4t-8.5 -17q-1 -8 4.5 -15t11.5 -12q7 -6 17 -10q-13 8 -11 20q8 1 13 6.5t4 14.5zM112 613
q-1 8 -7 12.5t-12 4.5q-5 0 -12.5 -4t-7.5 -16q-1 -9 4.5 -16t11.5 -12q7 -6 16 -10q-12 10 -10 20q8 1 13 7t4 14zM378 354q0 19 -3 43.5t-11.5 46.5t-22.5 37t-35 15t-35.5 -16t-23 -37.5t-12 -44.5t-3.5 -38q1 -17 6 -40t14 -43t23 -34t32 -14q15 0 27.5 12t22.5 31
t15.5 40.5t5.5 41.5zM300 85v53q-26 9 -52.5 28t-48 46.5t-35 63t-12.5 76.5q2 60 22.5 98t45.5 61q29 26 65 39v54q-51 -19 -91 -53q-17 -15 -33.5 -34.5t-29 -44t-20 -55t-7.5 -67.5q0 -36 8.5 -66.5t22 -56t31.5 -46t36 -36.5q43 -37 98 -60zM999 475l-48 -4l22 127z
M859 544q1 -15 -6 -27.5t-16 -22.5q-11 -11 -24 -20v116q12 -2 22 -8q8 -5 15 -14.5t9 -23.5zM341 365q0 -41 -9 -68t-26 -28q-9 0 -16 10.5t-12 25.5t-7.5 31t-2.5 27q0 14 2.5 31t7 32t11.5 25.5t16 10.5q18 0 27 -28.5t9 -68.5zM981 489l-6 27l-5 -28zM830 517
q9 7 9.5 21.5t-9.5 19.5v-41zM319 364q0 29 -3.5 48.5t-10.5 19.5q-4 0 -6.5 -7t-4.5 -17.5t-3 -22.5t-1 -22q0 -8 1 -19t3.5 -21.5t5 -17.5t5.5 -7q7 0 10.5 19t3.5 47z" />
    <glyph glyph-name="fi" unicode="&#xfb01;" horiz-adv-x="965" 
d="M898 763q-7 -32 -10 -64.5t-5 -57.5q-6 -78 -9.5 -143t-5 -127t-1.5 -127.5t2 -144.5q0 -23 1.5 -56.5t1.5 -56.5l-134 -5q0 28 -2 58.5t-2 53.5q-2 79 -1.5 143.5t3.5 126.5t7 127t8 146q1 30 4 68t5 67zM661 653q-66 -6 -120 -9t-101 -6t-91.5 -8t-90.5 -15
q-7 -35 -9.5 -82t-3.5 -99q36 8 71 13.5t72 10.5q42 5 92 8.5t122 9.5l5 -142q-59 -5 -108 -9.5t-92.5 -10t-83 -12.5t-78.5 -17q1 -40 1.5 -97t1.5 -110q1 -62 1 -127l-135 -15q-1 61 -2 120q-1 51 -1 105.5v94.5q-2 0 -5 -0.5t-19 -2.5l-23 128q8 3 16 7q7 3 15.5 5.5
t16.5 4.5q0 49 2 100.5t7 96.5q-10 -2 -25 -6t-49 -14l-26 160q33 7 83 14t108.5 13.5t122 12.5t123 11t111 9.5t86.5 7.5q4 -38 8 -75.5t-2 -74.5z" />
    <glyph glyph-name="fl" unicode="&#xfb02;" horiz-adv-x="1359" 
d="M1336 54q-154 -30 -299.5 -61.5t-294.5 -59.5q-4 30 -3.5 61.5t2.5 64.5q2 31 3.5 60.5t1.5 46.5q0 40 1 85.5t1.5 93.5t1.5 96.5t1 92.5q1 104 2 210l140 35q-3 -108 -6 -214q-1 -45 -2.5 -94t-2.5 -97.5t-2 -95t-2 -85.5q0 -17 0.5 -34t1.5 -35q17 3 44.5 8t61.5 11
t71.5 13.5t73.5 14.5q85 17 183 35zM661 653q-66 -6 -120 -9t-101 -6t-91.5 -8t-90.5 -15q-7 -35 -9.5 -82t-3.5 -99q36 8 71 13.5t72 10.5q42 5 92 8.5t122 9.5l5 -142q-59 -5 -108 -9.5t-92.5 -10t-83 -12.5t-78.5 -17q1 -40 1.5 -97t1.5 -110q1 -62 1 -127l-135 -15
q-1 61 -2 120q-1 51 -1 105.5v94.5q-2 0 -5 -0.5t-19 -2.5l-23 128q8 3 16 7q7 3 15.5 5.5t16.5 4.5q0 49 2 100.5t7 96.5q-10 -2 -25 -6t-49 -14l-26 160q33 7 83 14t108.5 13.5t122 12.5t123 11t111 9.5t86.5 7.5q4 -38 8 -75.5t-2 -74.5z" />
  </font>
</defs>
</svg>
